<?xml version="1.0" encoding="utf-8" standalone="no"?>
<!DOCTYPE svg PUBLIC "-//W3C//DTD SVG 1.1//EN"
  "http://www.w3.org/Graphics/SVG/1.1/DTD/svg11.dtd">
<svg xmlns:xlink="http://www.w3.org/1999/xlink" width="995.481375pt" height="347.819564pt" viewBox="0 0 995.481375 347.819564" xmlns="http://www.w3.org/2000/svg" version="1.1">
 <metadata>
  <rdf:RDF xmlns:dc="http://purl.org/dc/elements/1.1/" xmlns:cc="http://creativecommons.org/ns#" xmlns:rdf="http://www.w3.org/1999/02/22-rdf-syntax-ns#">
   <cc:Work>
    <dc:type rdf:resource="http://purl.org/dc/dcmitype/StillImage"/>
    <dc:date>2026-07-19T04:00:46.818716</dc:date>
    <dc:format>image/svg+xml</dc:format>
    <dc:creator>
     <cc:Agent>
      <dc:title>Matplotlib v3.11.1, https://matplotlib.org/</dc:title>
     </cc:Agent>
    </dc:creator>
   </cc:Work>
  </rdf:RDF>
 </metadata>
 <defs>
  <style type="text/css">*{stroke-linejoin: round; stroke-linecap: butt}</style>
 </defs>
 <g id="figure_1">
  <g id="patch_1">
   <path d="M 0 347.819564 
L 995.481375 347.819564 
L 995.481375 0 
L 0 0 
z
" style="fill: #ffffff"/>
  </g>
  <g id="axes_1">
   <g id="patch_2">
    <path d="M 46.397375 236.068189 
L 485.566664 236.068189 
L 485.566664 23.077969 
L 46.397375 23.077969 
z
" style="fill: #ffffff"/>
   </g>
   <g id="matplotlib.axis_1">
    <g id="xtick_1">
     <g id="line2d_1">
      <path d="M 81.643388 236.068189 
L 81.643388 23.077969 
" clip-path="url(#pf929a85986)" style="fill: none; stroke: #cccccc; stroke-linecap: round"/>
     </g>
     <g id="text_1">
      <!-- 0.20 -->
      <g style="fill: #262626" transform="translate(68.78499 254.343482) scale(0.1155 -0.1155)">
       <defs>
        <path id="DejaVuSans-13" d="M 2034 4250 
Q 1547 4250 1301 3770 
Q 1056 3291 1056 2328 
Q 1056 1369 1301 889 
Q 1547 409 2034 409 
Q 2525 409 2770 889 
Q 3016 1369 3016 2328 
Q 3016 3291 2770 3770 
Q 2525 4250 2034 4250 
z
M 2034 4750 
Q 2819 4750 3233 4129 
Q 3647 3509 3647 2328 
Q 3647 1150 3233 529 
Q 2819 -91 2034 -91 
Q 1250 -91 836 529 
Q 422 1150 422 2328 
Q 422 3509 836 4129 
Q 1250 4750 2034 4750 
z
" transform="scale(0.015625)"/>
        <path id="DejaVuSans-11" d="M 684 794 
L 1344 794 
L 1344 0 
L 684 0 
L 684 794 
z
" transform="scale(0.015625)"/>
        <path id="DejaVuSans-15" d="M 1228 531 
L 3431 531 
L 3431 0 
L 469 0 
L 469 531 
Q 828 903 1448 1529 
Q 2069 2156 2228 2338 
Q 2531 2678 2651 2914 
Q 2772 3150 2772 3378 
Q 2772 3750 2511 3984 
Q 2250 4219 1831 4219 
Q 1534 4219 1204 4116 
Q 875 4013 500 3803 
L 500 4441 
Q 881 4594 1212 4672 
Q 1544 4750 1819 4750 
Q 2544 4750 2975 4387 
Q 3406 4025 3406 3419 
Q 3406 3131 3298 2873 
Q 3191 2616 2906 2266 
Q 2828 2175 2409 1742 
Q 1991 1309 1228 531 
z
" transform="scale(0.015625)"/>
       </defs>
       <use xlink:href="#DejaVuSans-13"/>
       <use xlink:href="#DejaVuSans-11" transform="translate(63.625 0)"/>
       <use xlink:href="#DejaVuSans-15" transform="translate(95.40625 0)"/>
       <use xlink:href="#DejaVuSans-13" transform="translate(159.03125 0)"/>
      </g>
     </g>
    </g>
    <g id="xtick_2">
     <g id="line2d_2">
      <path d="M 139.978398 236.068189 
L 139.978398 23.077969 
" clip-path="url(#pf929a85986)" style="fill: none; stroke: #cccccc; stroke-linecap: round"/>
     </g>
     <g id="text_2">
      <!-- 0.25 -->
      <g style="fill: #262626" transform="translate(127.12 254.343482) scale(0.1155 -0.1155)">
       <defs>
        <path id="DejaVuSans-18" d="M 691 4666 
L 3169 4666 
L 3169 4134 
L 1269 4134 
L 1269 2991 
Q 1406 3038 1543 3061 
Q 1681 3084 1819 3084 
Q 2600 3084 3056 2656 
Q 3513 2228 3513 1497 
Q 3513 744 3044 326 
Q 2575 -91 1722 -91 
Q 1428 -91 1123 -41 
Q 819 9 494 109 
L 494 744 
Q 775 591 1075 516 
Q 1375 441 1709 441 
Q 2250 441 2565 725 
Q 2881 1009 2881 1497 
Q 2881 1984 2565 2268 
Q 2250 2553 1709 2553 
Q 1456 2553 1204 2497 
Q 953 2441 691 2322 
L 691 4666 
z
" transform="scale(0.015625)"/>
       </defs>
       <use xlink:href="#DejaVuSans-13"/>
       <use xlink:href="#DejaVuSans-11" transform="translate(63.625 0)"/>
       <use xlink:href="#DejaVuSans-15" transform="translate(95.40625 0)"/>
       <use xlink:href="#DejaVuSans-18" transform="translate(159.03125 0)"/>
      </g>
     </g>
    </g>
    <g id="xtick_3">
     <g id="line2d_3">
      <path d="M 198.313408 236.068189 
L 198.313408 23.077969 
" clip-path="url(#pf929a85986)" style="fill: none; stroke: #cccccc; stroke-linecap: round"/>
     </g>
     <g id="text_3">
      <!-- 0.30 -->
      <g style="fill: #262626" transform="translate(185.45501 254.343482) scale(0.1155 -0.1155)">
       <defs>
        <path id="DejaVuSans-16" d="M 2597 2516 
Q 3050 2419 3304 2112 
Q 3559 1806 3559 1356 
Q 3559 666 3084 287 
Q 2609 -91 1734 -91 
Q 1441 -91 1130 -33 
Q 819 25 488 141 
L 488 750 
Q 750 597 1062 519 
Q 1375 441 1716 441 
Q 2309 441 2620 675 
Q 2931 909 2931 1356 
Q 2931 1769 2642 2001 
Q 2353 2234 1838 2234 
L 1294 2234 
L 1294 2753 
L 1863 2753 
Q 2328 2753 2575 2939 
Q 2822 3125 2822 3475 
Q 2822 3834 2567 4026 
Q 2313 4219 1838 4219 
Q 1578 4219 1281 4162 
Q 984 4106 628 3988 
L 628 4550 
Q 988 4650 1302 4700 
Q 1616 4750 1894 4750 
Q 2613 4750 3031 4423 
Q 3450 4097 3450 3541 
Q 3450 3153 3228 2886 
Q 3006 2619 2597 2516 
z
" transform="scale(0.015625)"/>
       </defs>
       <use xlink:href="#DejaVuSans-13"/>
       <use xlink:href="#DejaVuSans-11" transform="translate(63.625 0)"/>
       <use xlink:href="#DejaVuSans-16" transform="translate(95.40625 0)"/>
       <use xlink:href="#DejaVuSans-13" transform="translate(159.03125 0)"/>
      </g>
     </g>
    </g>
    <g id="xtick_4">
     <g id="line2d_4">
      <path d="M 256.648418 236.068189 
L 256.648418 23.077969 
" clip-path="url(#pf929a85986)" style="fill: none; stroke: #cccccc; stroke-linecap: round"/>
     </g>
     <g id="text_4">
      <!-- 0.35 -->
      <g style="fill: #262626" transform="translate(243.790019 254.343482) scale(0.1155 -0.1155)">
       <use xlink:href="#DejaVuSans-13"/>
       <use xlink:href="#DejaVuSans-11" transform="translate(63.625 0)"/>
       <use xlink:href="#DejaVuSans-16" transform="translate(95.40625 0)"/>
       <use xlink:href="#DejaVuSans-18" transform="translate(159.03125 0)"/>
      </g>
     </g>
    </g>
    <g id="xtick_5">
     <g id="line2d_5">
      <path d="M 314.983428 236.068189 
L 314.983428 23.077969 
" clip-path="url(#pf929a85986)" style="fill: none; stroke: #cccccc; stroke-linecap: round"/>
     </g>
     <g id="text_5">
      <!-- 0.40 -->
      <g style="fill: #262626" transform="translate(302.125029 254.343482) scale(0.1155 -0.1155)">
       <defs>
        <path id="DejaVuSans-17" d="M 2419 4116 
L 825 1625 
L 2419 1625 
L 2419 4116 
z
M 2253 4666 
L 3047 4666 
L 3047 1625 
L 3713 1625 
L 3713 1100 
L 3047 1100 
L 3047 0 
L 2419 0 
L 2419 1100 
L 313 1100 
L 313 1709 
L 2253 4666 
z
" transform="scale(0.015625)"/>
       </defs>
       <use xlink:href="#DejaVuSans-13"/>
       <use xlink:href="#DejaVuSans-11" transform="translate(63.625 0)"/>
       <use xlink:href="#DejaVuSans-17" transform="translate(95.40625 0)"/>
       <use xlink:href="#DejaVuSans-13" transform="translate(159.03125 0)"/>
      </g>
     </g>
    </g>
    <g id="xtick_6">
     <g id="line2d_6">
      <path d="M 373.318438 236.068189 
L 373.318438 23.077969 
" clip-path="url(#pf929a85986)" style="fill: none; stroke: #cccccc; stroke-linecap: round"/>
     </g>
     <g id="text_6">
      <!-- 0.45 -->
      <g style="fill: #262626" transform="translate(360.460039 254.343482) scale(0.1155 -0.1155)">
       <use xlink:href="#DejaVuSans-13"/>
       <use xlink:href="#DejaVuSans-11" transform="translate(63.625 0)"/>
       <use xlink:href="#DejaVuSans-17" transform="translate(95.40625 0)"/>
       <use xlink:href="#DejaVuSans-18" transform="translate(159.03125 0)"/>
      </g>
     </g>
    </g>
    <g id="xtick_7">
     <g id="line2d_7">
      <path d="M 431.653448 236.068189 
L 431.653448 23.077969 
" clip-path="url(#pf929a85986)" style="fill: none; stroke: #cccccc; stroke-linecap: round"/>
     </g>
     <g id="text_7">
      <!-- 0.50 -->
      <g style="fill: #262626" transform="translate(418.795049 254.343482) scale(0.1155 -0.1155)">
       <use xlink:href="#DejaVuSans-13"/>
       <use xlink:href="#DejaVuSans-11" transform="translate(63.625 0)"/>
       <use xlink:href="#DejaVuSans-18" transform="translate(95.40625 0)"/>
       <use xlink:href="#DejaVuSans-13" transform="translate(159.03125 0)"/>
      </g>
     </g>
    </g>
    <g id="text_8">
     <!-- composite_score -->
     <g style="fill: #262626" transform="translate(219.916082 269.47647) scale(0.11 -0.11)">
      <defs>
       <path id="DejaVuSans-46" d="M 3122 3366 
L 3122 2828 
Q 2878 2963 2633 3030 
Q 2388 3097 2138 3097 
Q 1578 3097 1268 2742 
Q 959 2388 959 1747 
Q 959 1106 1268 751 
Q 1578 397 2138 397 
Q 2388 397 2633 464 
Q 2878 531 3122 666 
L 3122 134 
Q 2881 22 2623 -34 
Q 2366 -91 2075 -91 
Q 1284 -91 818 406 
Q 353 903 353 1747 
Q 353 2603 823 3093 
Q 1294 3584 2113 3584 
Q 2378 3584 2631 3529 
Q 2884 3475 3122 3366 
z
" transform="scale(0.015625)"/>
       <path id="DejaVuSans-52" d="M 1959 3097 
Q 1497 3097 1228 2736 
Q 959 2375 959 1747 
Q 959 1119 1226 758 
Q 1494 397 1959 397 
Q 2419 397 2687 759 
Q 2956 1122 2956 1747 
Q 2956 2369 2687 2733 
Q 2419 3097 1959 3097 
z
M 1959 3584 
Q 2709 3584 3137 3096 
Q 3566 2609 3566 1747 
Q 3566 888 3137 398 
Q 2709 -91 1959 -91 
Q 1206 -91 779 398 
Q 353 888 353 1747 
Q 353 2609 779 3096 
Q 1206 3584 1959 3584 
z
" transform="scale(0.015625)"/>
       <path id="DejaVuSans-50" d="M 3328 2828 
Q 3544 3216 3844 3400 
Q 4144 3584 4550 3584 
Q 5097 3584 5394 3201 
Q 5691 2819 5691 2113 
L 5691 0 
L 5113 0 
L 5113 2094 
Q 5113 2597 4934 2840 
Q 4756 3084 4391 3084 
Q 3944 3084 3684 2787 
Q 3425 2491 3425 1978 
L 3425 0 
L 2847 0 
L 2847 2094 
Q 2847 2600 2669 2842 
Q 2491 3084 2119 3084 
Q 1678 3084 1418 2786 
Q 1159 2488 1159 1978 
L 1159 0 
L 581 0 
L 581 3500 
L 1159 3500 
L 1159 2956 
Q 1356 3278 1631 3431 
Q 1906 3584 2284 3584 
Q 2666 3584 2933 3390 
Q 3200 3197 3328 2828 
z
" transform="scale(0.015625)"/>
       <path id="DejaVuSans-53" d="M 1159 525 
L 1159 -1331 
L 581 -1331 
L 581 3500 
L 1159 3500 
L 1159 2969 
Q 1341 3281 1617 3432 
Q 1894 3584 2278 3584 
Q 2916 3584 3314 3078 
Q 3713 2572 3713 1747 
Q 3713 922 3314 415 
Q 2916 -91 2278 -91 
Q 1894 -91 1617 61 
Q 1341 213 1159 525 
z
M 3116 1747 
Q 3116 2381 2855 2742 
Q 2594 3103 2138 3103 
Q 1681 3103 1420 2742 
Q 1159 2381 1159 1747 
Q 1159 1113 1420 752 
Q 1681 391 2138 391 
Q 2594 391 2855 752 
Q 3116 1113 3116 1747 
z
" transform="scale(0.015625)"/>
       <path id="DejaVuSans-56" d="M 2834 3397 
L 2834 2853 
Q 2591 2978 2328 3040 
Q 2066 3103 1784 3103 
Q 1356 3103 1142 2972 
Q 928 2841 928 2578 
Q 928 2378 1081 2264 
Q 1234 2150 1697 2047 
L 1894 2003 
Q 2506 1872 2764 1633 
Q 3022 1394 3022 966 
Q 3022 478 2636 193 
Q 2250 -91 1575 -91 
Q 1294 -91 989 -36 
Q 684 19 347 128 
L 347 722 
Q 666 556 975 473 
Q 1284 391 1588 391 
Q 1994 391 2212 530 
Q 2431 669 2431 922 
Q 2431 1156 2273 1281 
Q 2116 1406 1581 1522 
L 1381 1569 
Q 847 1681 609 1914 
Q 372 2147 372 2553 
Q 372 3047 722 3315 
Q 1072 3584 1716 3584 
Q 2034 3584 2315 3537 
Q 2597 3491 2834 3397 
z
" transform="scale(0.015625)"/>
       <path id="DejaVuSans-4c" d="M 603 3500 
L 1178 3500 
L 1178 0 
L 603 0 
L 603 3500 
z
M 603 4863 
L 1178 4863 
L 1178 4134 
L 603 4134 
L 603 4863 
z
" transform="scale(0.015625)"/>
       <path id="DejaVuSans-57" d="M 1172 4494 
L 1172 3500 
L 2356 3500 
L 2356 3053 
L 1172 3053 
L 1172 1153 
Q 1172 725 1289 603 
Q 1406 481 1766 481 
L 2356 481 
L 2356 0 
L 1766 0 
Q 1100 0 847 248 
Q 594 497 594 1153 
L 594 3053 
L 172 3053 
L 172 3500 
L 594 3500 
L 594 4494 
L 1172 4494 
z
" transform="scale(0.015625)"/>
       <path id="DejaVuSans-48" d="M 3597 1894 
L 3597 1613 
L 953 1613 
Q 991 1019 1311 708 
Q 1631 397 2203 397 
Q 2534 397 2845 478 
Q 3156 559 3463 722 
L 3463 178 
Q 3153 47 2828 -22 
Q 2503 -91 2169 -91 
Q 1331 -91 842 396 
Q 353 884 353 1716 
Q 353 2575 817 3079 
Q 1281 3584 2069 3584 
Q 2775 3584 3186 3129 
Q 3597 2675 3597 1894 
z
M 3022 2063 
Q 3016 2534 2758 2815 
Q 2500 3097 2075 3097 
Q 1594 3097 1305 2825 
Q 1016 2553 972 2059 
L 3022 2063 
z
" transform="scale(0.015625)"/>
       <path id="DejaVuSans-42" d="M 3263 -1063 
L 3263 -1509 
L -63 -1509 
L -63 -1063 
L 3263 -1063 
z
" transform="scale(0.015625)"/>
       <path id="DejaVuSans-55" d="M 2631 2963 
Q 2534 3019 2420 3045 
Q 2306 3072 2169 3072 
Q 1681 3072 1420 2755 
Q 1159 2438 1159 1844 
L 1159 0 
L 581 0 
L 581 3500 
L 1159 3500 
L 1159 2956 
Q 1341 3275 1631 3429 
Q 1922 3584 2338 3584 
Q 2397 3584 2469 3576 
Q 2541 3569 2628 3553 
L 2631 2963 
z
" transform="scale(0.015625)"/>
      </defs>
      <use xlink:href="#DejaVuSans-46"/>
      <use xlink:href="#DejaVuSans-52" transform="translate(54.984375 0)"/>
      <use xlink:href="#DejaVuSans-50" transform="translate(116.171875 0)"/>
      <use xlink:href="#DejaVuSans-53" transform="translate(213.578125 0)"/>
      <use xlink:href="#DejaVuSans-52" transform="translate(277.0625 0)"/>
      <use xlink:href="#DejaVuSans-56" transform="translate(338.25 0)"/>
      <use xlink:href="#DejaVuSans-4c" transform="translate(390.34375 0)"/>
      <use xlink:href="#DejaVuSans-57" transform="translate(418.125 0)"/>
      <use xlink:href="#DejaVuSans-48" transform="translate(457.328125 0)"/>
      <use xlink:href="#DejaVuSans-42" transform="translate(518.859375 0)"/>
      <use xlink:href="#DejaVuSans-56" transform="translate(568.859375 0)"/>
      <use xlink:href="#DejaVuSans-46" transform="translate(620.953125 0)"/>
      <use xlink:href="#DejaVuSans-52" transform="translate(675.9375 0)"/>
      <use xlink:href="#DejaVuSans-55" transform="translate(737.125 0)"/>
      <use xlink:href="#DejaVuSans-48" transform="translate(776.03125 0)"/>
     </g>
    </g>
   </g>
   <g id="matplotlib.axis_2">
    <g id="ytick_1">
     <g id="line2d_8">
      <path d="M 46.397375 236.068189 
L 485.566664 236.068189 
" clip-path="url(#pf929a85986)" style="fill: none; stroke: #cccccc; stroke-linecap: round"/>
     </g>
     <g id="text_9">
      <!-- 0 -->
      <g style="fill: #262626" transform="translate(29.548688 240.455835) scale(0.1155 -0.1155)">
       <use xlink:href="#DejaVuSans-13"/>
      </g>
     </g>
    </g>
    <g id="ytick_2">
     <g id="line2d_9">
      <path d="M 46.397375 211.330649 
L 485.566664 211.330649 
" clip-path="url(#pf929a85986)" style="fill: none; stroke: #cccccc; stroke-linecap: round"/>
     </g>
     <g id="text_10">
      <!-- 5 -->
      <g style="fill: #262626" transform="translate(29.548688 215.718295) scale(0.1155 -0.1155)">
       <use xlink:href="#DejaVuSans-18"/>
      </g>
     </g>
    </g>
    <g id="ytick_3">
     <g id="line2d_10">
      <path d="M 46.397375 186.593109 
L 485.566664 186.593109 
" clip-path="url(#pf929a85986)" style="fill: none; stroke: #cccccc; stroke-linecap: round"/>
     </g>
     <g id="text_11">
      <!-- 10 -->
      <g style="fill: #262626" transform="translate(22.2 190.980755) scale(0.1155 -0.1155)">
       <defs>
        <path id="DejaVuSans-14" d="M 794 531 
L 1825 531 
L 1825 4091 
L 703 3866 
L 703 4441 
L 1819 4666 
L 2450 4666 
L 2450 531 
L 3481 531 
L 3481 0 
L 794 0 
L 794 531 
z
" transform="scale(0.015625)"/>
       </defs>
       <use xlink:href="#DejaVuSans-14"/>
       <use xlink:href="#DejaVuSans-13" transform="translate(63.625 0)"/>
      </g>
     </g>
    </g>
    <g id="ytick_4">
     <g id="line2d_11">
      <path d="M 46.397375 161.855569 
L 485.566664 161.855569 
" clip-path="url(#pf929a85986)" style="fill: none; stroke: #cccccc; stroke-linecap: round"/>
     </g>
     <g id="text_12">
      <!-- 15 -->
      <g style="fill: #262626" transform="translate(22.2 166.243215) scale(0.1155 -0.1155)">
       <use xlink:href="#DejaVuSans-14"/>
       <use xlink:href="#DejaVuSans-18" transform="translate(63.625 0)"/>
      </g>
     </g>
    </g>
    <g id="ytick_5">
     <g id="line2d_12">
      <path d="M 46.397375 137.118029 
L 485.566664 137.118029 
" clip-path="url(#pf929a85986)" style="fill: none; stroke: #cccccc; stroke-linecap: round"/>
     </g>
     <g id="text_13">
      <!-- 20 -->
      <g style="fill: #262626" transform="translate(22.2 141.505675) scale(0.1155 -0.1155)">
       <use xlink:href="#DejaVuSans-15"/>
       <use xlink:href="#DejaVuSans-13" transform="translate(63.625 0)"/>
      </g>
     </g>
    </g>
    <g id="ytick_6">
     <g id="line2d_13">
      <path d="M 46.397375 112.380488 
L 485.566664 112.380488 
" clip-path="url(#pf929a85986)" style="fill: none; stroke: #cccccc; stroke-linecap: round"/>
     </g>
     <g id="text_14">
      <!-- 25 -->
      <g style="fill: #262626" transform="translate(22.2 116.768135) scale(0.1155 -0.1155)">
       <use xlink:href="#DejaVuSans-15"/>
       <use xlink:href="#DejaVuSans-18" transform="translate(63.625 0)"/>
      </g>
     </g>
    </g>
    <g id="ytick_7">
     <g id="line2d_14">
      <path d="M 46.397375 87.642948 
L 485.566664 87.642948 
" clip-path="url(#pf929a85986)" style="fill: none; stroke: #cccccc; stroke-linecap: round"/>
     </g>
     <g id="text_15">
      <!-- 30 -->
      <g style="fill: #262626" transform="translate(22.2 92.030595) scale(0.1155 -0.1155)">
       <use xlink:href="#DejaVuSans-16"/>
       <use xlink:href="#DejaVuSans-13" transform="translate(63.625 0)"/>
      </g>
     </g>
    </g>
    <g id="ytick_8">
     <g id="line2d_15">
      <path d="M 46.397375 62.905408 
L 485.566664 62.905408 
" clip-path="url(#pf929a85986)" style="fill: none; stroke: #cccccc; stroke-linecap: round"/>
     </g>
     <g id="text_16">
      <!-- 35 -->
      <g style="fill: #262626" transform="translate(22.2 67.293055) scale(0.1155 -0.1155)">
       <use xlink:href="#DejaVuSans-16"/>
       <use xlink:href="#DejaVuSans-18" transform="translate(63.625 0)"/>
      </g>
     </g>
    </g>
    <g id="ytick_9">
     <g id="line2d_16">
      <path d="M 46.397375 38.167868 
L 485.566664 38.167868 
" clip-path="url(#pf929a85986)" style="fill: none; stroke: #cccccc; stroke-linecap: round"/>
     </g>
     <g id="text_17">
      <!-- 40 -->
      <g style="fill: #262626" transform="translate(22.2 42.555515) scale(0.1155 -0.1155)">
       <use xlink:href="#DejaVuSans-17"/>
       <use xlink:href="#DejaVuSans-13" transform="translate(63.625 0)"/>
      </g>
     </g>
    </g>
    <g id="text_18">
     <!-- Count -->
     <g style="fill: #262626" transform="translate(15.557422 145.90636) rotate(-90) scale(0.11 -0.11)">
      <defs>
       <path id="DejaVuSans-26" d="M 4122 4306 
L 4122 3641 
Q 3803 3938 3442 4084 
Q 3081 4231 2675 4231 
Q 1875 4231 1450 3742 
Q 1025 3253 1025 2328 
Q 1025 1406 1450 917 
Q 1875 428 2675 428 
Q 3081 428 3442 575 
Q 3803 722 4122 1019 
L 4122 359 
Q 3791 134 3420 21 
Q 3050 -91 2638 -91 
Q 1578 -91 968 557 
Q 359 1206 359 2328 
Q 359 3453 968 4101 
Q 1578 4750 2638 4750 
Q 3056 4750 3426 4639 
Q 3797 4528 4122 4306 
z
" transform="scale(0.015625)"/>
       <path id="DejaVuSans-58" d="M 544 1381 
L 544 3500 
L 1119 3500 
L 1119 1403 
Q 1119 906 1312 657 
Q 1506 409 1894 409 
Q 2359 409 2629 706 
Q 2900 1003 2900 1516 
L 2900 3500 
L 3475 3500 
L 3475 0 
L 2900 0 
L 2900 538 
Q 2691 219 2414 64 
Q 2138 -91 1772 -91 
Q 1169 -91 856 284 
Q 544 659 544 1381 
z
M 1991 3584 
L 1991 3584 
z
" transform="scale(0.015625)"/>
       <path id="DejaVuSans-51" d="M 3513 2113 
L 3513 0 
L 2938 0 
L 2938 2094 
Q 2938 2591 2744 2837 
Q 2550 3084 2163 3084 
Q 1697 3084 1428 2787 
Q 1159 2491 1159 1978 
L 1159 0 
L 581 0 
L 581 3500 
L 1159 3500 
L 1159 2956 
Q 1366 3272 1645 3428 
Q 1925 3584 2291 3584 
Q 2894 3584 3203 3211 
Q 3513 2838 3513 2113 
z
" transform="scale(0.015625)"/>
      </defs>
      <use xlink:href="#DejaVuSans-26"/>
      <use xlink:href="#DejaVuSans-52" transform="translate(69.828125 0)"/>
      <use xlink:href="#DejaVuSans-58" transform="translate(131.015625 0)"/>
      <use xlink:href="#DejaVuSans-51" transform="translate(194.390625 0)"/>
      <use xlink:href="#DejaVuSans-57" transform="translate(257.765625 0)"/>
     </g>
    </g>
   </g>
   <g id="patch_3">
    <path d="M 66.359615 236.068189 
L 82.329408 236.068189 
L 82.329408 231.120681 
L 66.359615 231.120681 
z
" clip-path="url(#pf929a85986)" style="fill: #029e73; fill-opacity: 0.75; stroke: #ffffff; stroke-linejoin: miter"/>
   </g>
   <g id="patch_4">
    <path d="M 82.329408 236.068189 
L 98.2992 236.068189 
L 98.2992 231.120681 
L 82.329408 231.120681 
z
" clip-path="url(#pf929a85986)" style="fill: #029e73; fill-opacity: 0.75; stroke: #ffffff; stroke-linejoin: miter"/>
   </g>
   <g id="patch_5">
    <path d="M 98.2992 236.068189 
L 114.268992 236.068189 
L 114.268992 226.173173 
L 98.2992 226.173173 
z
" clip-path="url(#pf929a85986)" style="fill: #029e73; fill-opacity: 0.75; stroke: #ffffff; stroke-linejoin: miter"/>
   </g>
   <g id="patch_6">
    <path d="M 114.268992 236.068189 
L 130.238785 236.068189 
L 130.238785 221.225665 
L 114.268992 221.225665 
z
" clip-path="url(#pf929a85986)" style="fill: #029e73; fill-opacity: 0.75; stroke: #ffffff; stroke-linejoin: miter"/>
   </g>
   <g id="patch_7">
    <path d="M 130.238785 236.068189 
L 146.208577 236.068189 
L 146.208577 201.435633 
L 130.238785 201.435633 
z
" clip-path="url(#pf929a85986)" style="fill: #029e73; fill-opacity: 0.75; stroke: #ffffff; stroke-linejoin: miter"/>
   </g>
   <g id="patch_8">
    <path d="M 146.208577 236.068189 
L 162.178369 236.068189 
L 162.178369 191.540617 
L 146.208577 191.540617 
z
" clip-path="url(#pf929a85986)" style="fill: #029e73; fill-opacity: 0.75; stroke: #ffffff; stroke-linejoin: miter"/>
   </g>
   <g id="patch_9">
    <path d="M 162.178369 236.068189 
L 178.148162 236.068189 
L 178.148162 191.540617 
L 162.178369 191.540617 
z
" clip-path="url(#pf929a85986)" style="fill: #029e73; fill-opacity: 0.75; stroke: #ffffff; stroke-linejoin: miter"/>
   </g>
   <g id="patch_10">
    <path d="M 178.148162 236.068189 
L 194.117954 236.068189 
L 194.117954 181.645601 
L 178.148162 181.645601 
z
" clip-path="url(#pf929a85986)" style="fill: #029e73; fill-opacity: 0.75; stroke: #ffffff; stroke-linejoin: miter"/>
   </g>
   <g id="patch_11">
    <path d="M 194.117954 236.068189 
L 210.087746 236.068189 
L 210.087746 161.855569 
L 194.117954 161.855569 
z
" clip-path="url(#pf929a85986)" style="fill: #029e73; fill-opacity: 0.75; stroke: #ffffff; stroke-linejoin: miter"/>
   </g>
   <g id="patch_12">
    <path d="M 210.087746 236.068189 
L 226.057539 236.068189 
L 226.057539 142.065537 
L 210.087746 142.065537 
z
" clip-path="url(#pf929a85986)" style="fill: #029e73; fill-opacity: 0.75; stroke: #ffffff; stroke-linejoin: miter"/>
   </g>
   <g id="patch_13">
    <path d="M 226.057539 236.068189 
L 242.027331 236.068189 
L 242.027331 137.118029 
L 226.057539 137.118029 
z
" clip-path="url(#pf929a85986)" style="fill: #029e73; fill-opacity: 0.75; stroke: #ffffff; stroke-linejoin: miter"/>
   </g>
   <g id="patch_14">
    <path d="M 242.027331 236.068189 
L 257.997123 236.068189 
L 257.997123 166.803077 
L 242.027331 166.803077 
z
" clip-path="url(#pf929a85986)" style="fill: #029e73; fill-opacity: 0.75; stroke: #ffffff; stroke-linejoin: miter"/>
   </g>
   <g id="patch_15">
    <path d="M 257.997123 236.068189 
L 273.966916 236.068189 
L 273.966916 211.330649 
L 257.997123 211.330649 
z
" clip-path="url(#pf929a85986)" style="fill: #029e73; fill-opacity: 0.75; stroke: #ffffff; stroke-linejoin: miter"/>
   </g>
   <g id="patch_16">
    <path d="M 273.966916 236.068189 
L 289.936708 236.068189 
L 289.936708 221.225665 
L 273.966916 221.225665 
z
" clip-path="url(#pf929a85986)" style="fill: #029e73; fill-opacity: 0.75; stroke: #ffffff; stroke-linejoin: miter"/>
   </g>
   <g id="patch_17">
    <path d="M 289.936708 236.068189 
L 305.9065 236.068189 
L 305.9065 216.278157 
L 289.936708 216.278157 
z
" clip-path="url(#pf929a85986)" style="fill: #029e73; fill-opacity: 0.75; stroke: #ffffff; stroke-linejoin: miter"/>
   </g>
   <g id="patch_18">
    <path d="M 305.9065 236.068189 
L 321.876293 236.068189 
L 321.876293 151.960553 
L 305.9065 151.960553 
z
" clip-path="url(#pf929a85986)" style="fill: #029e73; fill-opacity: 0.75; stroke: #ffffff; stroke-linejoin: miter"/>
   </g>
   <g id="patch_19">
    <path d="M 321.876293 236.068189 
L 337.846085 236.068189 
L 337.846085 127.223013 
L 321.876293 127.223013 
z
" clip-path="url(#pf929a85986)" style="fill: #029e73; fill-opacity: 0.75; stroke: #ffffff; stroke-linejoin: miter"/>
   </g>
   <g id="patch_20">
    <path d="M 337.846085 236.068189 
L 353.815877 236.068189 
L 353.815877 53.010392 
L 337.846085 53.010392 
z
" clip-path="url(#pf929a85986)" style="fill: #029e73; fill-opacity: 0.75; stroke: #ffffff; stroke-linejoin: miter"/>
   </g>
   <g id="patch_21">
    <path d="M 353.815877 236.068189 
L 369.78567 236.068189 
L 369.78567 48.062884 
L 353.815877 48.062884 
z
" clip-path="url(#pf929a85986)" style="fill: #029e73; fill-opacity: 0.75; stroke: #ffffff; stroke-linejoin: miter"/>
   </g>
   <g id="patch_22">
    <path d="M 369.78567 236.068189 
L 385.755462 236.068189 
L 385.755462 33.22036 
L 369.78567 33.22036 
z
" clip-path="url(#pf929a85986)" style="fill: #029e73; fill-opacity: 0.75; stroke: #ffffff; stroke-linejoin: miter"/>
   </g>
   <g id="patch_23">
    <path d="M 385.755462 236.068189 
L 401.725254 236.068189 
L 401.725254 132.170521 
L 385.755462 132.170521 
z
" clip-path="url(#pf929a85986)" style="fill: #029e73; fill-opacity: 0.75; stroke: #ffffff; stroke-linejoin: miter"/>
   </g>
   <g id="patch_24">
    <path d="M 401.725254 236.068189 
L 417.695047 236.068189 
L 417.695047 171.750585 
L 401.725254 171.750585 
z
" clip-path="url(#pf929a85986)" style="fill: #029e73; fill-opacity: 0.75; stroke: #ffffff; stroke-linejoin: miter"/>
   </g>
   <g id="patch_25">
    <path d="M 417.695047 236.068189 
L 433.664839 236.068189 
L 433.664839 211.330649 
L 417.695047 211.330649 
z
" clip-path="url(#pf929a85986)" style="fill: #029e73; fill-opacity: 0.75; stroke: #ffffff; stroke-linejoin: miter"/>
   </g>
   <g id="patch_26">
    <path d="M 433.664839 236.068189 
L 449.634631 236.068189 
L 449.634631 231.120681 
L 433.664839 231.120681 
z
" clip-path="url(#pf929a85986)" style="fill: #029e73; fill-opacity: 0.75; stroke: #ffffff; stroke-linejoin: miter"/>
   </g>
   <g id="patch_27">
    <path d="M 449.634631 236.068189 
L 465.604424 236.068189 
L 465.604424 226.173173 
L 449.634631 226.173173 
z
" clip-path="url(#pf929a85986)" style="fill: #029e73; fill-opacity: 0.75; stroke: #ffffff; stroke-linejoin: miter"/>
   </g>
   <g id="patch_28">
    <path d="M 46.397375 236.068189 
L 46.397375 23.077969 
" style="fill: none; stroke: #cccccc; stroke-width: 1.25; stroke-linejoin: miter; stroke-linecap: square"/>
   </g>
   <g id="patch_29">
    <path d="M 46.397375 236.068189 
L 485.566664 236.068189 
" style="fill: none; stroke: #cccccc; stroke-width: 1.25; stroke-linejoin: miter; stroke-linecap: square"/>
   </g>
   <g id="text_19">
    <!-- Composite score distribution (all designs) -->
    <g style="fill: #262626" transform="translate(130.90491 17.077969) scale(0.13 -0.13)">
     <defs>
      <path id="DejaVuSans-3" transform="scale(0.015625)"/>
      <path id="DejaVuSans-47" d="M 2906 2969 
L 2906 4863 
L 3481 4863 
L 3481 0 
L 2906 0 
L 2906 525 
Q 2725 213 2448 61 
Q 2172 -91 1784 -91 
Q 1150 -91 751 415 
Q 353 922 353 1747 
Q 353 2572 751 3078 
Q 1150 3584 1784 3584 
Q 2172 3584 2448 3432 
Q 2725 3281 2906 2969 
z
M 947 1747 
Q 947 1113 1208 752 
Q 1469 391 1925 391 
Q 2381 391 2643 752 
Q 2906 1113 2906 1747 
Q 2906 2381 2643 2742 
Q 2381 3103 1925 3103 
Q 1469 3103 1208 2742 
Q 947 2381 947 1747 
z
" transform="scale(0.015625)"/>
      <path id="DejaVuSans-45" d="M 3116 1747 
Q 3116 2381 2855 2742 
Q 2594 3103 2138 3103 
Q 1681 3103 1420 2742 
Q 1159 2381 1159 1747 
Q 1159 1113 1420 752 
Q 1681 391 2138 391 
Q 2594 391 2855 752 
Q 3116 1113 3116 1747 
z
M 1159 2969 
Q 1341 3281 1617 3432 
Q 1894 3584 2278 3584 
Q 2916 3584 3314 3078 
Q 3713 2572 3713 1747 
Q 3713 922 3314 415 
Q 2916 -91 2278 -91 
Q 1894 -91 1617 61 
Q 1341 213 1159 525 
L 1159 0 
L 581 0 
L 581 4863 
L 1159 4863 
L 1159 2969 
z
" transform="scale(0.015625)"/>
      <path id="DejaVuSans-b" d="M 1984 4856 
Q 1566 4138 1362 3434 
Q 1159 2731 1159 2009 
Q 1159 1288 1364 580 
Q 1569 -128 1984 -844 
L 1484 -844 
Q 1016 -109 783 600 
Q 550 1309 550 2009 
Q 550 2706 781 3412 
Q 1013 4119 1484 4856 
L 1984 4856 
z
" transform="scale(0.015625)"/>
      <path id="DejaVuSans-44" d="M 2194 1759 
Q 1497 1759 1228 1600 
Q 959 1441 959 1056 
Q 959 750 1161 570 
Q 1363 391 1709 391 
Q 2188 391 2477 730 
Q 2766 1069 2766 1631 
L 2766 1759 
L 2194 1759 
z
M 3341 1997 
L 3341 0 
L 2766 0 
L 2766 531 
Q 2569 213 2275 61 
Q 1981 -91 1556 -91 
Q 1019 -91 701 211 
Q 384 513 384 1019 
Q 384 1609 779 1909 
Q 1175 2209 1959 2209 
L 2766 2209 
L 2766 2266 
Q 2766 2663 2505 2880 
Q 2244 3097 1772 3097 
Q 1472 3097 1187 3025 
Q 903 2953 641 2809 
L 641 3341 
Q 956 3463 1253 3523 
Q 1550 3584 1831 3584 
Q 2591 3584 2966 3190 
Q 3341 2797 3341 1997 
z
" transform="scale(0.015625)"/>
      <path id="DejaVuSans-4f" d="M 603 4863 
L 1178 4863 
L 1178 0 
L 603 0 
L 603 4863 
z
" transform="scale(0.015625)"/>
      <path id="DejaVuSans-4a" d="M 2906 1791 
Q 2906 2416 2648 2759 
Q 2391 3103 1925 3103 
Q 1463 3103 1205 2759 
Q 947 2416 947 1791 
Q 947 1169 1205 825 
Q 1463 481 1925 481 
Q 2391 481 2648 825 
Q 2906 1169 2906 1791 
z
M 3481 434 
Q 3481 -459 3084 -895 
Q 2688 -1331 1869 -1331 
Q 1566 -1331 1297 -1286 
Q 1028 -1241 775 -1147 
L 775 -588 
Q 1028 -725 1275 -790 
Q 1522 -856 1778 -856 
Q 2344 -856 2625 -561 
Q 2906 -266 2906 331 
L 2906 616 
Q 2728 306 2450 153 
Q 2172 0 1784 0 
Q 1141 0 747 490 
Q 353 981 353 1791 
Q 353 2603 747 3093 
Q 1141 3584 1784 3584 
Q 2172 3584 2450 3431 
Q 2728 3278 2906 2969 
L 2906 3500 
L 3481 3500 
L 3481 434 
z
" transform="scale(0.015625)"/>
      <path id="DejaVuSans-c" d="M 513 4856 
L 1013 4856 
Q 1481 4119 1714 3412 
Q 1947 2706 1947 2009 
Q 1947 1309 1714 600 
Q 1481 -109 1013 -844 
L 513 -844 
Q 928 -128 1133 580 
Q 1338 1288 1338 2009 
Q 1338 2731 1133 3434 
Q 928 4138 513 4856 
z
" transform="scale(0.015625)"/>
     </defs>
     <use xlink:href="#DejaVuSans-26"/>
     <use xlink:href="#DejaVuSans-52" transform="translate(69.828125 0)"/>
     <use xlink:href="#DejaVuSans-50" transform="translate(131.015625 0)"/>
     <use xlink:href="#DejaVuSans-53" transform="translate(228.421875 0)"/>
     <use xlink:href="#DejaVuSans-52" transform="translate(291.90625 0)"/>
     <use xlink:href="#DejaVuSans-56" transform="translate(353.09375 0)"/>
     <use xlink:href="#DejaVuSans-4c" transform="translate(405.1875 0)"/>
     <use xlink:href="#DejaVuSans-57" transform="translate(432.96875 0)"/>
     <use xlink:href="#DejaVuSans-48" transform="translate(472.171875 0)"/>
     <use xlink:href="#DejaVuSans-3" transform="translate(533.703125 0)"/>
     <use xlink:href="#DejaVuSans-56" transform="translate(565.484375 0)"/>
     <use xlink:href="#DejaVuSans-46" transform="translate(617.578125 0)"/>
     <use xlink:href="#DejaVuSans-52" transform="translate(672.5625 0)"/>
     <use xlink:href="#DejaVuSans-55" transform="translate(733.75 0)"/>
     <use xlink:href="#DejaVuSans-48" transform="translate(772.65625 0)"/>
     <use xlink:href="#DejaVuSans-3" transform="translate(834.1875 0)"/>
     <use xlink:href="#DejaVuSans-47" transform="translate(865.96875 0)"/>
     <use xlink:href="#DejaVuSans-4c" transform="translate(929.453125 0)"/>
     <use xlink:href="#DejaVuSans-56" transform="translate(957.234375 0)"/>
     <use xlink:href="#DejaVuSans-57" transform="translate(1009.328125 0)"/>
     <use xlink:href="#DejaVuSans-55" transform="translate(1048.53125 0)"/>
     <use xlink:href="#DejaVuSans-4c" transform="translate(1089.640625 0)"/>
     <use xlink:href="#DejaVuSans-45" transform="translate(1117.421875 0)"/>
     <use xlink:href="#DejaVuSans-58" transform="translate(1180.90625 0)"/>
     <use xlink:href="#DejaVuSans-57" transform="translate(1244.28125 0)"/>
     <use xlink:href="#DejaVuSans-4c" transform="translate(1283.484375 0)"/>
     <use xlink:href="#DejaVuSans-52" transform="translate(1311.265625 0)"/>
     <use xlink:href="#DejaVuSans-51" transform="translate(1372.453125 0)"/>
     <use xlink:href="#DejaVuSans-3" transform="translate(1435.828125 0)"/>
     <use xlink:href="#DejaVuSans-b" transform="translate(1467.609375 0)"/>
     <use xlink:href="#DejaVuSans-44" transform="translate(1506.625 0)"/>
     <use xlink:href="#DejaVuSans-4f" transform="translate(1567.90625 0)"/>
     <use xlink:href="#DejaVuSans-4f" transform="translate(1595.6875 0)"/>
     <use xlink:href="#DejaVuSans-3" transform="translate(1623.46875 0)"/>
     <use xlink:href="#DejaVuSans-47" transform="translate(1655.25 0)"/>
     <use xlink:href="#DejaVuSans-48" transform="translate(1718.734375 0)"/>
     <use xlink:href="#DejaVuSans-56" transform="translate(1780.265625 0)"/>
     <use xlink:href="#DejaVuSans-4c" transform="translate(1832.359375 0)"/>
     <use xlink:href="#DejaVuSans-4a" transform="translate(1860.140625 0)"/>
     <use xlink:href="#DejaVuSans-51" transform="translate(1923.625 0)"/>
     <use xlink:href="#DejaVuSans-56" transform="translate(1987 0)"/>
     <use xlink:href="#DejaVuSans-c" transform="translate(2039.09375 0)"/>
    </g>
   </g>
  </g>
  <g id="axes_2">
   <g id="patch_30">
    <path d="M 549.112086 236.068189 
L 988.281375 236.068189 
L 988.281375 23.077969 
L 549.112086 23.077969 
z
" style="fill: #ffffff"/>
   </g>
   <g id="matplotlib.axis_3">
    <g id="xtick_8">
     <g id="text_20">
      <!-- helix_hairpin -->
      <g style="fill: #262626" transform="translate(508.322109 290.004074) rotate(-30) scale(0.1155 -0.1155)">
       <defs>
        <path id="DejaVuSans-4b" d="M 3513 2113 
L 3513 0 
L 2938 0 
L 2938 2094 
Q 2938 2591 2744 2837 
Q 2550 3084 2163 3084 
Q 1697 3084 1428 2787 
Q 1159 2491 1159 1978 
L 1159 0 
L 581 0 
L 581 4863 
L 1159 4863 
L 1159 2956 
Q 1366 3272 1645 3428 
Q 1925 3584 2291 3584 
Q 2894 3584 3203 3211 
Q 3513 2838 3513 2113 
z
" transform="scale(0.015625)"/>
        <path id="DejaVuSans-5b" d="M 3513 3500 
L 2247 1797 
L 3578 0 
L 2900 0 
L 1881 1375 
L 863 0 
L 184 0 
L 1544 1831 
L 300 3500 
L 978 3500 
L 1906 2253 
L 2834 3500 
L 3513 3500 
z
" transform="scale(0.015625)"/>
       </defs>
       <use xlink:href="#DejaVuSans-4b"/>
       <use xlink:href="#DejaVuSans-48" transform="translate(63.375 0)"/>
       <use xlink:href="#DejaVuSans-4f" transform="translate(124.90625 0)"/>
       <use xlink:href="#DejaVuSans-4c" transform="translate(152.6875 0)"/>
       <use xlink:href="#DejaVuSans-5b" transform="translate(180.46875 0)"/>
       <use xlink:href="#DejaVuSans-42" transform="translate(239.65625 0)"/>
       <use xlink:href="#DejaVuSans-4b" transform="translate(289.65625 0)"/>
       <use xlink:href="#DejaVuSans-44" transform="translate(353.03125 0)"/>
       <use xlink:href="#DejaVuSans-4c" transform="translate(414.3125 0)"/>
       <use xlink:href="#DejaVuSans-55" transform="translate(442.09375 0)"/>
       <use xlink:href="#DejaVuSans-53" transform="translate(483.203125 0)"/>
       <use xlink:href="#DejaVuSans-4c" transform="translate(546.6875 0)"/>
       <use xlink:href="#DejaVuSans-51" transform="translate(574.46875 0)"/>
      </g>
     </g>
    </g>
    <g id="xtick_9">
     <g id="text_21">
      <!-- long_helix_capper -->
      <g style="fill: #262626" transform="translate(530.7603 305.222101) rotate(-30) scale(0.1155 -0.1155)">
       <use xlink:href="#DejaVuSans-4f"/>
       <use xlink:href="#DejaVuSans-52" transform="translate(27.78125 0)"/>
       <use xlink:href="#DejaVuSans-51" transform="translate(88.96875 0)"/>
       <use xlink:href="#DejaVuSans-4a" transform="translate(152.34375 0)"/>
       <use xlink:href="#DejaVuSans-42" transform="translate(215.828125 0)"/>
       <use xlink:href="#DejaVuSans-4b" transform="translate(265.828125 0)"/>
       <use xlink:href="#DejaVuSans-48" transform="translate(329.203125 0)"/>
       <use xlink:href="#DejaVuSans-4f" transform="translate(390.734375 0)"/>
       <use xlink:href="#DejaVuSans-4c" transform="translate(418.515625 0)"/>
       <use xlink:href="#DejaVuSans-5b" transform="translate(446.296875 0)"/>
       <use xlink:href="#DejaVuSans-42" transform="translate(505.484375 0)"/>
       <use xlink:href="#DejaVuSans-46" transform="translate(555.484375 0)"/>
       <use xlink:href="#DejaVuSans-44" transform="translate(610.46875 0)"/>
       <use xlink:href="#DejaVuSans-53" transform="translate(671.75 0)"/>
       <use xlink:href="#DejaVuSans-53" transform="translate(735.234375 0)"/>
       <use xlink:href="#DejaVuSans-48" transform="translate(798.71875 0)"/>
       <use xlink:href="#DejaVuSans-55" transform="translate(860.25 0)"/>
      </g>
     </g>
    </g>
    <g id="xtick_10">
     <g id="text_22">
      <!-- scaffold_villin -->
      <g style="fill: #262626" transform="translate(602.359675 292.056906) rotate(-30) scale(0.1155 -0.1155)">
       <defs>
        <path id="DejaVuSans-13ae" d="M 4531 4863 
L 4531 4384 
L 3981 4384 
Q 3672 4384 3551 4259 
Q 3431 4134 3431 3809 
L 3431 3500 
L 4378 3500 
L 4378 3053 
L 3431 3053 
L 3431 0 
L 2853 0 
L 2853 3053 
L 1275 3053 
L 1275 0 
L 697 0 
L 697 3053 
L 147 3053 
L 147 3500 
L 697 3500 
L 697 3744 
Q 697 4328 969 4595 
Q 1241 4863 1831 4863 
L 2375 4863 
L 2375 4384 
L 1825 4384 
Q 1516 4384 1394 4259 
Q 1275 4134 1275 3809 
L 1275 3500 
L 2853 3500 
L 2853 3744 
Q 2853 4328 3125 4595 
Q 3397 4863 3988 4863 
L 4531 4863 
z
" transform="scale(0.015625)"/>
        <path id="DejaVuSans-59" d="M 191 3500 
L 800 3500 
L 1894 563 
L 2988 3500 
L 3597 3500 
L 2284 0 
L 1503 0 
L 191 3500 
z
" transform="scale(0.015625)"/>
       </defs>
       <use xlink:href="#DejaVuSans-56"/>
       <use xlink:href="#DejaVuSans-46" transform="translate(52.09375 0)"/>
       <use xlink:href="#DejaVuSans-44" transform="translate(107.078125 0)"/>
       <use xlink:href="#DejaVuSans-13ae" transform="translate(168.359375 0)"/>
       <use xlink:href="#DejaVuSans-52" transform="translate(237.25 0)"/>
       <use xlink:href="#DejaVuSans-4f" transform="translate(298.4375 0)"/>
       <use xlink:href="#DejaVuSans-47" transform="translate(326.21875 0)"/>
       <use xlink:href="#DejaVuSans-42" transform="translate(389.703125 0)"/>
       <use xlink:href="#DejaVuSans-59" transform="translate(439.703125 0)"/>
       <use xlink:href="#DejaVuSans-4c" transform="translate(498.890625 0)"/>
       <use xlink:href="#DejaVuSans-4f" transform="translate(526.671875 0)"/>
       <use xlink:href="#DejaVuSans-4f" transform="translate(554.453125 0)"/>
       <use xlink:href="#DejaVuSans-4c" transform="translate(582.234375 0)"/>
       <use xlink:href="#DejaVuSans-51" transform="translate(610.015625 0)"/>
      </g>
     </g>
    </g>
    <g id="xtick_11">
     <g id="text_23">
      <!-- scaffold_de_novo_3helix -->
      <g style="fill: #262626" transform="translate(597.187583 323.215738) rotate(-30) scale(0.1155 -0.1155)">
       <use xlink:href="#DejaVuSans-56"/>
       <use xlink:href="#DejaVuSans-46" transform="translate(52.09375 0)"/>
       <use xlink:href="#DejaVuSans-44" transform="translate(107.078125 0)"/>
       <use xlink:href="#DejaVuSans-13ae" transform="translate(168.359375 0)"/>
       <use xlink:href="#DejaVuSans-52" transform="translate(237.25 0)"/>
       <use xlink:href="#DejaVuSans-4f" transform="translate(298.4375 0)"/>
       <use xlink:href="#DejaVuSans-47" transform="translate(326.21875 0)"/>
       <use xlink:href="#DejaVuSans-42" transform="translate(389.703125 0)"/>
       <use xlink:href="#DejaVuSans-47" transform="translate(439.703125 0)"/>
       <use xlink:href="#DejaVuSans-48" transform="translate(503.1875 0)"/>
       <use xlink:href="#DejaVuSans-42" transform="translate(564.71875 0)"/>
       <use xlink:href="#DejaVuSans-51" transform="translate(614.71875 0)"/>
       <use xlink:href="#DejaVuSans-52" transform="translate(678.09375 0)"/>
       <use xlink:href="#DejaVuSans-59" transform="translate(739.28125 0)"/>
       <use xlink:href="#DejaVuSans-52" transform="translate(798.46875 0)"/>
       <use xlink:href="#DejaVuSans-42" transform="translate(859.65625 0)"/>
       <use xlink:href="#DejaVuSans-16" transform="translate(909.65625 0)"/>
       <use xlink:href="#DejaVuSans-4b" transform="translate(973.28125 0)"/>
       <use xlink:href="#DejaVuSans-48" transform="translate(1036.65625 0)"/>
       <use xlink:href="#DejaVuSans-4f" transform="translate(1098.1875 0)"/>
       <use xlink:href="#DejaVuSans-4c" transform="translate(1125.96875 0)"/>
       <use xlink:href="#DejaVuSans-5b" transform="translate(1153.75 0)"/>
      </g>
     </g>
    </g>
    <g id="xtick_12">
     <g id="text_24">
      <!-- three_helix_bundle -->
      <g style="fill: #262626" transform="translate(672.561374 307.871382) rotate(-30) scale(0.1155 -0.1155)">
       <use xlink:href="#DejaVuSans-57"/>
       <use xlink:href="#DejaVuSans-4b" transform="translate(39.203125 0)"/>
       <use xlink:href="#DejaVuSans-55" transform="translate(102.578125 0)"/>
       <use xlink:href="#DejaVuSans-48" transform="translate(141.484375 0)"/>
       <use xlink:href="#DejaVuSans-48" transform="translate(203.015625 0)"/>
       <use xlink:href="#DejaVuSans-42" transform="translate(264.546875 0)"/>
       <use xlink:href="#DejaVuSans-4b" transform="translate(314.546875 0)"/>
       <use xlink:href="#DejaVuSans-48" transform="translate(377.921875 0)"/>
       <use xlink:href="#DejaVuSans-4f" transform="translate(439.453125 0)"/>
       <use xlink:href="#DejaVuSans-4c" transform="translate(467.234375 0)"/>
       <use xlink:href="#DejaVuSans-5b" transform="translate(495.015625 0)"/>
       <use xlink:href="#DejaVuSans-42" transform="translate(554.203125 0)"/>
       <use xlink:href="#DejaVuSans-45" transform="translate(604.203125 0)"/>
       <use xlink:href="#DejaVuSans-58" transform="translate(667.6875 0)"/>
       <use xlink:href="#DejaVuSans-51" transform="translate(731.0625 0)"/>
       <use xlink:href="#DejaVuSans-47" transform="translate(794.4375 0)"/>
       <use xlink:href="#DejaVuSans-4f" transform="translate(857.921875 0)"/>
       <use xlink:href="#DejaVuSans-48" transform="translate(885.703125 0)"/>
      </g>
     </g>
    </g>
    <g id="xtick_13">
     <g id="text_25">
      <!-- scaffold_engrailed_hd -->
      <g style="fill: #262626" transform="translate(707.285563 315.996085) rotate(-30) scale(0.1155 -0.1155)">
       <use xlink:href="#DejaVuSans-56"/>
       <use xlink:href="#DejaVuSans-46" transform="translate(52.09375 0)"/>
       <use xlink:href="#DejaVuSans-44" transform="translate(107.078125 0)"/>
       <use xlink:href="#DejaVuSans-13ae" transform="translate(168.359375 0)"/>
       <use xlink:href="#DejaVuSans-52" transform="translate(237.25 0)"/>
       <use xlink:href="#DejaVuSans-4f" transform="translate(298.4375 0)"/>
       <use xlink:href="#DejaVuSans-47" transform="translate(326.21875 0)"/>
       <use xlink:href="#DejaVuSans-42" transform="translate(389.703125 0)"/>
       <use xlink:href="#DejaVuSans-48" transform="translate(439.703125 0)"/>
       <use xlink:href="#DejaVuSans-51" transform="translate(501.234375 0)"/>
       <use xlink:href="#DejaVuSans-4a" transform="translate(564.609375 0)"/>
       <use xlink:href="#DejaVuSans-55" transform="translate(628.09375 0)"/>
       <use xlink:href="#DejaVuSans-44" transform="translate(669.203125 0)"/>
       <use xlink:href="#DejaVuSans-4c" transform="translate(730.484375 0)"/>
       <use xlink:href="#DejaVuSans-4f" transform="translate(758.265625 0)"/>
       <use xlink:href="#DejaVuSans-48" transform="translate(786.046875 0)"/>
       <use xlink:href="#DejaVuSans-47" transform="translate(847.578125 0)"/>
       <use xlink:href="#DejaVuSans-42" transform="translate(911.0625 0)"/>
       <use xlink:href="#DejaVuSans-4b" transform="translate(961.0625 0)"/>
       <use xlink:href="#DejaVuSans-47" transform="translate(1024.4375 0)"/>
      </g>
     </g>
    </g>
    <g id="xtick_14">
     <g id="text_26">
      <!-- scaffold_protA_bdomain -->
      <g style="fill: #262626" transform="translate(744.982398 322.404531) rotate(-30) scale(0.1155 -0.1155)">
       <defs>
        <path id="DejaVuSans-24" d="M 2188 4044 
L 1331 1722 
L 3047 1722 
L 2188 4044 
z
M 1831 4666 
L 2547 4666 
L 4325 0 
L 3669 0 
L 3244 1197 
L 1141 1197 
L 716 0 
L 50 0 
L 1831 4666 
z
" transform="scale(0.015625)"/>
       </defs>
       <use xlink:href="#DejaVuSans-56"/>
       <use xlink:href="#DejaVuSans-46" transform="translate(52.09375 0)"/>
       <use xlink:href="#DejaVuSans-44" transform="translate(107.078125 0)"/>
       <use xlink:href="#DejaVuSans-13ae" transform="translate(168.359375 0)"/>
       <use xlink:href="#DejaVuSans-52" transform="translate(237.25 0)"/>
       <use xlink:href="#DejaVuSans-4f" transform="translate(298.4375 0)"/>
       <use xlink:href="#DejaVuSans-47" transform="translate(326.21875 0)"/>
       <use xlink:href="#DejaVuSans-42" transform="translate(389.703125 0)"/>
       <use xlink:href="#DejaVuSans-53" transform="translate(439.703125 0)"/>
       <use xlink:href="#DejaVuSans-55" transform="translate(503.1875 0)"/>
       <use xlink:href="#DejaVuSans-52" transform="translate(542.09375 0)"/>
       <use xlink:href="#DejaVuSans-57" transform="translate(603.28125 0)"/>
       <use xlink:href="#DejaVuSans-24" transform="translate(642.484375 0)"/>
       <use xlink:href="#DejaVuSans-42" transform="translate(710.890625 0)"/>
       <use xlink:href="#DejaVuSans-45" transform="translate(760.890625 0)"/>
       <use xlink:href="#DejaVuSans-47" transform="translate(824.375 0)"/>
       <use xlink:href="#DejaVuSans-52" transform="translate(887.859375 0)"/>
       <use xlink:href="#DejaVuSans-50" transform="translate(949.046875 0)"/>
       <use xlink:href="#DejaVuSans-44" transform="translate(1046.453125 0)"/>
       <use xlink:href="#DejaVuSans-4c" transform="translate(1107.734375 0)"/>
       <use xlink:href="#DejaVuSans-51" transform="translate(1135.515625 0)"/>
      </g>
     </g>
    </g>
    <g id="xtick_15">
     <g id="text_27">
      <!-- scaffold_darpin -->
      <g style="fill: #262626" transform="translate(837.657549 297.07123) rotate(-30) scale(0.1155 -0.1155)">
       <use xlink:href="#DejaVuSans-56"/>
       <use xlink:href="#DejaVuSans-46" transform="translate(52.09375 0)"/>
       <use xlink:href="#DejaVuSans-44" transform="translate(107.078125 0)"/>
       <use xlink:href="#DejaVuSans-13ae" transform="translate(168.359375 0)"/>
       <use xlink:href="#DejaVuSans-52" transform="translate(237.25 0)"/>
       <use xlink:href="#DejaVuSans-4f" transform="translate(298.4375 0)"/>
       <use xlink:href="#DejaVuSans-47" transform="translate(326.21875 0)"/>
       <use xlink:href="#DejaVuSans-42" transform="translate(389.703125 0)"/>
       <use xlink:href="#DejaVuSans-47" transform="translate(439.703125 0)"/>
       <use xlink:href="#DejaVuSans-44" transform="translate(503.1875 0)"/>
       <use xlink:href="#DejaVuSans-55" transform="translate(564.46875 0)"/>
       <use xlink:href="#DejaVuSans-53" transform="translate(605.578125 0)"/>
       <use xlink:href="#DejaVuSans-4c" transform="translate(669.0625 0)"/>
       <use xlink:href="#DejaVuSans-51" transform="translate(696.84375 0)"/>
      </g>
     </g>
    </g>
    <g id="xtick_16">
     <g id="text_28">
      <!-- helix_strand_helix -->
      <g style="fill: #262626" transform="translate(872.486453 305.135476) rotate(-30) scale(0.1155 -0.1155)">
       <use xlink:href="#DejaVuSans-4b"/>
       <use xlink:href="#DejaVuSans-48" transform="translate(63.375 0)"/>
       <use xlink:href="#DejaVuSans-4f" transform="translate(124.90625 0)"/>
       <use xlink:href="#DejaVuSans-4c" transform="translate(152.6875 0)"/>
       <use xlink:href="#DejaVuSans-5b" transform="translate(180.46875 0)"/>
       <use xlink:href="#DejaVuSans-42" transform="translate(239.65625 0)"/>
       <use xlink:href="#DejaVuSans-56" transform="translate(289.65625 0)"/>
       <use xlink:href="#DejaVuSans-57" transform="translate(341.75 0)"/>
       <use xlink:href="#DejaVuSans-55" transform="translate(380.953125 0)"/>
       <use xlink:href="#DejaVuSans-44" transform="translate(422.0625 0)"/>
       <use xlink:href="#DejaVuSans-51" transform="translate(483.34375 0)"/>
       <use xlink:href="#DejaVuSans-47" transform="translate(546.71875 0)"/>
       <use xlink:href="#DejaVuSans-42" transform="translate(610.203125 0)"/>
       <use xlink:href="#DejaVuSans-4b" transform="translate(660.203125 0)"/>
       <use xlink:href="#DejaVuSans-48" transform="translate(723.578125 0)"/>
       <use xlink:href="#DejaVuSans-4f" transform="translate(785.109375 0)"/>
       <use xlink:href="#DejaVuSans-4c" transform="translate(812.890625 0)"/>
       <use xlink:href="#DejaVuSans-5b" transform="translate(840.671875 0)"/>
      </g>
     </g>
    </g>
    <g id="text_29">
     <!-- topology -->
     <g style="fill: #262626" transform="translate(744.678059 337.976986) scale(0.11 -0.11)">
      <defs>
       <path id="DejaVuSans-5c" d="M 2059 -325 
Q 1816 -950 1584 -1140 
Q 1353 -1331 966 -1331 
L 506 -1331 
L 506 -850 
L 844 -850 
Q 1081 -850 1212 -737 
Q 1344 -625 1503 -206 
L 1606 56 
L 191 3500 
L 800 3500 
L 1894 763 
L 2988 3500 
L 3597 3500 
L 2059 -325 
z
" transform="scale(0.015625)"/>
      </defs>
      <use xlink:href="#DejaVuSans-57"/>
      <use xlink:href="#DejaVuSans-52" transform="translate(39.203125 0)"/>
      <use xlink:href="#DejaVuSans-53" transform="translate(100.390625 0)"/>
      <use xlink:href="#DejaVuSans-52" transform="translate(163.875 0)"/>
      <use xlink:href="#DejaVuSans-4f" transform="translate(225.0625 0)"/>
      <use xlink:href="#DejaVuSans-52" transform="translate(252.84375 0)"/>
      <use xlink:href="#DejaVuSans-4a" transform="translate(314.03125 0)"/>
      <use xlink:href="#DejaVuSans-5c" transform="translate(377.515625 0)"/>
     </g>
    </g>
   </g>
   <g id="matplotlib.axis_4">
    <g id="ytick_10">
     <g id="line2d_17">
      <path d="M 549.112086 218.974425 
L 988.281375 218.974425 
" clip-path="url(#pbee17300e6)" style="fill: none; stroke: #cccccc; stroke-linecap: round"/>
     </g>
     <g id="text_30">
      <!-- 0.20 -->
      <g style="fill: #262626" transform="translate(513.895289 223.362072) scale(0.1155 -0.1155)">
       <use xlink:href="#DejaVuSans-13"/>
       <use xlink:href="#DejaVuSans-11" transform="translate(63.625 0)"/>
       <use xlink:href="#DejaVuSans-15" transform="translate(95.40625 0)"/>
       <use xlink:href="#DejaVuSans-13" transform="translate(159.03125 0)"/>
      </g>
     </g>
    </g>
    <g id="ytick_11">
     <g id="line2d_18">
      <path d="M 549.112086 190.68286 
L 988.281375 190.68286 
" clip-path="url(#pbee17300e6)" style="fill: none; stroke: #cccccc; stroke-linecap: round"/>
     </g>
     <g id="text_31">
      <!-- 0.25 -->
      <g style="fill: #262626" transform="translate(513.895289 195.070506) scale(0.1155 -0.1155)">
       <use xlink:href="#DejaVuSans-13"/>
       <use xlink:href="#DejaVuSans-11" transform="translate(63.625 0)"/>
       <use xlink:href="#DejaVuSans-15" transform="translate(95.40625 0)"/>
       <use xlink:href="#DejaVuSans-18" transform="translate(159.03125 0)"/>
      </g>
     </g>
    </g>
    <g id="ytick_12">
     <g id="line2d_19">
      <path d="M 549.112086 162.391295 
L 988.281375 162.391295 
" clip-path="url(#pbee17300e6)" style="fill: none; stroke: #cccccc; stroke-linecap: round"/>
     </g>
     <g id="text_32">
      <!-- 0.30 -->
      <g style="fill: #262626" transform="translate(513.895289 166.778941) scale(0.1155 -0.1155)">
       <use xlink:href="#DejaVuSans-13"/>
       <use xlink:href="#DejaVuSans-11" transform="translate(63.625 0)"/>
       <use xlink:href="#DejaVuSans-16" transform="translate(95.40625 0)"/>
       <use xlink:href="#DejaVuSans-13" transform="translate(159.03125 0)"/>
      </g>
     </g>
    </g>
    <g id="ytick_13">
     <g id="line2d_20">
      <path d="M 549.112086 134.099729 
L 988.281375 134.099729 
" clip-path="url(#pbee17300e6)" style="fill: none; stroke: #cccccc; stroke-linecap: round"/>
     </g>
     <g id="text_33">
      <!-- 0.35 -->
      <g style="fill: #262626" transform="translate(513.895289 138.487376) scale(0.1155 -0.1155)">
       <use xlink:href="#DejaVuSans-13"/>
       <use xlink:href="#DejaVuSans-11" transform="translate(63.625 0)"/>
       <use xlink:href="#DejaVuSans-16" transform="translate(95.40625 0)"/>
       <use xlink:href="#DejaVuSans-18" transform="translate(159.03125 0)"/>
      </g>
     </g>
    </g>
    <g id="ytick_14">
     <g id="line2d_21">
      <path d="M 549.112086 105.808164 
L 988.281375 105.808164 
" clip-path="url(#pbee17300e6)" style="fill: none; stroke: #cccccc; stroke-linecap: round"/>
     </g>
     <g id="text_34">
      <!-- 0.40 -->
      <g style="fill: #262626" transform="translate(513.895289 110.19581) scale(0.1155 -0.1155)">
       <use xlink:href="#DejaVuSans-13"/>
       <use xlink:href="#DejaVuSans-11" transform="translate(63.625 0)"/>
       <use xlink:href="#DejaVuSans-17" transform="translate(95.40625 0)"/>
       <use xlink:href="#DejaVuSans-13" transform="translate(159.03125 0)"/>
      </g>
     </g>
    </g>
    <g id="ytick_15">
     <g id="line2d_22">
      <path d="M 549.112086 77.516599 
L 988.281375 77.516599 
" clip-path="url(#pbee17300e6)" style="fill: none; stroke: #cccccc; stroke-linecap: round"/>
     </g>
     <g id="text_35">
      <!-- 0.45 -->
      <g style="fill: #262626" transform="translate(513.895289 81.904245) scale(0.1155 -0.1155)">
       <use xlink:href="#DejaVuSans-13"/>
       <use xlink:href="#DejaVuSans-11" transform="translate(63.625 0)"/>
       <use xlink:href="#DejaVuSans-17" transform="translate(95.40625 0)"/>
       <use xlink:href="#DejaVuSans-18" transform="translate(159.03125 0)"/>
      </g>
     </g>
    </g>
    <g id="ytick_16">
     <g id="line2d_23">
      <path d="M 549.112086 49.225033 
L 988.281375 49.225033 
" clip-path="url(#pbee17300e6)" style="fill: none; stroke: #cccccc; stroke-linecap: round"/>
     </g>
     <g id="text_36">
      <!-- 0.50 -->
      <g style="fill: #262626" transform="translate(513.895289 53.61268) scale(0.1155 -0.1155)">
       <use xlink:href="#DejaVuSans-13"/>
       <use xlink:href="#DejaVuSans-11" transform="translate(63.625 0)"/>
       <use xlink:href="#DejaVuSans-18" transform="translate(95.40625 0)"/>
       <use xlink:href="#DejaVuSans-13" transform="translate(159.03125 0)"/>
      </g>
     </g>
    </g>
    <g id="text_37">
     <!-- composite_score -->
     <g style="fill: #262626" transform="translate(507.252711 175.639016) rotate(-90) scale(0.11 -0.11)">
      <use xlink:href="#DejaVuSans-46"/>
      <use xlink:href="#DejaVuSans-52" transform="translate(54.984375 0)"/>
      <use xlink:href="#DejaVuSans-50" transform="translate(116.171875 0)"/>
      <use xlink:href="#DejaVuSans-53" transform="translate(213.578125 0)"/>
      <use xlink:href="#DejaVuSans-52" transform="translate(277.0625 0)"/>
      <use xlink:href="#DejaVuSans-56" transform="translate(338.25 0)"/>
      <use xlink:href="#DejaVuSans-4c" transform="translate(390.34375 0)"/>
      <use xlink:href="#DejaVuSans-57" transform="translate(418.125 0)"/>
      <use xlink:href="#DejaVuSans-48" transform="translate(457.328125 0)"/>
      <use xlink:href="#DejaVuSans-42" transform="translate(518.859375 0)"/>
      <use xlink:href="#DejaVuSans-56" transform="translate(568.859375 0)"/>
      <use xlink:href="#DejaVuSans-46" transform="translate(620.953125 0)"/>
      <use xlink:href="#DejaVuSans-52" transform="translate(675.9375 0)"/>
      <use xlink:href="#DejaVuSans-55" transform="translate(737.125 0)"/>
      <use xlink:href="#DejaVuSans-48" transform="translate(776.03125 0)"/>
     </g>
    </g>
   </g>
   <g id="patch_31">
    <path d="M 553.991745 169.61979 
L 593.029015 169.61979 
L 593.029015 75.932271 
L 553.991745 75.932271 
L 553.991745 169.61979 
z
" clip-path="url(#pbee17300e6)" style="fill: #176d9c; stroke: #363636; stroke-linejoin: miter"/>
   </g>
   <g id="line2d_24">
    <path d="M 573.51038 169.61979 
L 573.51038 226.386815 
" clip-path="url(#pbee17300e6)" style="fill: none; stroke: #363636"/>
   </g>
   <g id="line2d_25">
    <path d="M 573.51038 75.932271 
L 573.51038 32.759342 
" clip-path="url(#pbee17300e6)" style="fill: none; stroke: #363636"/>
   </g>
   <g id="line2d_26">
    <path d="M 563.751062 226.386815 
L 583.269697 226.386815 
" clip-path="url(#pbee17300e6)" style="fill: none; stroke: #363636; stroke-linecap: round"/>
   </g>
   <g id="line2d_27">
    <path d="M 563.751062 32.759342 
L 583.269697 32.759342 
" clip-path="url(#pbee17300e6)" style="fill: none; stroke: #363636; stroke-linecap: round"/>
   </g>
   <g id="line2d_28"/>
   <g id="patch_32">
    <path d="M 602.788332 100.729828 
L 641.825603 100.729828 
L 641.825603 72.523137 
L 602.788332 72.523137 
L 602.788332 100.729828 
z
" clip-path="url(#pbee17300e6)" style="fill: #176d9c; stroke: #363636; stroke-linejoin: miter"/>
   </g>
   <g id="line2d_29">
    <path d="M 622.306967 100.729828 
L 622.306967 142.304283 
" clip-path="url(#pbee17300e6)" style="fill: none; stroke: #363636"/>
   </g>
   <g id="line2d_30">
    <path d="M 622.306967 72.523137 
L 622.306967 52.337106 
" clip-path="url(#pbee17300e6)" style="fill: none; stroke: #363636"/>
   </g>
   <g id="line2d_31">
    <path d="M 612.54765 142.304283 
L 632.066285 142.304283 
" clip-path="url(#pbee17300e6)" style="fill: none; stroke: #363636; stroke-linecap: round"/>
   </g>
   <g id="line2d_32">
    <path d="M 612.54765 52.337106 
L 632.066285 52.337106 
" clip-path="url(#pbee17300e6)" style="fill: none; stroke: #363636; stroke-linecap: round"/>
   </g>
   <g id="line2d_33">
    <defs>
     <path id="me121d70be5" d="M 0 3 
C 0.795609 3 1.55874 2.683901 2.12132 2.12132 
C 2.683901 1.55874 3 0.795609 3 0 
C 3 -0.795609 2.683901 -1.55874 2.12132 -2.12132 
C 1.55874 -2.683901 0.795609 -3 0 -3 
C -0.795609 -3 -1.55874 -2.683901 -2.12132 -2.12132 
C -2.683901 -1.55874 -3 -0.795609 -3 0 
C -3 0.795609 -2.683901 1.55874 -2.12132 2.12132 
C -1.55874 2.683901 -0.795609 3 0 3 
z
" style="stroke: #363636"/>
    </defs>
    <g clip-path="url(#pbee17300e6)">
     <use xlink:href="#me121d70be5" x="622.306967" y="171.274846" style="fill-opacity: 0; stroke: #363636"/>
     <use xlink:href="#me121d70be5" x="622.306967" y="174.104003" style="fill-opacity: 0; stroke: #363636"/>
     <use xlink:href="#me121d70be5" x="622.306967" y="179.818899" style="fill-opacity: 0; stroke: #363636"/>
    </g>
   </g>
   <g id="patch_33">
    <path d="M 651.58492 130.379388 
L 690.62219 130.379388 
L 690.62219 68.59061 
L 651.58492 68.59061 
L 651.58492 130.379388 
z
" clip-path="url(#pbee17300e6)" style="fill: #176d9c; stroke: #363636; stroke-linejoin: miter"/>
   </g>
   <g id="line2d_34">
    <path d="M 671.103555 130.379388 
L 671.103555 173.764504 
" clip-path="url(#pbee17300e6)" style="fill: none; stroke: #363636"/>
   </g>
   <g id="line2d_35">
    <path d="M 671.103555 68.59061 
L 671.103555 59.240248 
" clip-path="url(#pbee17300e6)" style="fill: none; stroke: #363636"/>
   </g>
   <g id="line2d_36">
    <path d="M 661.344238 173.764504 
L 680.862873 173.764504 
" clip-path="url(#pbee17300e6)" style="fill: none; stroke: #363636; stroke-linecap: round"/>
   </g>
   <g id="line2d_37">
    <path d="M 661.344238 59.240248 
L 680.862873 59.240248 
" clip-path="url(#pbee17300e6)" style="fill: none; stroke: #363636; stroke-linecap: round"/>
   </g>
   <g id="line2d_38"/>
   <g id="patch_34">
    <path d="M 700.381508 92.36967 
L 739.418778 92.36967 
L 739.418778 70.882227 
L 700.381508 70.882227 
L 700.381508 92.36967 
z
" clip-path="url(#pbee17300e6)" style="fill: #176d9c; stroke: #363636; stroke-linejoin: miter"/>
   </g>
   <g id="line2d_39">
    <path d="M 719.900143 92.36967 
L 719.900143 92.36967 
" clip-path="url(#pbee17300e6)" style="fill: none; stroke: #363636"/>
   </g>
   <g id="line2d_40">
    <path d="M 719.900143 70.882227 
L 719.900143 64.841977 
" clip-path="url(#pbee17300e6)" style="fill: none; stroke: #363636"/>
   </g>
   <g id="line2d_41">
    <path d="M 710.140825 92.36967 
L 729.65946 92.36967 
" clip-path="url(#pbee17300e6)" style="fill: none; stroke: #363636; stroke-linecap: round"/>
   </g>
   <g id="line2d_42">
    <path d="M 710.140825 64.841977 
L 729.65946 64.841977 
" clip-path="url(#pbee17300e6)" style="fill: none; stroke: #363636; stroke-linecap: round"/>
   </g>
   <g id="line2d_43">
    <g clip-path="url(#pbee17300e6)">
     <use xlink:href="#me121d70be5" x="719.900143" y="131.157407" style="fill-opacity: 0; stroke: #363636"/>
     <use xlink:href="#me121d70be5" x="719.900143" y="151.187835" style="fill-opacity: 0; stroke: #363636"/>
     <use xlink:href="#me121d70be5" x="719.900143" y="154.469656" style="fill-opacity: 0; stroke: #363636"/>
    </g>
   </g>
   <g id="patch_35">
    <path d="M 749.178095 137.070344 
L 788.215366 137.070344 
L 788.215366 77.856097 
L 749.178095 77.856097 
L 749.178095 137.070344 
z
" clip-path="url(#pbee17300e6)" style="fill: #176d9c; stroke: #363636; stroke-linejoin: miter"/>
   </g>
   <g id="line2d_44">
    <path d="M 768.69673 137.070344 
L 768.69673 169.690518 
" clip-path="url(#pbee17300e6)" style="fill: none; stroke: #363636"/>
   </g>
   <g id="line2d_45">
    <path d="M 768.69673 77.856097 
L 768.69673 66.596054 
" clip-path="url(#pbee17300e6)" style="fill: none; stroke: #363636"/>
   </g>
   <g id="line2d_46">
    <path d="M 758.937413 169.690518 
L 778.456048 169.690518 
" clip-path="url(#pbee17300e6)" style="fill: none; stroke: #363636; stroke-linecap: round"/>
   </g>
   <g id="line2d_47">
    <path d="M 758.937413 66.596054 
L 778.456048 66.596054 
" clip-path="url(#pbee17300e6)" style="fill: none; stroke: #363636; stroke-linecap: round"/>
   </g>
   <g id="line2d_48"/>
   <g id="patch_36">
    <path d="M 797.974683 153.917971 
L 837.011953 153.917971 
L 837.011953 96.896321 
L 797.974683 96.896321 
L 797.974683 153.917971 
z
" clip-path="url(#pbee17300e6)" style="fill: #176d9c; stroke: #363636; stroke-linejoin: miter"/>
   </g>
   <g id="line2d_49">
    <path d="M 817.493318 153.917971 
L 817.493318 166.352114 
" clip-path="url(#pbee17300e6)" style="fill: none; stroke: #363636"/>
   </g>
   <g id="line2d_50">
    <path d="M 817.493318 96.896321 
L 817.493318 73.782112 
" clip-path="url(#pbee17300e6)" style="fill: none; stroke: #363636"/>
   </g>
   <g id="line2d_51">
    <path d="M 807.734001 166.352114 
L 827.252636 166.352114 
" clip-path="url(#pbee17300e6)" style="fill: none; stroke: #363636; stroke-linecap: round"/>
   </g>
   <g id="line2d_52">
    <path d="M 807.734001 73.782112 
L 827.252636 73.782112 
" clip-path="url(#pbee17300e6)" style="fill: none; stroke: #363636; stroke-linecap: round"/>
   </g>
   <g id="line2d_53"/>
   <g id="patch_37">
    <path d="M 846.771271 145.586105 
L 885.808541 145.586105 
L 885.808541 127.408774 
L 846.771271 127.408774 
L 846.771271 145.586105 
z
" clip-path="url(#pbee17300e6)" style="fill: #176d9c; stroke: #363636; stroke-linejoin: miter"/>
   </g>
   <g id="line2d_54">
    <path d="M 866.289906 145.586105 
L 866.289906 166.917945 
" clip-path="url(#pbee17300e6)" style="fill: none; stroke: #363636"/>
   </g>
   <g id="line2d_55">
    <path d="M 866.289906 127.408774 
L 866.289906 100.376183 
" clip-path="url(#pbee17300e6)" style="fill: none; stroke: #363636"/>
   </g>
   <g id="line2d_56">
    <path d="M 856.530588 166.917945 
L 876.049223 166.917945 
" clip-path="url(#pbee17300e6)" style="fill: none; stroke: #363636; stroke-linecap: round"/>
   </g>
   <g id="line2d_57">
    <path d="M 856.530588 100.376183 
L 876.049223 100.376183 
" clip-path="url(#pbee17300e6)" style="fill: none; stroke: #363636; stroke-linecap: round"/>
   </g>
   <g id="line2d_58">
    <g clip-path="url(#pbee17300e6)">
     <use xlink:href="#me121d70be5" x="866.289906" y="185.873294" style="fill-opacity: 0; stroke: #363636"/>
     <use xlink:href="#me121d70be5" x="866.289906" y="76.045437" style="fill-opacity: 0; stroke: #363636"/>
     <use xlink:href="#me121d70be5" x="866.289906" y="88.946391" style="fill-opacity: 0; stroke: #363636"/>
     <use xlink:href="#me121d70be5" x="866.289906" y="95.340285" style="fill-opacity: 0; stroke: #363636"/>
    </g>
   </g>
   <g id="patch_38">
    <path d="M 895.567858 99.668894 
L 934.605129 99.668894 
L 934.605129 86.046506 
L 895.567858 86.046506 
L 895.567858 99.668894 
z
" clip-path="url(#pbee17300e6)" style="fill: #176d9c; stroke: #363636; stroke-linejoin: miter"/>
   </g>
   <g id="line2d_59">
    <path d="M 915.086493 99.668894 
L 915.086493 108.693904 
" clip-path="url(#pbee17300e6)" style="fill: none; stroke: #363636"/>
   </g>
   <g id="line2d_60">
    <path d="M 915.086493 86.046506 
L 915.086493 76.894184 
" clip-path="url(#pbee17300e6)" style="fill: none; stroke: #363636"/>
   </g>
   <g id="line2d_61">
    <path d="M 905.327176 108.693904 
L 924.845811 108.693904 
" clip-path="url(#pbee17300e6)" style="fill: none; stroke: #363636; stroke-linecap: round"/>
   </g>
   <g id="line2d_62">
    <path d="M 905.327176 76.894184 
L 924.845811 76.894184 
" clip-path="url(#pbee17300e6)" style="fill: none; stroke: #363636; stroke-linecap: round"/>
   </g>
   <g id="line2d_63"/>
   <g id="patch_39">
    <path d="M 944.364446 160.722092 
L 983.401716 160.722092 
L 983.401716 90.431698 
L 944.364446 90.431698 
L 944.364446 160.722092 
z
" clip-path="url(#pbee17300e6)" style="fill: #176d9c; stroke: #363636; stroke-linejoin: miter"/>
   </g>
   <g id="line2d_64">
    <path d="M 963.883081 160.722092 
L 963.883081 197.982084 
" clip-path="url(#pbee17300e6)" style="fill: none; stroke: #363636"/>
   </g>
   <g id="line2d_65">
    <path d="M 963.883081 90.431698 
L 963.883081 77.063934 
" clip-path="url(#pbee17300e6)" style="fill: none; stroke: #363636"/>
   </g>
   <g id="line2d_66">
    <path d="M 954.123764 197.982084 
L 973.642399 197.982084 
" clip-path="url(#pbee17300e6)" style="fill: none; stroke: #363636; stroke-linecap: round"/>
   </g>
   <g id="line2d_67">
    <path d="M 954.123764 77.063934 
L 973.642399 77.063934 
" clip-path="url(#pbee17300e6)" style="fill: none; stroke: #363636; stroke-linecap: round"/>
   </g>
   <g id="line2d_68"/>
   <g id="line2d_69">
    <path d="M 553.991745 102.045386 
L 593.029015 102.045386 
" clip-path="url(#pbee17300e6)" style="fill: none; stroke: #363636"/>
   </g>
   <g id="line2d_70">
    <path d="M 602.788332 85.098738 
L 641.825603 85.098738 
" clip-path="url(#pbee17300e6)" style="fill: none; stroke: #363636"/>
   </g>
   <g id="line2d_71">
    <path d="M 651.58492 82.24129 
L 690.62219 82.24129 
" clip-path="url(#pbee17300e6)" style="fill: none; stroke: #363636"/>
   </g>
   <g id="line2d_72">
    <path d="M 700.381508 73.159698 
L 739.418778 73.159698 
" clip-path="url(#pbee17300e6)" style="fill: none; stroke: #363636"/>
   </g>
   <g id="line2d_73">
    <path d="M 749.178095 85.692861 
L 788.215366 85.692861 
" clip-path="url(#pbee17300e6)" style="fill: none; stroke: #363636"/>
   </g>
   <g id="line2d_74">
    <path d="M 797.974683 141.285787 
L 837.011953 141.285787 
" clip-path="url(#pbee17300e6)" style="fill: none; stroke: #363636"/>
   </g>
   <g id="line2d_75">
    <path d="M 846.771271 141.625286 
L 885.808541 141.625286 
" clip-path="url(#pbee17300e6)" style="fill: none; stroke: #363636"/>
   </g>
   <g id="line2d_76">
    <path d="M 895.567858 91.63409 
L 934.605129 91.63409 
" clip-path="url(#pbee17300e6)" style="fill: none; stroke: #363636"/>
   </g>
   <g id="line2d_77">
    <path d="M 944.364446 141.144329 
L 983.401716 141.144329 
" clip-path="url(#pbee17300e6)" style="fill: none; stroke: #363636"/>
   </g>
   <g id="patch_40">
    <path d="M 549.112086 236.068189 
L 549.112086 23.077969 
" style="fill: none; stroke: #cccccc; stroke-width: 1.25; stroke-linejoin: miter; stroke-linecap: square"/>
   </g>
   <g id="patch_41">
    <path d="M 549.112086 236.068189 
L 988.281375 236.068189 
" style="fill: none; stroke: #cccccc; stroke-width: 1.25; stroke-linejoin: miter; stroke-linecap: square"/>
   </g>
   <g id="text_38">
    <!-- Composite score by scaffold topology -->
    <g style="fill: #262626" transform="translate(646.587121 17.077969) scale(0.13 -0.13)">
     <use xlink:href="#DejaVuSans-26"/>
     <use xlink:href="#DejaVuSans-52" transform="translate(69.828125 0)"/>
     <use xlink:href="#DejaVuSans-50" transform="translate(131.015625 0)"/>
     <use xlink:href="#DejaVuSans-53" transform="translate(228.421875 0)"/>
     <use xlink:href="#DejaVuSans-52" transform="translate(291.90625 0)"/>
     <use xlink:href="#DejaVuSans-56" transform="translate(353.09375 0)"/>
     <use xlink:href="#DejaVuSans-4c" transform="translate(405.1875 0)"/>
     <use xlink:href="#DejaVuSans-57" transform="translate(432.96875 0)"/>
     <use xlink:href="#DejaVuSans-48" transform="translate(472.171875 0)"/>
     <use xlink:href="#DejaVuSans-3" transform="translate(533.703125 0)"/>
     <use xlink:href="#DejaVuSans-56" transform="translate(565.484375 0)"/>
     <use xlink:href="#DejaVuSans-46" transform="translate(617.578125 0)"/>
     <use xlink:href="#DejaVuSans-52" transform="translate(672.5625 0)"/>
     <use xlink:href="#DejaVuSans-55" transform="translate(733.75 0)"/>
     <use xlink:href="#DejaVuSans-48" transform="translate(772.65625 0)"/>
     <use xlink:href="#DejaVuSans-3" transform="translate(834.1875 0)"/>
     <use xlink:href="#DejaVuSans-45" transform="translate(865.96875 0)"/>
     <use xlink:href="#DejaVuSans-5c" transform="translate(929.453125 0)"/>
     <use xlink:href="#DejaVuSans-3" transform="translate(988.640625 0)"/>
     <use xlink:href="#DejaVuSans-56" transform="translate(1020.421875 0)"/>
     <use xlink:href="#DejaVuSans-46" transform="translate(1072.515625 0)"/>
     <use xlink:href="#DejaVuSans-44" transform="translate(1127.5 0)"/>
     <use xlink:href="#DejaVuSans-13ae" transform="translate(1188.78125 0)"/>
     <use xlink:href="#DejaVuSans-52" transform="translate(1257.671875 0)"/>
     <use xlink:href="#DejaVuSans-4f" transform="translate(1318.859375 0)"/>
     <use xlink:href="#DejaVuSans-47" transform="translate(1346.640625 0)"/>
     <use xlink:href="#DejaVuSans-3" transform="translate(1410.125 0)"/>
     <use xlink:href="#DejaVuSans-57" transform="translate(1441.90625 0)"/>
     <use xlink:href="#DejaVuSans-52" transform="translate(1481.109375 0)"/>
     <use xlink:href="#DejaVuSans-53" transform="translate(1542.296875 0)"/>
     <use xlink:href="#DejaVuSans-52" transform="translate(1605.78125 0)"/>
     <use xlink:href="#DejaVuSans-4f" transform="translate(1666.96875 0)"/>
     <use xlink:href="#DejaVuSans-52" transform="translate(1694.75 0)"/>
     <use xlink:href="#DejaVuSans-4a" transform="translate(1755.9375 0)"/>
     <use xlink:href="#DejaVuSans-5c" transform="translate(1819.421875 0)"/>
    </g>
   </g>
  </g>
 </g>
 <defs>
  <clipPath id="pf929a85986">
   <rect x="46.397375" y="23.077969" width="439.169289" height="212.99022"/>
  </clipPath>
  <clipPath id="pbee17300e6">
   <rect x="549.112086" y="23.077969" width="439.169289" height="212.99022"/>
  </clipPath>
 </defs>
</svg>
