<?xml version="1.0" encoding="utf-8" standalone="no"?>
<!DOCTYPE svg PUBLIC "-//W3C//DTD SVG 1.1//EN"
  "http://www.w3.org/Graphics/SVG/1.1/DTD/svg11.dtd">
<svg xmlns:xlink="http://www.w3.org/1999/xlink" width="1139.552969pt" height="346.982828pt" viewBox="0 0 1139.552969 346.982828" xmlns="http://www.w3.org/2000/svg" version="1.1">
 <metadata>
  <rdf:RDF xmlns:dc="http://purl.org/dc/elements/1.1/" xmlns:cc="http://creativecommons.org/ns#" xmlns:rdf="http://www.w3.org/1999/02/22-rdf-syntax-ns#">
   <cc:Work>
    <dc:type rdf:resource="http://purl.org/dc/dcmitype/StillImage"/>
    <dc:date>2026-07-18T16:59:59.055716</dc:date>
    <dc:format>image/svg+xml</dc:format>
    <dc:creator>
     <cc:Agent>
      <dc:title>Matplotlib v3.11.1, https://matplotlib.org/</dc:title>
     </cc:Agent>
    </dc:creator>
   </cc:Work>
  </rdf:RDF>
 </metadata>
 <defs>
  <style type="text/css">*{stroke-linejoin: round; stroke-linecap: butt}</style>
 </defs>
 <g id="figure_1">
  <g id="patch_1">
   <path d="M 0 346.982828 
L 1139.552969 346.982828 
L 1139.552969 0 
L 0 0 
z
" style="fill: #ffffff"/>
  </g>
  <g id="axes_1">
   <g id="patch_2">
    <path d="M 50.068969 303.731969 
L 563.156969 303.731969 
L 563.156969 23.077969 
L 50.068969 23.077969 
z
" style="fill: #ffffff"/>
   </g>
   <g id="matplotlib.axis_1">
    <g id="xtick_1">
     <g id="line2d_1">
      <path d="M 72.318866 303.731969 
L 72.318866 23.077969 
" clip-path="url(#pc301a513fb)" style="fill: none; stroke: #cccccc; stroke-linecap: round"/>
     </g>
     <g id="text_1">
      <!-- 0 -->
      <g style="fill: #262626" transform="translate(68.644523 322.007262) scale(0.1155 -0.1155)">
       <defs>
        <path id="DejaVuSans-13" d="M 2034 4250 
Q 1547 4250 1301 3770 
Q 1056 3291 1056 2328 
Q 1056 1369 1301 889 
Q 1547 409 2034 409 
Q 2525 409 2770 889 
Q 3016 1369 3016 2328 
Q 3016 3291 2770 3770 
Q 2525 4250 2034 4250 
z
M 2034 4750 
Q 2819 4750 3233 4129 
Q 3647 3509 3647 2328 
Q 3647 1150 3233 529 
Q 2819 -91 2034 -91 
Q 1250 -91 836 529 
Q 422 1150 422 2328 
Q 422 3509 836 4129 
Q 1250 4750 2034 4750 
z
" transform="scale(0.015625)"/>
       </defs>
       <use xlink:href="#DejaVuSans-13"/>
      </g>
     </g>
    </g>
    <g id="xtick_2">
     <g id="line2d_2">
      <path d="M 179.547288 303.731969 
L 179.547288 23.077969 
" clip-path="url(#pc301a513fb)" style="fill: none; stroke: #cccccc; stroke-linecap: round"/>
     </g>
     <g id="text_2">
      <!-- 100 -->
      <g style="fill: #262626" transform="translate(168.524257 322.007262) scale(0.1155 -0.1155)">
       <defs>
        <path id="DejaVuSans-14" d="M 794 531 
L 1825 531 
L 1825 4091 
L 703 3866 
L 703 4441 
L 1819 4666 
L 2450 4666 
L 2450 531 
L 3481 531 
L 3481 0 
L 794 0 
L 794 531 
z
" transform="scale(0.015625)"/>
       </defs>
       <use xlink:href="#DejaVuSans-14"/>
       <use xlink:href="#DejaVuSans-13" transform="translate(63.625 0)"/>
       <use xlink:href="#DejaVuSans-13" transform="translate(127.25 0)"/>
      </g>
     </g>
    </g>
    <g id="xtick_3">
     <g id="line2d_3">
      <path d="M 286.775711 303.731969 
L 286.775711 23.077969 
" clip-path="url(#pc301a513fb)" style="fill: none; stroke: #cccccc; stroke-linecap: round"/>
     </g>
     <g id="text_3">
      <!-- 200 -->
      <g style="fill: #262626" transform="translate(275.752679 322.007262) scale(0.1155 -0.1155)">
       <defs>
        <path id="DejaVuSans-15" d="M 1228 531 
L 3431 531 
L 3431 0 
L 469 0 
L 469 531 
Q 828 903 1448 1529 
Q 2069 2156 2228 2338 
Q 2531 2678 2651 2914 
Q 2772 3150 2772 3378 
Q 2772 3750 2511 3984 
Q 2250 4219 1831 4219 
Q 1534 4219 1204 4116 
Q 875 4013 500 3803 
L 500 4441 
Q 881 4594 1212 4672 
Q 1544 4750 1819 4750 
Q 2544 4750 2975 4387 
Q 3406 4025 3406 3419 
Q 3406 3131 3298 2873 
Q 3191 2616 2906 2266 
Q 2828 2175 2409 1742 
Q 1991 1309 1228 531 
z
" transform="scale(0.015625)"/>
       </defs>
       <use xlink:href="#DejaVuSans-15"/>
       <use xlink:href="#DejaVuSans-13" transform="translate(63.625 0)"/>
       <use xlink:href="#DejaVuSans-13" transform="translate(127.25 0)"/>
      </g>
     </g>
    </g>
    <g id="xtick_4">
     <g id="line2d_4">
      <path d="M 394.004133 303.731969 
L 394.004133 23.077969 
" clip-path="url(#pc301a513fb)" style="fill: none; stroke: #cccccc; stroke-linecap: round"/>
     </g>
     <g id="text_4">
      <!-- 300 -->
      <g style="fill: #262626" transform="translate(382.981102 322.007262) scale(0.1155 -0.1155)">
       <defs>
        <path id="DejaVuSans-16" d="M 2597 2516 
Q 3050 2419 3304 2112 
Q 3559 1806 3559 1356 
Q 3559 666 3084 287 
Q 2609 -91 1734 -91 
Q 1441 -91 1130 -33 
Q 819 25 488 141 
L 488 750 
Q 750 597 1062 519 
Q 1375 441 1716 441 
Q 2309 441 2620 675 
Q 2931 909 2931 1356 
Q 2931 1769 2642 2001 
Q 2353 2234 1838 2234 
L 1294 2234 
L 1294 2753 
L 1863 2753 
Q 2328 2753 2575 2939 
Q 2822 3125 2822 3475 
Q 2822 3834 2567 4026 
Q 2313 4219 1838 4219 
Q 1578 4219 1281 4162 
Q 984 4106 628 3988 
L 628 4550 
Q 988 4650 1302 4700 
Q 1616 4750 1894 4750 
Q 2613 4750 3031 4423 
Q 3450 4097 3450 3541 
Q 3450 3153 3228 2886 
Q 3006 2619 2597 2516 
z
" transform="scale(0.015625)"/>
       </defs>
       <use xlink:href="#DejaVuSans-16"/>
       <use xlink:href="#DejaVuSans-13" transform="translate(63.625 0)"/>
       <use xlink:href="#DejaVuSans-13" transform="translate(127.25 0)"/>
      </g>
     </g>
    </g>
    <g id="xtick_5">
     <g id="line2d_5">
      <path d="M 501.232555 303.731969 
L 501.232555 23.077969 
" clip-path="url(#pc301a513fb)" style="fill: none; stroke: #cccccc; stroke-linecap: round"/>
     </g>
     <g id="text_5">
      <!-- 400 -->
      <g style="fill: #262626" transform="translate(490.209524 322.007262) scale(0.1155 -0.1155)">
       <defs>
        <path id="DejaVuSans-17" d="M 2419 4116 
L 825 1625 
L 2419 1625 
L 2419 4116 
z
M 2253 4666 
L 3047 4666 
L 3047 1625 
L 3713 1625 
L 3713 1100 
L 3047 1100 
L 3047 0 
L 2419 0 
L 2419 1100 
L 313 1100 
L 313 1709 
L 2253 4666 
z
" transform="scale(0.015625)"/>
       </defs>
       <use xlink:href="#DejaVuSans-17"/>
       <use xlink:href="#DejaVuSans-13" transform="translate(63.625 0)"/>
       <use xlink:href="#DejaVuSans-13" transform="translate(127.25 0)"/>
      </g>
     </g>
    </g>
    <g id="text_6">
     <!-- Tau residue -->
     <g style="fill: #262626" transform="translate(275.281016 337.14025) scale(0.11 -0.11)">
      <defs>
       <path id="DejaVuSans-37" d="M -19 4666 
L 3928 4666 
L 3928 4134 
L 2272 4134 
L 2272 0 
L 1638 0 
L 1638 4134 
L -19 4134 
L -19 4666 
z
" transform="scale(0.015625)"/>
       <path id="DejaVuSans-44" d="M 2194 1759 
Q 1497 1759 1228 1600 
Q 959 1441 959 1056 
Q 959 750 1161 570 
Q 1363 391 1709 391 
Q 2188 391 2477 730 
Q 2766 1069 2766 1631 
L 2766 1759 
L 2194 1759 
z
M 3341 1997 
L 3341 0 
L 2766 0 
L 2766 531 
Q 2569 213 2275 61 
Q 1981 -91 1556 -91 
Q 1019 -91 701 211 
Q 384 513 384 1019 
Q 384 1609 779 1909 
Q 1175 2209 1959 2209 
L 2766 2209 
L 2766 2266 
Q 2766 2663 2505 2880 
Q 2244 3097 1772 3097 
Q 1472 3097 1187 3025 
Q 903 2953 641 2809 
L 641 3341 
Q 956 3463 1253 3523 
Q 1550 3584 1831 3584 
Q 2591 3584 2966 3190 
Q 3341 2797 3341 1997 
z
" transform="scale(0.015625)"/>
       <path id="DejaVuSans-58" d="M 544 1381 
L 544 3500 
L 1119 3500 
L 1119 1403 
Q 1119 906 1312 657 
Q 1506 409 1894 409 
Q 2359 409 2629 706 
Q 2900 1003 2900 1516 
L 2900 3500 
L 3475 3500 
L 3475 0 
L 2900 0 
L 2900 538 
Q 2691 219 2414 64 
Q 2138 -91 1772 -91 
Q 1169 -91 856 284 
Q 544 659 544 1381 
z
M 1991 3584 
L 1991 3584 
z
" transform="scale(0.015625)"/>
       <path id="DejaVuSans-3" transform="scale(0.015625)"/>
       <path id="DejaVuSans-55" d="M 2631 2963 
Q 2534 3019 2420 3045 
Q 2306 3072 2169 3072 
Q 1681 3072 1420 2755 
Q 1159 2438 1159 1844 
L 1159 0 
L 581 0 
L 581 3500 
L 1159 3500 
L 1159 2956 
Q 1341 3275 1631 3429 
Q 1922 3584 2338 3584 
Q 2397 3584 2469 3576 
Q 2541 3569 2628 3553 
L 2631 2963 
z
" transform="scale(0.015625)"/>
       <path id="DejaVuSans-48" d="M 3597 1894 
L 3597 1613 
L 953 1613 
Q 991 1019 1311 708 
Q 1631 397 2203 397 
Q 2534 397 2845 478 
Q 3156 559 3463 722 
L 3463 178 
Q 3153 47 2828 -22 
Q 2503 -91 2169 -91 
Q 1331 -91 842 396 
Q 353 884 353 1716 
Q 353 2575 817 3079 
Q 1281 3584 2069 3584 
Q 2775 3584 3186 3129 
Q 3597 2675 3597 1894 
z
M 3022 2063 
Q 3016 2534 2758 2815 
Q 2500 3097 2075 3097 
Q 1594 3097 1305 2825 
Q 1016 2553 972 2059 
L 3022 2063 
z
" transform="scale(0.015625)"/>
       <path id="DejaVuSans-56" d="M 2834 3397 
L 2834 2853 
Q 2591 2978 2328 3040 
Q 2066 3103 1784 3103 
Q 1356 3103 1142 2972 
Q 928 2841 928 2578 
Q 928 2378 1081 2264 
Q 1234 2150 1697 2047 
L 1894 2003 
Q 2506 1872 2764 1633 
Q 3022 1394 3022 966 
Q 3022 478 2636 193 
Q 2250 -91 1575 -91 
Q 1294 -91 989 -36 
Q 684 19 347 128 
L 347 722 
Q 666 556 975 473 
Q 1284 391 1588 391 
Q 1994 391 2212 530 
Q 2431 669 2431 922 
Q 2431 1156 2273 1281 
Q 2116 1406 1581 1522 
L 1381 1569 
Q 847 1681 609 1914 
Q 372 2147 372 2553 
Q 372 3047 722 3315 
Q 1072 3584 1716 3584 
Q 2034 3584 2315 3537 
Q 2597 3491 2834 3397 
z
" transform="scale(0.015625)"/>
       <path id="DejaVuSans-4c" d="M 603 3500 
L 1178 3500 
L 1178 0 
L 603 0 
L 603 3500 
z
M 603 4863 
L 1178 4863 
L 1178 4134 
L 603 4134 
L 603 4863 
z
" transform="scale(0.015625)"/>
       <path id="DejaVuSans-47" d="M 2906 2969 
L 2906 4863 
L 3481 4863 
L 3481 0 
L 2906 0 
L 2906 525 
Q 2725 213 2448 61 
Q 2172 -91 1784 -91 
Q 1150 -91 751 415 
Q 353 922 353 1747 
Q 353 2572 751 3078 
Q 1150 3584 1784 3584 
Q 2172 3584 2448 3432 
Q 2725 3281 2906 2969 
z
M 947 1747 
Q 947 1113 1208 752 
Q 1469 391 1925 391 
Q 2381 391 2643 752 
Q 2906 1113 2906 1747 
Q 2906 2381 2643 2742 
Q 2381 3103 1925 3103 
Q 1469 3103 1208 2742 
Q 947 2381 947 1747 
z
" transform="scale(0.015625)"/>
      </defs>
      <use xlink:href="#DejaVuSans-37"/>
      <use xlink:href="#DejaVuSans-44" transform="translate(44.53125 0)"/>
      <use xlink:href="#DejaVuSans-58" transform="translate(105.8125 0)"/>
      <use xlink:href="#DejaVuSans-3" transform="translate(169.1875 0)"/>
      <use xlink:href="#DejaVuSans-55" transform="translate(200.96875 0)"/>
      <use xlink:href="#DejaVuSans-48" transform="translate(239.875 0)"/>
      <use xlink:href="#DejaVuSans-56" transform="translate(301.40625 0)"/>
      <use xlink:href="#DejaVuSans-4c" transform="translate(353.5 0)"/>
      <use xlink:href="#DejaVuSans-47" transform="translate(381.28125 0)"/>
      <use xlink:href="#DejaVuSans-58" transform="translate(444.765625 0)"/>
      <use xlink:href="#DejaVuSans-48" transform="translate(508.140625 0)"/>
     </g>
    </g>
   </g>
   <g id="matplotlib.axis_2">
    <g id="ytick_1">
     <g id="line2d_6">
      <path d="M 50.068969 290.974969 
L 563.156969 290.974969 
" clip-path="url(#pc301a513fb)" style="fill: none; stroke: #cccccc; stroke-linecap: round"/>
     </g>
     <g id="text_7">
      <!-- 0.0 -->
      <g style="fill: #262626" transform="translate(22.200859 295.362615) scale(0.1155 -0.1155)">
       <defs>
        <path id="DejaVuSans-11" d="M 684 794 
L 1344 794 
L 1344 0 
L 684 0 
L 684 794 
z
" transform="scale(0.015625)"/>
       </defs>
       <use xlink:href="#DejaVuSans-13"/>
       <use xlink:href="#DejaVuSans-11" transform="translate(63.625 0)"/>
       <use xlink:href="#DejaVuSans-13" transform="translate(95.40625 0)"/>
      </g>
     </g>
    </g>
    <g id="ytick_2">
     <g id="line2d_7">
      <path d="M 50.068969 239.946969 
L 563.156969 239.946969 
" clip-path="url(#pc301a513fb)" style="fill: none; stroke: #cccccc; stroke-linecap: round"/>
     </g>
     <g id="text_8">
      <!-- 0.2 -->
      <g style="fill: #262626" transform="translate(22.200859 244.334615) scale(0.1155 -0.1155)">
       <use xlink:href="#DejaVuSans-13"/>
       <use xlink:href="#DejaVuSans-11" transform="translate(63.625 0)"/>
       <use xlink:href="#DejaVuSans-15" transform="translate(95.40625 0)"/>
      </g>
     </g>
    </g>
    <g id="ytick_3">
     <g id="line2d_8">
      <path d="M 50.068969 188.918969 
L 563.156969 188.918969 
" clip-path="url(#pc301a513fb)" style="fill: none; stroke: #cccccc; stroke-linecap: round"/>
     </g>
     <g id="text_9">
      <!-- 0.4 -->
      <g style="fill: #262626" transform="translate(22.200859 193.306615) scale(0.1155 -0.1155)">
       <use xlink:href="#DejaVuSans-13"/>
       <use xlink:href="#DejaVuSans-11" transform="translate(63.625 0)"/>
       <use xlink:href="#DejaVuSans-17" transform="translate(95.40625 0)"/>
      </g>
     </g>
    </g>
    <g id="ytick_4">
     <g id="line2d_9">
      <path d="M 50.068969 137.890969 
L 563.156969 137.890969 
" clip-path="url(#pc301a513fb)" style="fill: none; stroke: #cccccc; stroke-linecap: round"/>
     </g>
     <g id="text_10">
      <!-- 0.6 -->
      <g style="fill: #262626" transform="translate(22.200859 142.278615) scale(0.1155 -0.1155)">
       <defs>
        <path id="DejaVuSans-19" d="M 2113 2584 
Q 1688 2584 1439 2293 
Q 1191 2003 1191 1497 
Q 1191 994 1439 701 
Q 1688 409 2113 409 
Q 2538 409 2786 701 
Q 3034 994 3034 1497 
Q 3034 2003 2786 2293 
Q 2538 2584 2113 2584 
z
M 3366 4563 
L 3366 3988 
Q 3128 4100 2886 4159 
Q 2644 4219 2406 4219 
Q 1781 4219 1451 3797 
Q 1122 3375 1075 2522 
Q 1259 2794 1537 2939 
Q 1816 3084 2150 3084 
Q 2853 3084 3261 2657 
Q 3669 2231 3669 1497 
Q 3669 778 3244 343 
Q 2819 -91 2113 -91 
Q 1303 -91 875 529 
Q 447 1150 447 2328 
Q 447 3434 972 4092 
Q 1497 4750 2381 4750 
Q 2619 4750 2861 4703 
Q 3103 4656 3366 4563 
z
" transform="scale(0.015625)"/>
       </defs>
       <use xlink:href="#DejaVuSans-13"/>
       <use xlink:href="#DejaVuSans-11" transform="translate(63.625 0)"/>
       <use xlink:href="#DejaVuSans-19" transform="translate(95.40625 0)"/>
      </g>
     </g>
    </g>
    <g id="ytick_5">
     <g id="line2d_10">
      <path d="M 50.068969 86.862969 
L 563.156969 86.862969 
" clip-path="url(#pc301a513fb)" style="fill: none; stroke: #cccccc; stroke-linecap: round"/>
     </g>
     <g id="text_11">
      <!-- 0.8 -->
      <g style="fill: #262626" transform="translate(22.200859 91.250615) scale(0.1155 -0.1155)">
       <defs>
        <path id="DejaVuSans-1b" d="M 2034 2216 
Q 1584 2216 1326 1975 
Q 1069 1734 1069 1313 
Q 1069 891 1326 650 
Q 1584 409 2034 409 
Q 2484 409 2743 651 
Q 3003 894 3003 1313 
Q 3003 1734 2745 1975 
Q 2488 2216 2034 2216 
z
M 1403 2484 
Q 997 2584 770 2862 
Q 544 3141 544 3541 
Q 544 4100 942 4425 
Q 1341 4750 2034 4750 
Q 2731 4750 3128 4425 
Q 3525 4100 3525 3541 
Q 3525 3141 3298 2862 
Q 3072 2584 2669 2484 
Q 3125 2378 3379 2068 
Q 3634 1759 3634 1313 
Q 3634 634 3220 271 
Q 2806 -91 2034 -91 
Q 1263 -91 848 271 
Q 434 634 434 1313 
Q 434 1759 690 2068 
Q 947 2378 1403 2484 
z
M 1172 3481 
Q 1172 3119 1398 2916 
Q 1625 2713 2034 2713 
Q 2441 2713 2670 2916 
Q 2900 3119 2900 3481 
Q 2900 3844 2670 4047 
Q 2441 4250 2034 4250 
Q 1625 4250 1398 4047 
Q 1172 3844 1172 3481 
z
" transform="scale(0.015625)"/>
       </defs>
       <use xlink:href="#DejaVuSans-13"/>
       <use xlink:href="#DejaVuSans-11" transform="translate(63.625 0)"/>
       <use xlink:href="#DejaVuSans-1b" transform="translate(95.40625 0)"/>
      </g>
     </g>
    </g>
    <g id="ytick_6">
     <g id="line2d_11">
      <path d="M 50.068969 35.834969 
L 563.156969 35.834969 
" clip-path="url(#pc301a513fb)" style="fill: none; stroke: #cccccc; stroke-linecap: round"/>
     </g>
     <g id="text_12">
      <!-- 1.0 -->
      <g style="fill: #262626" transform="translate(22.200859 40.222615) scale(0.1155 -0.1155)">
       <use xlink:href="#DejaVuSans-14"/>
       <use xlink:href="#DejaVuSans-11" transform="translate(63.625 0)"/>
       <use xlink:href="#DejaVuSans-13" transform="translate(95.40625 0)"/>
      </g>
     </g>
    </g>
    <g id="text_13">
     <!-- Combined aggregation score -->
     <g style="fill: #262626" transform="translate(15.558281 242.898875) rotate(-90) scale(0.11 -0.11)">
      <defs>
       <path id="DejaVuSans-26" d="M 4122 4306 
L 4122 3641 
Q 3803 3938 3442 4084 
Q 3081 4231 2675 4231 
Q 1875 4231 1450 3742 
Q 1025 3253 1025 2328 
Q 1025 1406 1450 917 
Q 1875 428 2675 428 
Q 3081 428 3442 575 
Q 3803 722 4122 1019 
L 4122 359 
Q 3791 134 3420 21 
Q 3050 -91 2638 -91 
Q 1578 -91 968 557 
Q 359 1206 359 2328 
Q 359 3453 968 4101 
Q 1578 4750 2638 4750 
Q 3056 4750 3426 4639 
Q 3797 4528 4122 4306 
z
" transform="scale(0.015625)"/>
       <path id="DejaVuSans-52" d="M 1959 3097 
Q 1497 3097 1228 2736 
Q 959 2375 959 1747 
Q 959 1119 1226 758 
Q 1494 397 1959 397 
Q 2419 397 2687 759 
Q 2956 1122 2956 1747 
Q 2956 2369 2687 2733 
Q 2419 3097 1959 3097 
z
M 1959 3584 
Q 2709 3584 3137 3096 
Q 3566 2609 3566 1747 
Q 3566 888 3137 398 
Q 2709 -91 1959 -91 
Q 1206 -91 779 398 
Q 353 888 353 1747 
Q 353 2609 779 3096 
Q 1206 3584 1959 3584 
z
" transform="scale(0.015625)"/>
       <path id="DejaVuSans-50" d="M 3328 2828 
Q 3544 3216 3844 3400 
Q 4144 3584 4550 3584 
Q 5097 3584 5394 3201 
Q 5691 2819 5691 2113 
L 5691 0 
L 5113 0 
L 5113 2094 
Q 5113 2597 4934 2840 
Q 4756 3084 4391 3084 
Q 3944 3084 3684 2787 
Q 3425 2491 3425 1978 
L 3425 0 
L 2847 0 
L 2847 2094 
Q 2847 2600 2669 2842 
Q 2491 3084 2119 3084 
Q 1678 3084 1418 2786 
Q 1159 2488 1159 1978 
L 1159 0 
L 581 0 
L 581 3500 
L 1159 3500 
L 1159 2956 
Q 1356 3278 1631 3431 
Q 1906 3584 2284 3584 
Q 2666 3584 2933 3390 
Q 3200 3197 3328 2828 
z
" transform="scale(0.015625)"/>
       <path id="DejaVuSans-45" d="M 3116 1747 
Q 3116 2381 2855 2742 
Q 2594 3103 2138 3103 
Q 1681 3103 1420 2742 
Q 1159 2381 1159 1747 
Q 1159 1113 1420 752 
Q 1681 391 2138 391 
Q 2594 391 2855 752 
Q 3116 1113 3116 1747 
z
M 1159 2969 
Q 1341 3281 1617 3432 
Q 1894 3584 2278 3584 
Q 2916 3584 3314 3078 
Q 3713 2572 3713 1747 
Q 3713 922 3314 415 
Q 2916 -91 2278 -91 
Q 1894 -91 1617 61 
Q 1341 213 1159 525 
L 1159 0 
L 581 0 
L 581 4863 
L 1159 4863 
L 1159 2969 
z
" transform="scale(0.015625)"/>
       <path id="DejaVuSans-51" d="M 3513 2113 
L 3513 0 
L 2938 0 
L 2938 2094 
Q 2938 2591 2744 2837 
Q 2550 3084 2163 3084 
Q 1697 3084 1428 2787 
Q 1159 2491 1159 1978 
L 1159 0 
L 581 0 
L 581 3500 
L 1159 3500 
L 1159 2956 
Q 1366 3272 1645 3428 
Q 1925 3584 2291 3584 
Q 2894 3584 3203 3211 
Q 3513 2838 3513 2113 
z
" transform="scale(0.015625)"/>
       <path id="DejaVuSans-4a" d="M 2906 1791 
Q 2906 2416 2648 2759 
Q 2391 3103 1925 3103 
Q 1463 3103 1205 2759 
Q 947 2416 947 1791 
Q 947 1169 1205 825 
Q 1463 481 1925 481 
Q 2391 481 2648 825 
Q 2906 1169 2906 1791 
z
M 3481 434 
Q 3481 -459 3084 -895 
Q 2688 -1331 1869 -1331 
Q 1566 -1331 1297 -1286 
Q 1028 -1241 775 -1147 
L 775 -588 
Q 1028 -725 1275 -790 
Q 1522 -856 1778 -856 
Q 2344 -856 2625 -561 
Q 2906 -266 2906 331 
L 2906 616 
Q 2728 306 2450 153 
Q 2172 0 1784 0 
Q 1141 0 747 490 
Q 353 981 353 1791 
Q 353 2603 747 3093 
Q 1141 3584 1784 3584 
Q 2172 3584 2450 3431 
Q 2728 3278 2906 2969 
L 2906 3500 
L 3481 3500 
L 3481 434 
z
" transform="scale(0.015625)"/>
       <path id="DejaVuSans-57" d="M 1172 4494 
L 1172 3500 
L 2356 3500 
L 2356 3053 
L 1172 3053 
L 1172 1153 
Q 1172 725 1289 603 
Q 1406 481 1766 481 
L 2356 481 
L 2356 0 
L 1766 0 
Q 1100 0 847 248 
Q 594 497 594 1153 
L 594 3053 
L 172 3053 
L 172 3500 
L 594 3500 
L 594 4494 
L 1172 4494 
z
" transform="scale(0.015625)"/>
       <path id="DejaVuSans-46" d="M 3122 3366 
L 3122 2828 
Q 2878 2963 2633 3030 
Q 2388 3097 2138 3097 
Q 1578 3097 1268 2742 
Q 959 2388 959 1747 
Q 959 1106 1268 751 
Q 1578 397 2138 397 
Q 2388 397 2633 464 
Q 2878 531 3122 666 
L 3122 134 
Q 2881 22 2623 -34 
Q 2366 -91 2075 -91 
Q 1284 -91 818 406 
Q 353 903 353 1747 
Q 353 2603 823 3093 
Q 1294 3584 2113 3584 
Q 2378 3584 2631 3529 
Q 2884 3475 3122 3366 
z
" transform="scale(0.015625)"/>
      </defs>
      <use xlink:href="#DejaVuSans-26"/>
      <use xlink:href="#DejaVuSans-52" transform="translate(69.828125 0)"/>
      <use xlink:href="#DejaVuSans-50" transform="translate(131.015625 0)"/>
      <use xlink:href="#DejaVuSans-45" transform="translate(228.421875 0)"/>
      <use xlink:href="#DejaVuSans-4c" transform="translate(291.90625 0)"/>
      <use xlink:href="#DejaVuSans-51" transform="translate(319.6875 0)"/>
      <use xlink:href="#DejaVuSans-48" transform="translate(383.0625 0)"/>
      <use xlink:href="#DejaVuSans-47" transform="translate(444.59375 0)"/>
      <use xlink:href="#DejaVuSans-3" transform="translate(508.078125 0)"/>
      <use xlink:href="#DejaVuSans-44" transform="translate(539.859375 0)"/>
      <use xlink:href="#DejaVuSans-4a" transform="translate(601.140625 0)"/>
      <use xlink:href="#DejaVuSans-4a" transform="translate(664.625 0)"/>
      <use xlink:href="#DejaVuSans-55" transform="translate(728.109375 0)"/>
      <use xlink:href="#DejaVuSans-48" transform="translate(767.015625 0)"/>
      <use xlink:href="#DejaVuSans-4a" transform="translate(828.546875 0)"/>
      <use xlink:href="#DejaVuSans-44" transform="translate(892.03125 0)"/>
      <use xlink:href="#DejaVuSans-57" transform="translate(953.3125 0)"/>
      <use xlink:href="#DejaVuSans-4c" transform="translate(992.515625 0)"/>
      <use xlink:href="#DejaVuSans-52" transform="translate(1020.296875 0)"/>
      <use xlink:href="#DejaVuSans-51" transform="translate(1081.484375 0)"/>
      <use xlink:href="#DejaVuSans-3" transform="translate(1144.859375 0)"/>
      <use xlink:href="#DejaVuSans-56" transform="translate(1176.640625 0)"/>
      <use xlink:href="#DejaVuSans-46" transform="translate(1228.734375 0)"/>
      <use xlink:href="#DejaVuSans-52" transform="translate(1283.71875 0)"/>
      <use xlink:href="#DejaVuSans-55" transform="translate(1344.90625 0)"/>
      <use xlink:href="#DejaVuSans-48" transform="translate(1383.8125 0)"/>
     </g>
    </g>
   </g>
   <g id="patch_3">
    <path d="M 367.197027 303.731969 
L 372.558448 303.731969 
L 372.558448 23.077969 
L 367.197027 23.077969 
z
" clip-path="url(#pc301a513fb)" style="fill: #d62728; opacity: 0.4; stroke: #d62728; stroke-linejoin: miter"/>
   </g>
   <g id="patch_4">
    <path d="M 400.437838 303.731969 
L 405.799259 303.731969 
L 405.799259 23.077969 
L 400.437838 23.077969 
z
" clip-path="url(#pc301a513fb)" style="fill: #1f77b4; opacity: 0.4; stroke: #1f77b4; stroke-linejoin: miter"/>
   </g>
   <g id="line2d_12">
    <path d="M 73.391151 221.704459 
L 74.463435 259.694805 
L 75.535719 216.448575 
L 76.608003 216.448575 
L 77.680287 181.392339 
L 78.752572 150.928623 
L 79.824856 176.366081 
L 80.89714 166.696275 
L 81.969424 240.661361 
L 83.041709 206.855311 
L 84.113993 235.354449 
L 85.186277 239.309119 
L 86.258561 170.880571 
L 87.330845 147.024981 
L 88.40313 109.519401 
L 89.475414 116.433695 
L 90.547698 140.289285 
L 91.619982 166.772817 
L 92.692267 229.588285 
L 94.836835 275.207317 
L 95.909119 275.207317 
L 96.981403 251.351727 
L 98.053688 190.449809 
L 99.125972 160.445345 
L 100.198256 127.098547 
L 101.27054 142.840685 
L 102.342825 144.269469 
L 103.415109 168.125059 
L 104.487393 211.141663 
L 105.559677 245.177339 
L 106.631961 256.275929 
L 107.704246 262.935083 
L 108.77653 254.336865 
L 109.848814 254.336865 
L 110.921098 245.993787 
L 111.993383 219.102031 
L 113.065667 198.767373 
L 114.137951 196.164945 
L 115.210235 230.200621 
L 116.282519 207.365591 
L 117.354804 220.862497 
L 118.427088 200.527839 
L 119.499372 222.291281 
L 120.571656 193.894199 
L 121.643941 173.585055 
L 122.716225 165.446089 
L 123.788509 180.805517 
L 124.860793 229.945481 
L 125.933077 228.491183 
L 127.005362 236.630149 
L 128.077646 256.939293 
L 129.14993 290.974969 
L 130.222214 270.665825 
L 131.294499 246.810235 
L 132.366783 247.805281 
L 133.439067 273.701991 
L 134.511351 239.666315 
L 135.583635 213.769605 
L 136.65592 231.042583 
L 137.728204 224.128289 
L 138.800488 244.386405 
L 139.872772 218.489695 
L 140.945057 218.489695 
L 142.017341 224.077261 
L 143.089625 193.077751 
L 144.161909 193.077751 
L 145.234193 198.716345 
L 146.306478 221.576889 
L 147.378762 200.221671 
L 148.451046 186.495139 
L 149.52333 185.066355 
L 150.595615 200.221671 
L 151.667899 152.995257 
L 152.740183 100.666043 
L 153.812467 152.995257 
L 154.884751 177.105987 
L 155.957036 193.945227 
L 157.02932 180.473835 
L 159.173888 235.864729 
L 160.246173 233.262301 
L 161.318457 207.824843 
L 162.390741 200.910549 
L 163.463025 200.910549 
L 164.535309 187.413643 
L 165.607594 187.260559 
L 166.679878 174.171877 
L 167.752162 189.914015 
L 168.824446 189.684389 
L 169.896731 223.490439 
L 170.969015 202.977183 
L 172.041299 208.105497 
L 173.113583 228.414641 
L 174.185867 209.585309 
L 175.258152 211.218205 
L 176.330436 177.208043 
L 178.475004 218.055957 
L 179.547288 218.055957 
L 180.619573 211.141663 
L 181.691857 218.260069 
L 182.764141 197.976439 
L 183.836425 204.890733 
L 184.90871 201.829053 
L 185.980994 167.793377 
L 187.053278 181.290283 
L 188.125562 182.285329 
L 189.197846 189.403735 
L 190.270131 216.295491 
L 191.342415 216.295491 
L 192.414699 250.331167 
L 193.486983 236.834261 
L 194.559268 228.924921 
L 195.631552 249.259579 
L 196.703836 239.538745 
L 197.77612 187.209531 
L 198.848404 153.173855 
L 199.920689 161.542447 
L 200.992973 161.542447 
L 202.065257 180.882059 
L 203.137541 152.587033 
L 204.209826 152.587033 
L 205.28211 160.725999 
L 206.354394 162.333381 
L 207.426678 188.459717 
L 208.498962 190.373267 
L 209.571247 225.327447 
L 210.643531 253.801071 
L 211.715815 245.662105 
L 212.788099 224.408943 
L 213.860384 224.408943 
L 214.932668 227.011371 
L 216.004952 227.011371 
L 217.077236 248.264533 
L 218.14952 276.661615 
L 219.221805 269.747321 
L 220.294089 290.005437 
L 221.366373 266.149847 
L 222.438657 235.405477 
L 223.510942 237.982391 
L 224.583226 216.729229 
L 225.65551 244.896685 
L 226.727794 216.499603 
L 227.800078 237.752765 
L 228.872363 217.239509 
L 229.944647 186.469625 
L 231.016931 179.325705 
L 232.089215 159.679925 
L 233.1615 191.138687 
L 234.233784 169.885525 
L 235.306068 190.398781 
L 236.378352 190.398781 
L 237.450636 204.125313 
L 238.522921 204.125313 
L 239.595205 184.785701 
L 240.667489 186.214485 
L 241.739773 214.407455 
L 242.812058 221.321749 
L 243.884342 216.193435 
L 244.956626 202.696529 
L 246.02891 207.901385 
L 247.101194 199.532793 
L 248.173479 171.135711 
L 249.245763 190.500837 
L 250.318047 161.593475 
L 251.390331 175.090381 
L 252.462616 162.971231 
L 253.5349 181.545423 
L 254.607184 191.138687 
L 255.679468 178.356173 
L 256.751752 212.391849 
L 257.824037 198.894943 
L 258.896321 212.391849 
L 263.185458 212.391849 
L 264.257742 220.301189 
L 265.330026 214.713623 
L 266.40231 193.460461 
L 267.474595 227.496137 
L 269.619163 227.496137 
L 270.691447 247.754253 
L 272.836016 247.754253 
L 273.9083 244.692573 
L 274.980584 257.475087 
L 276.052868 251.887521 
L 277.125153 230.634359 
L 278.197437 188.077007 
L 279.269721 189.072053 
L 280.342005 166.237023 
L 281.41429 153.454509 
L 282.486574 152.459463 
L 283.558858 153.454509 
L 284.631142 201.599427 
L 285.703426 200.604381 
L 286.775711 192.465415 
L 289.992563 192.465415 
L 291.064848 205.222415 
L 292.137132 206.217461 
L 293.209416 232.700993 
L 294.2817 218.999975 
L 295.353984 225.582587 
L 296.426269 225.582587 
L 297.498553 185.908317 
L 298.570837 191.470369 
L 299.643121 164.986837 
L 300.715406 178.713369 
L 301.78769 178.713369 
L 302.859974 170.574403 
L 303.932258 210.248673 
L 305.004542 230.557817 
L 307.149111 258.954899 
L 308.221395 273.650963 
L 309.293679 252.295745 
L 310.365964 226.041839 
L 311.438248 170.650945 
L 312.510532 135.569195 
L 313.582816 133.681159 
L 314.6551 92.042311 
L 315.727385 140.340313 
L 316.799669 153.837219 
L 317.871953 196.955879 
L 318.944237 233.058189 
L 320.016522 220.301189 
L 321.088806 228.440155 
L 322.16109 222.852589 
L 323.233374 209.355683 
L 325.377943 209.355683 
L 326.450227 222.138197 
L 327.522511 200.808493 
L 328.594795 201.267745 
L 329.66708 201.038119 
L 330.739364 172.870663 
L 331.811648 178.432715 
L 332.883932 130.619479 
L 333.956216 157.511235 
L 335.028501 144.958347 
L 336.100785 158.659365 
L 337.173069 189.429249 
L 338.245353 162.537493 
L 339.317638 212.264279 
L 340.389922 210.912037 
L 341.462206 191.878593 
L 342.53449 208.207553 
L 343.606774 182.055703 
L 344.679059 220.326703 
L 345.751343 178.254117 
L 346.823627 173.023747 
L 347.895911 202.517931 
L 348.968196 174.120849 
L 350.04048 200.017559 
L 351.112764 183.969253 
L 352.185048 191.087659 
L 353.257332 212.340821 
L 354.329617 228.542211 
L 355.401901 235.533047 
L 356.474185 216.805771 
L 357.546469 211.600915 
L 358.618753 231.910059 
L 359.691038 210.656897 
L 360.763322 214.739137 
L 361.835606 184.785701 
L 362.90789 179.657387 
L 365.052459 124.776773 
L 366.124743 129.981629 
L 367.197027 83.648205 
L 368.269311 178.075519 
L 369.341596 157.970487 
L 370.41388 209.253627 
L 371.486164 216.372033 
L 372.558448 212.162223 
L 373.630733 196.113917 
L 374.703017 138.095081 
L 375.775301 168.150573 
L 376.847585 143.631619 
L 377.919869 180.244209 
L 378.992154 170.778515 
L 380.064438 163.966277 
L 381.136722 195.042329 
L 382.209006 214.841193 
L 383.281291 237.701737 
L 384.353575 221.653431 
L 385.425859 209.330169 
L 386.498143 230.583331 
L 387.570427 246.759207 
L 388.642712 197.006907 
L 389.714996 179.733929 
L 390.78728 174.529073 
L 391.859564 201.982137 
L 392.931849 180.728975 
L 394.004133 164.527585 
L 395.076417 164.527585 
L 396.148701 159.399271 
L 398.29327 103.472583 
L 399.365554 61.910277 
L 400.437838 35.834969 
L 401.510122 117.250143 
L 402.582407 87.296707 
L 403.654691 138.579847 
L 404.726975 146.769841 
L 405.799259 189.301679 
L 406.871543 187.668783 
L 407.943828 150.928623 
L 409.016112 175.600661 
L 410.088396 151.107221 
L 411.16068 182.744581 
L 412.232965 178.228603 
L 413.305249 156.975441 
L 414.377533 186.444111 
L 415.449817 173.278887 
L 416.522101 172.283841 
L 417.594386 156.235535 
L 418.66667 143.886759 
L 420.811238 177.259071 
L 421.883523 210.861009 
L 422.955807 225.429503 
L 424.028091 220.199133 
L 425.100375 247.652197 
L 427.244944 214.739137 
L 428.317228 164.986837 
L 429.389512 185.295981 
L 430.461796 156.822357 
L 431.534081 166.874873 
L 433.678649 191.266257 
L 434.750933 254.260323 
L 435.823217 207.033909 
L 436.895502 259.388637 
L 437.967786 187.974951 
L 439.04007 198.639803 
L 440.112354 205.171387 
L 441.184639 201.599427 
L 442.256923 195.093357 
L 443.329207 172.692065 
L 444.401491 223.847635 
L 445.473775 217.239509 
L 446.54606 172.564495 
L 447.618344 150.035633 
L 448.690628 182.719067 
L 449.762912 160.930111 
L 450.835197 183.790655 
L 451.907481 164.425529 
L 452.979765 167.742349 
L 454.052049 160.598429 
L 455.124333 175.141409 
L 456.196618 167.027957 
L 457.268902 151.336847 
L 458.341186 146.131991 
L 459.41347 173.585055 
L 460.485755 180.728975 
L 461.558039 168.762909 
L 462.630323 218.489695 
L 463.702607 233.185759 
L 464.774891 205.732695 
L 465.847176 232.624451 
L 466.91946 225.480531 
L 467.991744 237.446597 
L 469.064028 237.446597 
L 470.136313 195.884291 
L 471.208597 216.193435 
L 472.280881 139.141155 
L 474.425449 175.320007 
L 475.497734 159.271701 
L 476.570018 172.692065 
L 477.642302 201.089147 
L 478.714586 244.335377 
L 479.786871 246.248927 
L 480.859155 212.213251 
L 481.931439 230.838471 
L 483.003723 254.949201 
L 484.076007 233.670525 
L 485.148292 233.670525 
L 486.220576 239.309119 
L 487.29286 219.025489 
L 488.365144 166.670761 
L 489.437429 107.937533 
L 490.509713 94.032403 
L 491.581997 137.100035 
L 492.654281 116.790891 
L 493.726565 115.744817 
L 494.79885 115.744817 
L 495.871134 158.302169 
L 496.943418 133.732187 
L 498.015702 159.884037 
L 499.087987 146.183019 
L 500.160271 175.651689 
L 501.232555 210.733439 
L 503.377123 246.248927 
L 504.449408 202.084193 
L 505.521692 210.223159 
L 506.593976 214.432969 
L 507.66626 177.718323 
L 508.738545 161.032167 
L 509.810829 141.539471 
L 510.883113 158.021515 
L 511.955397 157.026469 
L 513.027681 151.158249 
L 514.099966 153.862733 
L 515.17225 176.697763 
L 516.244534 164.604127 
L 517.316818 143.248909 
L 518.389103 167.104499 
L 519.461387 153.862733 
L 520.533671 201.114661 
L 521.605955 178.713369 
L 522.678239 169.502815 
L 523.750524 191.087659 
L 524.822808 160.088149 
L 525.895092 135.467139 
L 526.967376 125.287053 
L 528.03966 147.688345 
L 529.111945 191.597939 
L 530.184229 173.329915 
L 531.256513 181.468881 
L 532.328797 194.863731 
L 533.401082 202.773071 
L 534.473366 158.608337 
L 535.54565 124.802287 
L 536.617934 174.554587 
L 537.690218 171.697019 
L 538.762503 181.928133 
L 539.834787 160.598429 
L 539.834787 160.598429 
" clip-path="url(#pc301a513fb)" style="fill: none; stroke: #000000; stroke-linecap: round"/>
   </g>
   <g id="patch_5">
    <path d="M 50.068969 303.731969 
L 50.068969 23.077969 
" style="fill: none; stroke: #cccccc; stroke-width: 1.25; stroke-linejoin: miter; stroke-linecap: square"/>
   </g>
   <g id="patch_6">
    <path d="M 50.068969 303.731969 
L 563.156969 303.731969 
" style="fill: none; stroke: #cccccc; stroke-width: 1.25; stroke-linejoin: miter; stroke-linecap: square"/>
   </g>
   <g id="text_14">
    <!-- Full-length tau aggregation-propensity profile -->
    <g style="fill: #262626" transform="translate(158.919766 17.077969) scale(0.13 -0.13)">
     <defs>
      <path id="DejaVuSans-29" d="M 628 4666 
L 3309 4666 
L 3309 4134 
L 1259 4134 
L 1259 2759 
L 3109 2759 
L 3109 2228 
L 1259 2228 
L 1259 0 
L 628 0 
L 628 4666 
z
" transform="scale(0.015625)"/>
      <path id="DejaVuSans-4f" d="M 603 4863 
L 1178 4863 
L 1178 0 
L 603 0 
L 603 4863 
z
" transform="scale(0.015625)"/>
      <path id="DejaVuSans-10" d="M 313 2009 
L 1997 2009 
L 1997 1497 
L 313 1497 
L 313 2009 
z
" transform="scale(0.015625)"/>
      <path id="DejaVuSans-4b" d="M 3513 2113 
L 3513 0 
L 2938 0 
L 2938 2094 
Q 2938 2591 2744 2837 
Q 2550 3084 2163 3084 
Q 1697 3084 1428 2787 
Q 1159 2491 1159 1978 
L 1159 0 
L 581 0 
L 581 4863 
L 1159 4863 
L 1159 2956 
Q 1366 3272 1645 3428 
Q 1925 3584 2291 3584 
Q 2894 3584 3203 3211 
Q 3513 2838 3513 2113 
z
" transform="scale(0.015625)"/>
      <path id="DejaVuSans-53" d="M 1159 525 
L 1159 -1331 
L 581 -1331 
L 581 3500 
L 1159 3500 
L 1159 2969 
Q 1341 3281 1617 3432 
Q 1894 3584 2278 3584 
Q 2916 3584 3314 3078 
Q 3713 2572 3713 1747 
Q 3713 922 3314 415 
Q 2916 -91 2278 -91 
Q 1894 -91 1617 61 
Q 1341 213 1159 525 
z
M 3116 1747 
Q 3116 2381 2855 2742 
Q 2594 3103 2138 3103 
Q 1681 3103 1420 2742 
Q 1159 2381 1159 1747 
Q 1159 1113 1420 752 
Q 1681 391 2138 391 
Q 2594 391 2855 752 
Q 3116 1113 3116 1747 
z
" transform="scale(0.015625)"/>
      <path id="DejaVuSans-5c" d="M 2059 -325 
Q 1816 -950 1584 -1140 
Q 1353 -1331 966 -1331 
L 506 -1331 
L 506 -850 
L 844 -850 
Q 1081 -850 1212 -737 
Q 1344 -625 1503 -206 
L 1606 56 
L 191 3500 
L 800 3500 
L 1894 763 
L 2988 3500 
L 3597 3500 
L 2059 -325 
z
" transform="scale(0.015625)"/>
      <path id="DejaVuSans-13af" d="M 3431 3500 
L 3431 0 
L 2853 0 
L 2853 3053 
L 1275 3053 
L 1275 0 
L 697 0 
L 697 3053 
L 147 3053 
L 147 3500 
L 697 3500 
L 697 3744 
Q 697 4316 967 4589 
Q 1238 4863 1797 4863 
L 2375 4863 
L 2375 4384 
L 1825 4384 
Q 1516 4384 1395 4259 
Q 1275 4134 1275 3809 
L 1275 3500 
L 3431 3500 
z
M 2853 4856 
L 3431 4856 
L 3431 4128 
L 2853 4128 
L 2853 4856 
z
" transform="scale(0.015625)"/>
     </defs>
     <use xlink:href="#DejaVuSans-29"/>
     <use xlink:href="#DejaVuSans-58" transform="translate(52.046875 0)"/>
     <use xlink:href="#DejaVuSans-4f" transform="translate(115.421875 0)"/>
     <use xlink:href="#DejaVuSans-4f" transform="translate(143.203125 0)"/>
     <use xlink:href="#DejaVuSans-10" transform="translate(170.984375 0)"/>
     <use xlink:href="#DejaVuSans-4f" transform="translate(207.0625 0)"/>
     <use xlink:href="#DejaVuSans-48" transform="translate(234.84375 0)"/>
     <use xlink:href="#DejaVuSans-51" transform="translate(296.375 0)"/>
     <use xlink:href="#DejaVuSans-4a" transform="translate(359.75 0)"/>
     <use xlink:href="#DejaVuSans-57" transform="translate(423.234375 0)"/>
     <use xlink:href="#DejaVuSans-4b" transform="translate(462.4375 0)"/>
     <use xlink:href="#DejaVuSans-3" transform="translate(525.8125 0)"/>
     <use xlink:href="#DejaVuSans-57" transform="translate(557.59375 0)"/>
     <use xlink:href="#DejaVuSans-44" transform="translate(596.796875 0)"/>
     <use xlink:href="#DejaVuSans-58" transform="translate(658.078125 0)"/>
     <use xlink:href="#DejaVuSans-3" transform="translate(721.453125 0)"/>
     <use xlink:href="#DejaVuSans-44" transform="translate(753.234375 0)"/>
     <use xlink:href="#DejaVuSans-4a" transform="translate(814.515625 0)"/>
     <use xlink:href="#DejaVuSans-4a" transform="translate(878 0)"/>
     <use xlink:href="#DejaVuSans-55" transform="translate(941.484375 0)"/>
     <use xlink:href="#DejaVuSans-48" transform="translate(980.390625 0)"/>
     <use xlink:href="#DejaVuSans-4a" transform="translate(1041.921875 0)"/>
     <use xlink:href="#DejaVuSans-44" transform="translate(1105.40625 0)"/>
     <use xlink:href="#DejaVuSans-57" transform="translate(1166.6875 0)"/>
     <use xlink:href="#DejaVuSans-4c" transform="translate(1205.890625 0)"/>
     <use xlink:href="#DejaVuSans-52" transform="translate(1233.671875 0)"/>
     <use xlink:href="#DejaVuSans-51" transform="translate(1294.859375 0)"/>
     <use xlink:href="#DejaVuSans-10" transform="translate(1358.234375 0)"/>
     <use xlink:href="#DejaVuSans-53" transform="translate(1394.3125 0)"/>
     <use xlink:href="#DejaVuSans-55" transform="translate(1457.796875 0)"/>
     <use xlink:href="#DejaVuSans-52" transform="translate(1496.703125 0)"/>
     <use xlink:href="#DejaVuSans-53" transform="translate(1557.890625 0)"/>
     <use xlink:href="#DejaVuSans-48" transform="translate(1621.375 0)"/>
     <use xlink:href="#DejaVuSans-51" transform="translate(1682.90625 0)"/>
     <use xlink:href="#DejaVuSans-56" transform="translate(1746.28125 0)"/>
     <use xlink:href="#DejaVuSans-4c" transform="translate(1798.375 0)"/>
     <use xlink:href="#DejaVuSans-57" transform="translate(1826.15625 0)"/>
     <use xlink:href="#DejaVuSans-5c" transform="translate(1865.359375 0)"/>
     <use xlink:href="#DejaVuSans-3" transform="translate(1924.546875 0)"/>
     <use xlink:href="#DejaVuSans-53" transform="translate(1956.328125 0)"/>
     <use xlink:href="#DejaVuSans-55" transform="translate(2019.8125 0)"/>
     <use xlink:href="#DejaVuSans-52" transform="translate(2058.71875 0)"/>
     <use xlink:href="#DejaVuSans-13af" transform="translate(2119.90625 0)"/>
     <use xlink:href="#DejaVuSans-4f" transform="translate(2182.890625 0)"/>
     <use xlink:href="#DejaVuSans-48" transform="translate(2210.671875 0)"/>
    </g>
   </g>
   <g id="legend_1">
    <g id="patch_7">
     <path d="M 482.694977 66.969773 
L 555.071969 66.969773 
Q 557.381969 66.969773 557.381969 64.659773 
L 557.381969 31.162969 
Q 557.381969 28.852969 555.071969 28.852969 
L 482.694977 28.852969 
Q 480.384977 28.852969 480.384977 31.162969 
L 480.384977 64.659773 
Q 480.384977 66.969773 482.694977 66.969773 
z
" style="fill: #ffffff; opacity: 0.8; stroke: #cccccc; stroke-linejoin: miter"/>
    </g>
    <g id="patch_8">
     <path d="M 485.004977 42.249164 
L 508.104977 42.249164 
L 508.104977 34.164164 
L 485.004977 34.164164 
z
" style="fill: #d62728; opacity: 0.4; stroke: #d62728; stroke-linejoin: miter"/>
    </g>
    <g id="text_15">
     <!-- PHF6* -->
     <g style="fill: #262626" transform="translate(517.344977 42.249164) scale(0.1155 -0.1155)">
      <defs>
       <path id="DejaVuSans-33" d="M 1259 4147 
L 1259 2394 
L 2053 2394 
Q 2494 2394 2734 2622 
Q 2975 2850 2975 3272 
Q 2975 3691 2734 3919 
Q 2494 4147 2053 4147 
L 1259 4147 
z
M 628 4666 
L 2053 4666 
Q 2838 4666 3239 4311 
Q 3641 3956 3641 3272 
Q 3641 2581 3239 2228 
Q 2838 1875 2053 1875 
L 1259 1875 
L 1259 0 
L 628 0 
L 628 4666 
z
" transform="scale(0.015625)"/>
       <path id="DejaVuSans-2b" d="M 628 4666 
L 1259 4666 
L 1259 2753 
L 3553 2753 
L 3553 4666 
L 4184 4666 
L 4184 0 
L 3553 0 
L 3553 2222 
L 1259 2222 
L 1259 0 
L 628 0 
L 628 4666 
z
" transform="scale(0.015625)"/>
       <path id="DejaVuSans-d" d="M 3009 3897 
L 1888 3291 
L 3009 2681 
L 2828 2375 
L 1778 3009 
L 1778 1831 
L 1422 1831 
L 1422 3009 
L 372 2375 
L 191 2681 
L 1313 3291 
L 191 3897 
L 372 4206 
L 1422 3572 
L 1422 4750 
L 1778 4750 
L 1778 3572 
L 2828 4206 
L 3009 3897 
z
" transform="scale(0.015625)"/>
      </defs>
      <use xlink:href="#DejaVuSans-33"/>
      <use xlink:href="#DejaVuSans-2b" transform="translate(60.296875 0)"/>
      <use xlink:href="#DejaVuSans-29" transform="translate(135.5 0)"/>
      <use xlink:href="#DejaVuSans-19" transform="translate(193.015625 0)"/>
      <use xlink:href="#DejaVuSans-d" transform="translate(256.640625 0)"/>
     </g>
    </g>
    <g id="patch_9">
     <path d="M 485.004977 59.575066 
L 508.104977 59.575066 
L 508.104977 51.490066 
L 485.004977 51.490066 
z
" style="fill: #1f77b4; opacity: 0.4; stroke: #1f77b4; stroke-linejoin: miter"/>
    </g>
    <g id="text_16">
     <!-- PHF6 -->
     <g style="fill: #262626" transform="translate(517.344977 59.575066) scale(0.1155 -0.1155)">
      <use xlink:href="#DejaVuSans-33"/>
      <use xlink:href="#DejaVuSans-2b" transform="translate(60.296875 0)"/>
      <use xlink:href="#DejaVuSans-29" transform="translate(135.5 0)"/>
      <use xlink:href="#DejaVuSans-19" transform="translate(193.015625 0)"/>
     </g>
    </g>
   </g>
  </g>
  <g id="axes_2">
   <g id="patch_10">
    <path d="M 619.264969 303.731969 
L 1132.352969 303.731969 
L 1132.352969 23.077969 
L 619.264969 23.077969 
z
" style="fill: #ffffff"/>
   </g>
   <g id="matplotlib.axis_3">
    <g id="xtick_6">
     <g id="line2d_13">
      <path d="M 642.587151 303.731969 
L 642.587151 23.077969 
" clip-path="url(#p7087148ba6)" style="fill: none; stroke: #cccccc; stroke-linecap: round"/>
     </g>
     <g id="text_17">
      <!-- 0.0 -->
      <g style="fill: #262626" transform="translate(633.403096 322.007262) scale(0.1155 -0.1155)">
       <use xlink:href="#DejaVuSans-13"/>
       <use xlink:href="#DejaVuSans-11" transform="translate(63.625 0)"/>
       <use xlink:href="#DejaVuSans-13" transform="translate(95.40625 0)"/>
      </g>
     </g>
    </g>
    <g id="xtick_7">
     <g id="line2d_14">
      <path d="M 735.875878 303.731969 
L 735.875878 23.077969 
" clip-path="url(#p7087148ba6)" style="fill: none; stroke: #cccccc; stroke-linecap: round"/>
     </g>
     <g id="text_18">
      <!-- 0.2 -->
      <g style="fill: #262626" transform="translate(726.691823 322.007262) scale(0.1155 -0.1155)">
       <use xlink:href="#DejaVuSans-13"/>
       <use xlink:href="#DejaVuSans-11" transform="translate(63.625 0)"/>
       <use xlink:href="#DejaVuSans-15" transform="translate(95.40625 0)"/>
      </g>
     </g>
    </g>
    <g id="xtick_8">
     <g id="line2d_15">
      <path d="M 829.164605 303.731969 
L 829.164605 23.077969 
" clip-path="url(#p7087148ba6)" style="fill: none; stroke: #cccccc; stroke-linecap: round"/>
     </g>
     <g id="text_19">
      <!-- 0.4 -->
      <g style="fill: #262626" transform="translate(819.98055 322.007262) scale(0.1155 -0.1155)">
       <use xlink:href="#DejaVuSans-13"/>
       <use xlink:href="#DejaVuSans-11" transform="translate(63.625 0)"/>
       <use xlink:href="#DejaVuSans-17" transform="translate(95.40625 0)"/>
      </g>
     </g>
    </g>
    <g id="xtick_9">
     <g id="line2d_16">
      <path d="M 922.453332 303.731969 
L 922.453332 23.077969 
" clip-path="url(#p7087148ba6)" style="fill: none; stroke: #cccccc; stroke-linecap: round"/>
     </g>
     <g id="text_20">
      <!-- 0.6 -->
      <g style="fill: #262626" transform="translate(913.269278 322.007262) scale(0.1155 -0.1155)">
       <use xlink:href="#DejaVuSans-13"/>
       <use xlink:href="#DejaVuSans-11" transform="translate(63.625 0)"/>
       <use xlink:href="#DejaVuSans-19" transform="translate(95.40625 0)"/>
      </g>
     </g>
    </g>
    <g id="xtick_10">
     <g id="line2d_17">
      <path d="M 1015.74206 303.731969 
L 1015.74206 23.077969 
" clip-path="url(#p7087148ba6)" style="fill: none; stroke: #cccccc; stroke-linecap: round"/>
     </g>
     <g id="text_21">
      <!-- 0.8 -->
      <g style="fill: #262626" transform="translate(1006.558005 322.007262) scale(0.1155 -0.1155)">
       <use xlink:href="#DejaVuSans-13"/>
       <use xlink:href="#DejaVuSans-11" transform="translate(63.625 0)"/>
       <use xlink:href="#DejaVuSans-1b" transform="translate(95.40625 0)"/>
      </g>
     </g>
    </g>
    <g id="xtick_11">
     <g id="line2d_18">
      <path d="M 1109.030787 303.731969 
L 1109.030787 23.077969 
" clip-path="url(#p7087148ba6)" style="fill: none; stroke: #cccccc; stroke-linecap: round"/>
     </g>
     <g id="text_22">
      <!-- 1.0 -->
      <g style="fill: #262626" transform="translate(1099.846732 322.007262) scale(0.1155 -0.1155)">
       <use xlink:href="#DejaVuSans-14"/>
       <use xlink:href="#DejaVuSans-11" transform="translate(63.625 0)"/>
       <use xlink:href="#DejaVuSans-13" transform="translate(95.40625 0)"/>
      </g>
     </g>
    </g>
    <g id="text_23">
     <!-- False positive rate -->
     <g style="fill: #262626" transform="translate(825.760688 337.14025) scale(0.11 -0.11)">
      <defs>
       <path id="DejaVuSans-59" d="M 191 3500 
L 800 3500 
L 1894 563 
L 2988 3500 
L 3597 3500 
L 2284 0 
L 1503 0 
L 191 3500 
z
" transform="scale(0.015625)"/>
      </defs>
      <use xlink:href="#DejaVuSans-29"/>
      <use xlink:href="#DejaVuSans-44" transform="translate(48.34375 0)"/>
      <use xlink:href="#DejaVuSans-4f" transform="translate(109.625 0)"/>
      <use xlink:href="#DejaVuSans-56" transform="translate(137.40625 0)"/>
      <use xlink:href="#DejaVuSans-48" transform="translate(189.5 0)"/>
      <use xlink:href="#DejaVuSans-3" transform="translate(251.03125 0)"/>
      <use xlink:href="#DejaVuSans-53" transform="translate(282.8125 0)"/>
      <use xlink:href="#DejaVuSans-52" transform="translate(346.296875 0)"/>
      <use xlink:href="#DejaVuSans-56" transform="translate(407.484375 0)"/>
      <use xlink:href="#DejaVuSans-4c" transform="translate(459.578125 0)"/>
      <use xlink:href="#DejaVuSans-57" transform="translate(487.359375 0)"/>
      <use xlink:href="#DejaVuSans-4c" transform="translate(526.5625 0)"/>
      <use xlink:href="#DejaVuSans-59" transform="translate(554.34375 0)"/>
      <use xlink:href="#DejaVuSans-48" transform="translate(613.53125 0)"/>
      <use xlink:href="#DejaVuSans-3" transform="translate(675.0625 0)"/>
      <use xlink:href="#DejaVuSans-55" transform="translate(706.84375 0)"/>
      <use xlink:href="#DejaVuSans-44" transform="translate(747.953125 0)"/>
      <use xlink:href="#DejaVuSans-57" transform="translate(809.234375 0)"/>
      <use xlink:href="#DejaVuSans-48" transform="translate(848.4375 0)"/>
     </g>
    </g>
   </g>
   <g id="matplotlib.axis_4">
    <g id="ytick_7">
     <g id="line2d_19">
      <path d="M 619.264969 290.974969 
L 1132.352969 290.974969 
" clip-path="url(#p7087148ba6)" style="fill: none; stroke: #cccccc; stroke-linecap: round"/>
     </g>
     <g id="text_24">
      <!-- 0.0 -->
      <g style="fill: #262626" transform="translate(591.396859 295.362615) scale(0.1155 -0.1155)">
       <use xlink:href="#DejaVuSans-13"/>
       <use xlink:href="#DejaVuSans-11" transform="translate(63.625 0)"/>
       <use xlink:href="#DejaVuSans-13" transform="translate(95.40625 0)"/>
      </g>
     </g>
    </g>
    <g id="ytick_8">
     <g id="line2d_20">
      <path d="M 619.264969 239.946969 
L 1132.352969 239.946969 
" clip-path="url(#p7087148ba6)" style="fill: none; stroke: #cccccc; stroke-linecap: round"/>
     </g>
     <g id="text_25">
      <!-- 0.2 -->
      <g style="fill: #262626" transform="translate(591.396859 244.334615) scale(0.1155 -0.1155)">
       <use xlink:href="#DejaVuSans-13"/>
       <use xlink:href="#DejaVuSans-11" transform="translate(63.625 0)"/>
       <use xlink:href="#DejaVuSans-15" transform="translate(95.40625 0)"/>
      </g>
     </g>
    </g>
    <g id="ytick_9">
     <g id="line2d_21">
      <path d="M 619.264969 188.918969 
L 1132.352969 188.918969 
" clip-path="url(#p7087148ba6)" style="fill: none; stroke: #cccccc; stroke-linecap: round"/>
     </g>
     <g id="text_26">
      <!-- 0.4 -->
      <g style="fill: #262626" transform="translate(591.396859 193.306615) scale(0.1155 -0.1155)">
       <use xlink:href="#DejaVuSans-13"/>
       <use xlink:href="#DejaVuSans-11" transform="translate(63.625 0)"/>
       <use xlink:href="#DejaVuSans-17" transform="translate(95.40625 0)"/>
      </g>
     </g>
    </g>
    <g id="ytick_10">
     <g id="line2d_22">
      <path d="M 619.264969 137.890969 
L 1132.352969 137.890969 
" clip-path="url(#p7087148ba6)" style="fill: none; stroke: #cccccc; stroke-linecap: round"/>
     </g>
     <g id="text_27">
      <!-- 0.6 -->
      <g style="fill: #262626" transform="translate(591.396859 142.278615) scale(0.1155 -0.1155)">
       <use xlink:href="#DejaVuSans-13"/>
       <use xlink:href="#DejaVuSans-11" transform="translate(63.625 0)"/>
       <use xlink:href="#DejaVuSans-19" transform="translate(95.40625 0)"/>
      </g>
     </g>
    </g>
    <g id="ytick_11">
     <g id="line2d_23">
      <path d="M 619.264969 86.862969 
L 1132.352969 86.862969 
" clip-path="url(#p7087148ba6)" style="fill: none; stroke: #cccccc; stroke-linecap: round"/>
     </g>
     <g id="text_28">
      <!-- 0.8 -->
      <g style="fill: #262626" transform="translate(591.396859 91.250615) scale(0.1155 -0.1155)">
       <use xlink:href="#DejaVuSans-13"/>
       <use xlink:href="#DejaVuSans-11" transform="translate(63.625 0)"/>
       <use xlink:href="#DejaVuSans-1b" transform="translate(95.40625 0)"/>
      </g>
     </g>
    </g>
    <g id="ytick_12">
     <g id="line2d_24">
      <path d="M 619.264969 35.834969 
L 1132.352969 35.834969 
" clip-path="url(#p7087148ba6)" style="fill: none; stroke: #cccccc; stroke-linecap: round"/>
     </g>
     <g id="text_29">
      <!-- 1.0 -->
      <g style="fill: #262626" transform="translate(591.396859 40.222615) scale(0.1155 -0.1155)">
       <use xlink:href="#DejaVuSans-14"/>
       <use xlink:href="#DejaVuSans-11" transform="translate(63.625 0)"/>
       <use xlink:href="#DejaVuSans-13" transform="translate(95.40625 0)"/>
      </g>
     </g>
    </g>
    <g id="text_30">
     <!-- True positive rate -->
     <g style="fill: #262626" transform="translate(584.754281 211.328016) rotate(-90) scale(0.11 -0.11)">
      <use xlink:href="#DejaVuSans-37"/>
      <use xlink:href="#DejaVuSans-55" transform="translate(46.375 0)"/>
      <use xlink:href="#DejaVuSans-58" transform="translate(87.484375 0)"/>
      <use xlink:href="#DejaVuSans-48" transform="translate(150.859375 0)"/>
      <use xlink:href="#DejaVuSans-3" transform="translate(212.390625 0)"/>
      <use xlink:href="#DejaVuSans-53" transform="translate(244.171875 0)"/>
      <use xlink:href="#DejaVuSans-52" transform="translate(307.65625 0)"/>
      <use xlink:href="#DejaVuSans-56" transform="translate(368.84375 0)"/>
      <use xlink:href="#DejaVuSans-4c" transform="translate(420.9375 0)"/>
      <use xlink:href="#DejaVuSans-57" transform="translate(448.71875 0)"/>
      <use xlink:href="#DejaVuSans-4c" transform="translate(487.921875 0)"/>
      <use xlink:href="#DejaVuSans-59" transform="translate(515.703125 0)"/>
      <use xlink:href="#DejaVuSans-48" transform="translate(574.890625 0)"/>
      <use xlink:href="#DejaVuSans-3" transform="translate(636.421875 0)"/>
      <use xlink:href="#DejaVuSans-55" transform="translate(668.203125 0)"/>
      <use xlink:href="#DejaVuSans-44" transform="translate(709.3125 0)"/>
      <use xlink:href="#DejaVuSans-57" transform="translate(770.59375 0)"/>
      <use xlink:href="#DejaVuSans-48" transform="translate(809.796875 0)"/>
     </g>
    </g>
   </g>
   <g id="line2d_25">
    <path d="M 642.587151 290.974969 
L 642.587151 279.377696 
L 642.587151 244.585878 
L 645.967177 244.585878 
L 645.967177 232.988605 
L 648.220528 232.988605 
L 650.473879 232.988605 
L 652.72723 232.988605 
L 652.72723 209.79406 
L 656.107256 209.79406 
L 656.107256 198.196787 
L 657.233931 198.196787 
L 657.233931 186.599514 
L 663.993984 186.599514 
L 663.993984 175.002241 
L 677.51409 175.002241 
L 677.51409 163.404969 
L 680.894116 163.404969 
L 683.147467 163.404969 
L 686.527493 163.404969 
L 686.527493 151.807696 
L 687.654169 151.807696 
L 692.16087 151.807696 
L 693.287546 151.807696 
L 695.540897 151.807696 
L 696.667572 151.807696 
L 698.920923 151.807696 
L 705.680976 151.807696 
L 705.680976 140.210423 
L 711.314353 140.210423 
L 711.314353 128.613151 
L 715.821055 128.613151 
L 718.074406 128.613151 
L 722.581108 128.613151 
L 724.834458 128.613151 
L 731.594511 128.613151 
L 732.721187 117.015878 
L 733.847862 117.015878 
L 736.101213 117.015878 
L 762.014748 117.015878 
L 764.268099 117.015878 
L 768.774801 117.015878 
L 771.028152 117.015878 
L 787.928284 117.015878 
L 787.928284 105.418605 
L 792.434985 105.418605 
L 795.815012 105.418605 
L 798.068363 105.418605 
L 798.068363 93.821332 
L 801.448389 93.821332 
L 803.70174 93.821332 
L 818.348521 93.821332 
L 819.475196 82.22406 
L 836.375328 82.22406 
L 836.375328 70.626787 
L 842.008705 70.626787 
L 844.262056 70.626787 
L 846.515407 70.626787 
L 851.022109 70.626787 
L 855.528811 70.626787 
L 860.035512 70.626787 
L 862.288863 70.626787 
L 883.695697 70.626787 
L 885.949048 70.626787 
L 889.329074 70.626787 
L 891.582425 70.626787 
L 896.089127 70.626787 
L 898.342478 70.626787 
L 906.229206 70.626787 
L 908.482557 70.626787 
L 916.369285 70.626787 
L 918.622636 70.626787 
L 923.129338 70.626787 
L 923.129338 59.029514 
L 924.256013 59.029514 
L 927.636039 59.029514 
L 935.522768 59.029514 
L 937.776119 59.029514 
L 940.029469 59.029514 
L 940.029469 47.432241 
L 943.409496 47.432241 
L 950.169548 47.432241 
L 954.67625 47.432241 
L 956.929601 47.432241 
L 958.056277 47.432241 
L 962.562978 47.432241 
L 962.562978 35.834969 
L 964.816329 35.834969 
L 968.196356 35.834969 
L 972.703057 35.834969 
L 973.829733 35.834969 
L 977.209759 35.834969 
L 981.716461 35.834969 
L 983.969812 35.834969 
L 998.616593 35.834969 
L 1000.869944 35.834969 
L 1004.24997 35.834969 
L 1006.503321 35.834969 
L 1007.629996 35.834969 
L 1009.883347 35.834969 
L 1013.263374 35.834969 
L 1036.923558 35.834969 
L 1039.176909 35.834969 
L 1045.936962 35.834969 
L 1048.190313 35.834969 
L 1051.570339 35.834969 
L 1053.82369 35.834969 
L 1066.21712 35.834969 
L 1068.470471 35.834969 
L 1071.850497 35.834969 
L 1075.230523 35.834969 
L 1086.497278 35.834969 
L 1088.750629 35.834969 
L 1103.39741 35.834969 
L 1105.650761 35.834969 
L 1109.030787 35.834969 
" clip-path="url(#p7087148ba6)" style="fill: none; stroke: #0173b2; stroke-width: 2; stroke-linecap: round"/>
   </g>
   <g id="line2d_26">
    <path d="M 642.587151 290.974969 
L 1109.030787 35.834969 
" clip-path="url(#p7087148ba6)" style="fill: none; stroke-dasharray: 3.7,1.6; stroke-dashoffset: 0; stroke: #1a1a1a; stroke-opacity: 0.5"/>
   </g>
   <g id="patch_11">
    <path d="M 619.264969 303.731969 
L 619.264969 23.077969 
" style="fill: none; stroke: #cccccc; stroke-width: 1.25; stroke-linejoin: miter; stroke-linecap: square"/>
   </g>
   <g id="patch_12">
    <path d="M 619.264969 303.731969 
L 1132.352969 303.731969 
" style="fill: none; stroke: #cccccc; stroke-width: 1.25; stroke-linejoin: miter; stroke-linecap: square"/>
   </g>
   <g id="text_31">
    <!-- Aggregation predictor benchmark -->
    <g style="fill: #262626" transform="translate(765.841156 17.077969) scale(0.13 -0.13)">
     <defs>
      <path id="DejaVuSans-24" d="M 2188 4044 
L 1331 1722 
L 3047 1722 
L 2188 4044 
z
M 1831 4666 
L 2547 4666 
L 4325 0 
L 3669 0 
L 3244 1197 
L 1141 1197 
L 716 0 
L 50 0 
L 1831 4666 
z
" transform="scale(0.015625)"/>
      <path id="DejaVuSans-4e" d="M 581 4863 
L 1159 4863 
L 1159 1991 
L 2875 3500 
L 3609 3500 
L 1753 1863 
L 3688 0 
L 2938 0 
L 1159 1709 
L 1159 0 
L 581 0 
L 581 4863 
z
" transform="scale(0.015625)"/>
     </defs>
     <use xlink:href="#DejaVuSans-24"/>
     <use xlink:href="#DejaVuSans-4a" transform="translate(68.40625 0)"/>
     <use xlink:href="#DejaVuSans-4a" transform="translate(131.890625 0)"/>
     <use xlink:href="#DejaVuSans-55" transform="translate(195.375 0)"/>
     <use xlink:href="#DejaVuSans-48" transform="translate(234.28125 0)"/>
     <use xlink:href="#DejaVuSans-4a" transform="translate(295.8125 0)"/>
     <use xlink:href="#DejaVuSans-44" transform="translate(359.296875 0)"/>
     <use xlink:href="#DejaVuSans-57" transform="translate(420.578125 0)"/>
     <use xlink:href="#DejaVuSans-4c" transform="translate(459.78125 0)"/>
     <use xlink:href="#DejaVuSans-52" transform="translate(487.5625 0)"/>
     <use xlink:href="#DejaVuSans-51" transform="translate(548.75 0)"/>
     <use xlink:href="#DejaVuSans-3" transform="translate(612.125 0)"/>
     <use xlink:href="#DejaVuSans-53" transform="translate(643.90625 0)"/>
     <use xlink:href="#DejaVuSans-55" transform="translate(707.390625 0)"/>
     <use xlink:href="#DejaVuSans-48" transform="translate(746.296875 0)"/>
     <use xlink:href="#DejaVuSans-47" transform="translate(807.828125 0)"/>
     <use xlink:href="#DejaVuSans-4c" transform="translate(871.3125 0)"/>
     <use xlink:href="#DejaVuSans-46" transform="translate(899.09375 0)"/>
     <use xlink:href="#DejaVuSans-57" transform="translate(954.078125 0)"/>
     <use xlink:href="#DejaVuSans-52" transform="translate(993.28125 0)"/>
     <use xlink:href="#DejaVuSans-55" transform="translate(1054.46875 0)"/>
     <use xlink:href="#DejaVuSans-3" transform="translate(1095.578125 0)"/>
     <use xlink:href="#DejaVuSans-45" transform="translate(1127.359375 0)"/>
     <use xlink:href="#DejaVuSans-48" transform="translate(1190.84375 0)"/>
     <use xlink:href="#DejaVuSans-51" transform="translate(1252.375 0)"/>
     <use xlink:href="#DejaVuSans-46" transform="translate(1315.75 0)"/>
     <use xlink:href="#DejaVuSans-4b" transform="translate(1370.734375 0)"/>
     <use xlink:href="#DejaVuSans-50" transform="translate(1434.109375 0)"/>
     <use xlink:href="#DejaVuSans-44" transform="translate(1531.515625 0)"/>
     <use xlink:href="#DejaVuSans-55" transform="translate(1592.796875 0)"/>
     <use xlink:href="#DejaVuSans-4e" transform="translate(1633.90625 0)"/>
    </g>
   </g>
   <g id="legend_2">
    <g id="patch_13">
     <path d="M 627.349969 49.643871 
L 776.687859 49.643871 
Q 778.997859 49.643871 778.997859 47.333871 
L 778.997859 31.162969 
Q 778.997859 28.852969 776.687859 28.852969 
L 627.349969 28.852969 
Q 625.039969 28.852969 625.039969 31.162969 
L 625.039969 47.333871 
Q 625.039969 49.643871 627.349969 49.643871 
z
" style="fill: #ffffff; opacity: 0.8; stroke: #cccccc; stroke-linejoin: miter"/>
    </g>
    <g id="line2d_27">
     <path d="M 629.659969 38.206664 
L 641.209969 38.206664 
L 652.759969 38.206664 
" style="fill: none; stroke: #0173b2; stroke-width: 2; stroke-linecap: round"/>
    </g>
    <g id="text_32">
     <!-- ROC (AUC=0.8107) -->
     <g style="fill: #262626" transform="translate(661.999969 42.249164) scale(0.1155 -0.1155)">
      <defs>
       <path id="DejaVuSans-35" d="M 2841 2188 
Q 3044 2119 3236 1894 
Q 3428 1669 3622 1275 
L 4263 0 
L 3584 0 
L 2988 1197 
Q 2756 1666 2539 1819 
Q 2322 1972 1947 1972 
L 1259 1972 
L 1259 0 
L 628 0 
L 628 4666 
L 2053 4666 
Q 2853 4666 3247 4331 
Q 3641 3997 3641 3322 
Q 3641 2881 3436 2590 
Q 3231 2300 2841 2188 
z
M 1259 4147 
L 1259 2491 
L 2053 2491 
Q 2509 2491 2742 2702 
Q 2975 2913 2975 3322 
Q 2975 3731 2742 3939 
Q 2509 4147 2053 4147 
L 1259 4147 
z
" transform="scale(0.015625)"/>
       <path id="DejaVuSans-32" d="M 2522 4238 
Q 1834 4238 1429 3725 
Q 1025 3213 1025 2328 
Q 1025 1447 1429 934 
Q 1834 422 2522 422 
Q 3209 422 3611 934 
Q 4013 1447 4013 2328 
Q 4013 3213 3611 3725 
Q 3209 4238 2522 4238 
z
M 2522 4750 
Q 3503 4750 4090 4092 
Q 4678 3434 4678 2328 
Q 4678 1225 4090 567 
Q 3503 -91 2522 -91 
Q 1538 -91 948 565 
Q 359 1222 359 2328 
Q 359 3434 948 4092 
Q 1538 4750 2522 4750 
z
" transform="scale(0.015625)"/>
       <path id="DejaVuSans-b" d="M 1984 4856 
Q 1566 4138 1362 3434 
Q 1159 2731 1159 2009 
Q 1159 1288 1364 580 
Q 1569 -128 1984 -844 
L 1484 -844 
Q 1016 -109 783 600 
Q 550 1309 550 2009 
Q 550 2706 781 3412 
Q 1013 4119 1484 4856 
L 1984 4856 
z
" transform="scale(0.015625)"/>
       <path id="DejaVuSans-38" d="M 556 4666 
L 1191 4666 
L 1191 1831 
Q 1191 1081 1462 751 
Q 1734 422 2344 422 
Q 2950 422 3222 751 
Q 3494 1081 3494 1831 
L 3494 4666 
L 4128 4666 
L 4128 1753 
Q 4128 841 3676 375 
Q 3225 -91 2344 -91 
Q 1459 -91 1007 375 
Q 556 841 556 1753 
L 556 4666 
z
" transform="scale(0.015625)"/>
       <path id="DejaVuSans-20" d="M 678 2906 
L 4684 2906 
L 4684 2381 
L 678 2381 
L 678 2906 
z
M 678 1631 
L 4684 1631 
L 4684 1100 
L 678 1100 
L 678 1631 
z
" transform="scale(0.015625)"/>
       <path id="DejaVuSans-1a" d="M 525 4666 
L 3525 4666 
L 3525 4397 
L 1831 0 
L 1172 0 
L 2766 4134 
L 525 4134 
L 525 4666 
z
" transform="scale(0.015625)"/>
       <path id="DejaVuSans-c" d="M 513 4856 
L 1013 4856 
Q 1481 4119 1714 3412 
Q 1947 2706 1947 2009 
Q 1947 1309 1714 600 
Q 1481 -109 1013 -844 
L 513 -844 
Q 928 -128 1133 580 
Q 1338 1288 1338 2009 
Q 1338 2731 1133 3434 
Q 928 4138 513 4856 
z
" transform="scale(0.015625)"/>
      </defs>
      <use xlink:href="#DejaVuSans-35"/>
      <use xlink:href="#DejaVuSans-32" transform="translate(69.484375 0)"/>
      <use xlink:href="#DejaVuSans-26" transform="translate(148.203125 0)"/>
      <use xlink:href="#DejaVuSans-3" transform="translate(218.03125 0)"/>
      <use xlink:href="#DejaVuSans-b" transform="translate(249.8125 0)"/>
      <use xlink:href="#DejaVuSans-24" transform="translate(288.828125 0)"/>
      <use xlink:href="#DejaVuSans-38" transform="translate(357.234375 0)"/>
      <use xlink:href="#DejaVuSans-26" transform="translate(430.421875 0)"/>
      <use xlink:href="#DejaVuSans-20" transform="translate(500.25 0)"/>
      <use xlink:href="#DejaVuSans-13" transform="translate(584.046875 0)"/>
      <use xlink:href="#DejaVuSans-11" transform="translate(647.671875 0)"/>
      <use xlink:href="#DejaVuSans-1b" transform="translate(679.453125 0)"/>
      <use xlink:href="#DejaVuSans-14" transform="translate(743.078125 0)"/>
      <use xlink:href="#DejaVuSans-13" transform="translate(806.703125 0)"/>
      <use xlink:href="#DejaVuSans-1a" transform="translate(870.328125 0)"/>
      <use xlink:href="#DejaVuSans-c" transform="translate(933.953125 0)"/>
     </g>
    </g>
   </g>
  </g>
 </g>
 <defs>
  <clipPath id="pc301a513fb">
   <rect x="50.068969" y="23.077969" width="513.088" height="280.654"/>
  </clipPath>
  <clipPath id="p7087148ba6">
   <rect x="619.264969" y="23.077969" width="513.088" height="280.654"/>
  </clipPath>
 </defs>
</svg>
