<?xml version="1.0" encoding="utf-8" standalone="no"?>
<!DOCTYPE svg PUBLIC "-//W3C//DTD SVG 1.1//EN"
  "http://www.w3.org/Graphics/SVG/1.1/DTD/svg11.dtd">
<svg xmlns:xlink="http://www.w3.org/1999/xlink" width="995.552969pt" height="274.982828pt" viewBox="0 0 995.552969 274.982828" xmlns="http://www.w3.org/2000/svg" version="1.1">
 <metadata>
  <rdf:RDF xmlns:dc="http://purl.org/dc/elements/1.1/" xmlns:cc="http://creativecommons.org/ns#" xmlns:rdf="http://www.w3.org/1999/02/22-rdf-syntax-ns#">
   <cc:Work>
    <dc:type rdf:resource="http://purl.org/dc/dcmitype/StillImage"/>
    <dc:date>2026-07-18T16:00:22.759623</dc:date>
    <dc:format>image/svg+xml</dc:format>
    <dc:creator>
     <cc:Agent>
      <dc:title>Matplotlib v3.11.1, https://matplotlib.org/</dc:title>
     </cc:Agent>
    </dc:creator>
   </cc:Work>
  </rdf:RDF>
 </metadata>
 <defs>
  <style type="text/css">*{stroke-linejoin: round; stroke-linecap: butt}</style>
 </defs>
 <g id="figure_1">
  <g id="patch_1">
   <path d="M 0 274.982828 
L 995.552969 274.982828 
L 995.552969 0 
L 0 0 
z
" style="fill: #ffffff"/>
  </g>
  <g id="axes_1">
   <g id="patch_2">
    <path d="M 50.068969 231.731969 
L 988.352969 231.731969 
L 988.352969 23.077969 
L 50.068969 23.077969 
z
" style="fill: #ffffff"/>
   </g>
   <g id="matplotlib.axis_1">
    <g id="xtick_1">
     <g id="line2d_1">
      <path d="M 144.786627 231.731969 
L 144.786627 23.077969 
" clip-path="url(#pa0a8f7e65c)" style="fill: none; stroke: #cccccc; stroke-linecap: round"/>
     </g>
     <g id="text_1">
      <!-- 310 -->
      <g style="fill: #262626" transform="translate(133.763595 250.007262) scale(0.1155 -0.1155)">
       <defs>
        <path id="DejaVuSans-16" d="M 2597 2516 
Q 3050 2419 3304 2112 
Q 3559 1806 3559 1356 
Q 3559 666 3084 287 
Q 2609 -91 1734 -91 
Q 1441 -91 1130 -33 
Q 819 25 488 141 
L 488 750 
Q 750 597 1062 519 
Q 1375 441 1716 441 
Q 2309 441 2620 675 
Q 2931 909 2931 1356 
Q 2931 1769 2642 2001 
Q 2353 2234 1838 2234 
L 1294 2234 
L 1294 2753 
L 1863 2753 
Q 2328 2753 2575 2939 
Q 2822 3125 2822 3475 
Q 2822 3834 2567 4026 
Q 2313 4219 1838 4219 
Q 1578 4219 1281 4162 
Q 984 4106 628 3988 
L 628 4550 
Q 988 4650 1302 4700 
Q 1616 4750 1894 4750 
Q 2613 4750 3031 4423 
Q 3450 4097 3450 3541 
Q 3450 3153 3228 2886 
Q 3006 2619 2597 2516 
z
" transform="scale(0.015625)"/>
        <path id="DejaVuSans-14" d="M 794 531 
L 1825 531 
L 1825 4091 
L 703 3866 
L 703 4441 
L 1819 4666 
L 2450 4666 
L 2450 531 
L 3481 531 
L 3481 0 
L 794 0 
L 794 531 
z
" transform="scale(0.015625)"/>
        <path id="DejaVuSans-13" d="M 2034 4250 
Q 1547 4250 1301 3770 
Q 1056 3291 1056 2328 
Q 1056 1369 1301 889 
Q 1547 409 2034 409 
Q 2525 409 2770 889 
Q 3016 1369 3016 2328 
Q 3016 3291 2770 3770 
Q 2525 4250 2034 4250 
z
M 2034 4750 
Q 2819 4750 3233 4129 
Q 3647 3509 3647 2328 
Q 3647 1150 3233 529 
Q 2819 -91 2034 -91 
Q 1250 -91 836 529 
Q 422 1150 422 2328 
Q 422 3509 836 4129 
Q 1250 4750 2034 4750 
z
" transform="scale(0.015625)"/>
       </defs>
       <use xlink:href="#DejaVuSans-16"/>
       <use xlink:href="#DejaVuSans-14" transform="translate(63.625 0)"/>
       <use xlink:href="#DejaVuSans-13" transform="translate(127.25 0)"/>
      </g>
     </g>
    </g>
    <g id="xtick_2">
     <g id="line2d_2">
      <path d="M 261.794233 231.731969 
L 261.794233 23.077969 
" clip-path="url(#pa0a8f7e65c)" style="fill: none; stroke: #cccccc; stroke-linecap: round"/>
     </g>
     <g id="text_2">
      <!-- 320 -->
      <g style="fill: #262626" transform="translate(250.771202 250.007262) scale(0.1155 -0.1155)">
       <defs>
        <path id="DejaVuSans-15" d="M 1228 531 
L 3431 531 
L 3431 0 
L 469 0 
L 469 531 
Q 828 903 1448 1529 
Q 2069 2156 2228 2338 
Q 2531 2678 2651 2914 
Q 2772 3150 2772 3378 
Q 2772 3750 2511 3984 
Q 2250 4219 1831 4219 
Q 1534 4219 1204 4116 
Q 875 4013 500 3803 
L 500 4441 
Q 881 4594 1212 4672 
Q 1544 4750 1819 4750 
Q 2544 4750 2975 4387 
Q 3406 4025 3406 3419 
Q 3406 3131 3298 2873 
Q 3191 2616 2906 2266 
Q 2828 2175 2409 1742 
Q 1991 1309 1228 531 
z
" transform="scale(0.015625)"/>
       </defs>
       <use xlink:href="#DejaVuSans-16"/>
       <use xlink:href="#DejaVuSans-15" transform="translate(63.625 0)"/>
       <use xlink:href="#DejaVuSans-13" transform="translate(127.25 0)"/>
      </g>
     </g>
    </g>
    <g id="xtick_3">
     <g id="line2d_3">
      <path d="M 378.80184 231.731969 
L 378.80184 23.077969 
" clip-path="url(#pa0a8f7e65c)" style="fill: none; stroke: #cccccc; stroke-linecap: round"/>
     </g>
     <g id="text_3">
      <!-- 330 -->
      <g style="fill: #262626" transform="translate(367.778809 250.007262) scale(0.1155 -0.1155)">
       <use xlink:href="#DejaVuSans-16"/>
       <use xlink:href="#DejaVuSans-16" transform="translate(63.625 0)"/>
       <use xlink:href="#DejaVuSans-13" transform="translate(127.25 0)"/>
      </g>
     </g>
    </g>
    <g id="xtick_4">
     <g id="line2d_4">
      <path d="M 495.809447 231.731969 
L 495.809447 23.077969 
" clip-path="url(#pa0a8f7e65c)" style="fill: none; stroke: #cccccc; stroke-linecap: round"/>
     </g>
     <g id="text_4">
      <!-- 340 -->
      <g style="fill: #262626" transform="translate(484.786416 250.007262) scale(0.1155 -0.1155)">
       <defs>
        <path id="DejaVuSans-17" d="M 2419 4116 
L 825 1625 
L 2419 1625 
L 2419 4116 
z
M 2253 4666 
L 3047 4666 
L 3047 1625 
L 3713 1625 
L 3713 1100 
L 3047 1100 
L 3047 0 
L 2419 0 
L 2419 1100 
L 313 1100 
L 313 1709 
L 2253 4666 
z
" transform="scale(0.015625)"/>
       </defs>
       <use xlink:href="#DejaVuSans-16"/>
       <use xlink:href="#DejaVuSans-17" transform="translate(63.625 0)"/>
       <use xlink:href="#DejaVuSans-13" transform="translate(127.25 0)"/>
      </g>
     </g>
    </g>
    <g id="xtick_5">
     <g id="line2d_5">
      <path d="M 612.817054 231.731969 
L 612.817054 23.077969 
" clip-path="url(#pa0a8f7e65c)" style="fill: none; stroke: #cccccc; stroke-linecap: round"/>
     </g>
     <g id="text_5">
      <!-- 350 -->
      <g style="fill: #262626" transform="translate(601.794023 250.007262) scale(0.1155 -0.1155)">
       <defs>
        <path id="DejaVuSans-18" d="M 691 4666 
L 3169 4666 
L 3169 4134 
L 1269 4134 
L 1269 2991 
Q 1406 3038 1543 3061 
Q 1681 3084 1819 3084 
Q 2600 3084 3056 2656 
Q 3513 2228 3513 1497 
Q 3513 744 3044 326 
Q 2575 -91 1722 -91 
Q 1428 -91 1123 -41 
Q 819 9 494 109 
L 494 744 
Q 775 591 1075 516 
Q 1375 441 1709 441 
Q 2250 441 2565 725 
Q 2881 1009 2881 1497 
Q 2881 1984 2565 2268 
Q 2250 2553 1709 2553 
Q 1456 2553 1204 2497 
Q 953 2441 691 2322 
L 691 4666 
z
" transform="scale(0.015625)"/>
       </defs>
       <use xlink:href="#DejaVuSans-16"/>
       <use xlink:href="#DejaVuSans-18" transform="translate(63.625 0)"/>
       <use xlink:href="#DejaVuSans-13" transform="translate(127.25 0)"/>
      </g>
     </g>
    </g>
    <g id="xtick_6">
     <g id="line2d_6">
      <path d="M 729.824661 231.731969 
L 729.824661 23.077969 
" clip-path="url(#pa0a8f7e65c)" style="fill: none; stroke: #cccccc; stroke-linecap: round"/>
     </g>
     <g id="text_6">
      <!-- 360 -->
      <g style="fill: #262626" transform="translate(718.80163 250.007262) scale(0.1155 -0.1155)">
       <defs>
        <path id="DejaVuSans-19" d="M 2113 2584 
Q 1688 2584 1439 2293 
Q 1191 2003 1191 1497 
Q 1191 994 1439 701 
Q 1688 409 2113 409 
Q 2538 409 2786 701 
Q 3034 994 3034 1497 
Q 3034 2003 2786 2293 
Q 2538 2584 2113 2584 
z
M 3366 4563 
L 3366 3988 
Q 3128 4100 2886 4159 
Q 2644 4219 2406 4219 
Q 1781 4219 1451 3797 
Q 1122 3375 1075 2522 
Q 1259 2794 1537 2939 
Q 1816 3084 2150 3084 
Q 2853 3084 3261 2657 
Q 3669 2231 3669 1497 
Q 3669 778 3244 343 
Q 2819 -91 2113 -91 
Q 1303 -91 875 529 
Q 447 1150 447 2328 
Q 447 3434 972 4092 
Q 1497 4750 2381 4750 
Q 2619 4750 2861 4703 
Q 3103 4656 3366 4563 
z
" transform="scale(0.015625)"/>
       </defs>
       <use xlink:href="#DejaVuSans-16"/>
       <use xlink:href="#DejaVuSans-19" transform="translate(63.625 0)"/>
       <use xlink:href="#DejaVuSans-13" transform="translate(127.25 0)"/>
      </g>
     </g>
    </g>
    <g id="xtick_7">
     <g id="line2d_7">
      <path d="M 846.832268 231.731969 
L 846.832268 23.077969 
" clip-path="url(#pa0a8f7e65c)" style="fill: none; stroke: #cccccc; stroke-linecap: round"/>
     </g>
     <g id="text_7">
      <!-- 370 -->
      <g style="fill: #262626" transform="translate(835.809237 250.007262) scale(0.1155 -0.1155)">
       <defs>
        <path id="DejaVuSans-1a" d="M 525 4666 
L 3525 4666 
L 3525 4397 
L 1831 0 
L 1172 0 
L 2766 4134 
L 525 4134 
L 525 4666 
z
" transform="scale(0.015625)"/>
       </defs>
       <use xlink:href="#DejaVuSans-16"/>
       <use xlink:href="#DejaVuSans-1a" transform="translate(63.625 0)"/>
       <use xlink:href="#DejaVuSans-13" transform="translate(127.25 0)"/>
      </g>
     </g>
    </g>
    <g id="xtick_8">
     <g id="line2d_8">
      <path d="M 963.839875 231.731969 
L 963.839875 23.077969 
" clip-path="url(#pa0a8f7e65c)" style="fill: none; stroke: #cccccc; stroke-linecap: round"/>
     </g>
     <g id="text_8">
      <!-- 380 -->
      <g style="fill: #262626" transform="translate(952.816844 250.007262) scale(0.1155 -0.1155)">
       <defs>
        <path id="DejaVuSans-1b" d="M 2034 2216 
Q 1584 2216 1326 1975 
Q 1069 1734 1069 1313 
Q 1069 891 1326 650 
Q 1584 409 2034 409 
Q 2484 409 2743 651 
Q 3003 894 3003 1313 
Q 3003 1734 2745 1975 
Q 2488 2216 2034 2216 
z
M 1403 2484 
Q 997 2584 770 2862 
Q 544 3141 544 3541 
Q 544 4100 942 4425 
Q 1341 4750 2034 4750 
Q 2731 4750 3128 4425 
Q 3525 4100 3525 3541 
Q 3525 3141 3298 2862 
Q 3072 2584 2669 2484 
Q 3125 2378 3379 2068 
Q 3634 1759 3634 1313 
Q 3634 634 3220 271 
Q 2806 -91 2034 -91 
Q 1263 -91 848 271 
Q 434 634 434 1313 
Q 434 1759 690 2068 
Q 947 2378 1403 2484 
z
M 1172 3481 
Q 1172 3119 1398 2916 
Q 1625 2713 2034 2713 
Q 2441 2713 2670 2916 
Q 2900 3119 2900 3481 
Q 2900 3844 2670 4047 
Q 2441 4250 2034 4250 
Q 1625 4250 1398 4047 
Q 1172 3844 1172 3481 
z
" transform="scale(0.015625)"/>
       </defs>
       <use xlink:href="#DejaVuSans-16"/>
       <use xlink:href="#DejaVuSans-1b" transform="translate(63.625 0)"/>
       <use xlink:href="#DejaVuSans-13" transform="translate(127.25 0)"/>
      </g>
     </g>
    </g>
    <g id="text_9">
     <!-- Tau residue (2N4R numbering) -->
     <g style="fill: #262626" transform="translate(435.185578 265.14025) scale(0.11 -0.11)">
      <defs>
       <path id="DejaVuSans-37" d="M -19 4666 
L 3928 4666 
L 3928 4134 
L 2272 4134 
L 2272 0 
L 1638 0 
L 1638 4134 
L -19 4134 
L -19 4666 
z
" transform="scale(0.015625)"/>
       <path id="DejaVuSans-44" d="M 2194 1759 
Q 1497 1759 1228 1600 
Q 959 1441 959 1056 
Q 959 750 1161 570 
Q 1363 391 1709 391 
Q 2188 391 2477 730 
Q 2766 1069 2766 1631 
L 2766 1759 
L 2194 1759 
z
M 3341 1997 
L 3341 0 
L 2766 0 
L 2766 531 
Q 2569 213 2275 61 
Q 1981 -91 1556 -91 
Q 1019 -91 701 211 
Q 384 513 384 1019 
Q 384 1609 779 1909 
Q 1175 2209 1959 2209 
L 2766 2209 
L 2766 2266 
Q 2766 2663 2505 2880 
Q 2244 3097 1772 3097 
Q 1472 3097 1187 3025 
Q 903 2953 641 2809 
L 641 3341 
Q 956 3463 1253 3523 
Q 1550 3584 1831 3584 
Q 2591 3584 2966 3190 
Q 3341 2797 3341 1997 
z
" transform="scale(0.015625)"/>
       <path id="DejaVuSans-58" d="M 544 1381 
L 544 3500 
L 1119 3500 
L 1119 1403 
Q 1119 906 1312 657 
Q 1506 409 1894 409 
Q 2359 409 2629 706 
Q 2900 1003 2900 1516 
L 2900 3500 
L 3475 3500 
L 3475 0 
L 2900 0 
L 2900 538 
Q 2691 219 2414 64 
Q 2138 -91 1772 -91 
Q 1169 -91 856 284 
Q 544 659 544 1381 
z
M 1991 3584 
L 1991 3584 
z
" transform="scale(0.015625)"/>
       <path id="DejaVuSans-3" transform="scale(0.015625)"/>
       <path id="DejaVuSans-55" d="M 2631 2963 
Q 2534 3019 2420 3045 
Q 2306 3072 2169 3072 
Q 1681 3072 1420 2755 
Q 1159 2438 1159 1844 
L 1159 0 
L 581 0 
L 581 3500 
L 1159 3500 
L 1159 2956 
Q 1341 3275 1631 3429 
Q 1922 3584 2338 3584 
Q 2397 3584 2469 3576 
Q 2541 3569 2628 3553 
L 2631 2963 
z
" transform="scale(0.015625)"/>
       <path id="DejaVuSans-48" d="M 3597 1894 
L 3597 1613 
L 953 1613 
Q 991 1019 1311 708 
Q 1631 397 2203 397 
Q 2534 397 2845 478 
Q 3156 559 3463 722 
L 3463 178 
Q 3153 47 2828 -22 
Q 2503 -91 2169 -91 
Q 1331 -91 842 396 
Q 353 884 353 1716 
Q 353 2575 817 3079 
Q 1281 3584 2069 3584 
Q 2775 3584 3186 3129 
Q 3597 2675 3597 1894 
z
M 3022 2063 
Q 3016 2534 2758 2815 
Q 2500 3097 2075 3097 
Q 1594 3097 1305 2825 
Q 1016 2553 972 2059 
L 3022 2063 
z
" transform="scale(0.015625)"/>
       <path id="DejaVuSans-56" d="M 2834 3397 
L 2834 2853 
Q 2591 2978 2328 3040 
Q 2066 3103 1784 3103 
Q 1356 3103 1142 2972 
Q 928 2841 928 2578 
Q 928 2378 1081 2264 
Q 1234 2150 1697 2047 
L 1894 2003 
Q 2506 1872 2764 1633 
Q 3022 1394 3022 966 
Q 3022 478 2636 193 
Q 2250 -91 1575 -91 
Q 1294 -91 989 -36 
Q 684 19 347 128 
L 347 722 
Q 666 556 975 473 
Q 1284 391 1588 391 
Q 1994 391 2212 530 
Q 2431 669 2431 922 
Q 2431 1156 2273 1281 
Q 2116 1406 1581 1522 
L 1381 1569 
Q 847 1681 609 1914 
Q 372 2147 372 2553 
Q 372 3047 722 3315 
Q 1072 3584 1716 3584 
Q 2034 3584 2315 3537 
Q 2597 3491 2834 3397 
z
" transform="scale(0.015625)"/>
       <path id="DejaVuSans-4c" d="M 603 3500 
L 1178 3500 
L 1178 0 
L 603 0 
L 603 3500 
z
M 603 4863 
L 1178 4863 
L 1178 4134 
L 603 4134 
L 603 4863 
z
" transform="scale(0.015625)"/>
       <path id="DejaVuSans-47" d="M 2906 2969 
L 2906 4863 
L 3481 4863 
L 3481 0 
L 2906 0 
L 2906 525 
Q 2725 213 2448 61 
Q 2172 -91 1784 -91 
Q 1150 -91 751 415 
Q 353 922 353 1747 
Q 353 2572 751 3078 
Q 1150 3584 1784 3584 
Q 2172 3584 2448 3432 
Q 2725 3281 2906 2969 
z
M 947 1747 
Q 947 1113 1208 752 
Q 1469 391 1925 391 
Q 2381 391 2643 752 
Q 2906 1113 2906 1747 
Q 2906 2381 2643 2742 
Q 2381 3103 1925 3103 
Q 1469 3103 1208 2742 
Q 947 2381 947 1747 
z
" transform="scale(0.015625)"/>
       <path id="DejaVuSans-b" d="M 1984 4856 
Q 1566 4138 1362 3434 
Q 1159 2731 1159 2009 
Q 1159 1288 1364 580 
Q 1569 -128 1984 -844 
L 1484 -844 
Q 1016 -109 783 600 
Q 550 1309 550 2009 
Q 550 2706 781 3412 
Q 1013 4119 1484 4856 
L 1984 4856 
z
" transform="scale(0.015625)"/>
       <path id="DejaVuSans-31" d="M 628 4666 
L 1478 4666 
L 3547 763 
L 3547 4666 
L 4159 4666 
L 4159 0 
L 3309 0 
L 1241 3903 
L 1241 0 
L 628 0 
L 628 4666 
z
" transform="scale(0.015625)"/>
       <path id="DejaVuSans-35" d="M 2841 2188 
Q 3044 2119 3236 1894 
Q 3428 1669 3622 1275 
L 4263 0 
L 3584 0 
L 2988 1197 
Q 2756 1666 2539 1819 
Q 2322 1972 1947 1972 
L 1259 1972 
L 1259 0 
L 628 0 
L 628 4666 
L 2053 4666 
Q 2853 4666 3247 4331 
Q 3641 3997 3641 3322 
Q 3641 2881 3436 2590 
Q 3231 2300 2841 2188 
z
M 1259 4147 
L 1259 2491 
L 2053 2491 
Q 2509 2491 2742 2702 
Q 2975 2913 2975 3322 
Q 2975 3731 2742 3939 
Q 2509 4147 2053 4147 
L 1259 4147 
z
" transform="scale(0.015625)"/>
       <path id="DejaVuSans-51" d="M 3513 2113 
L 3513 0 
L 2938 0 
L 2938 2094 
Q 2938 2591 2744 2837 
Q 2550 3084 2163 3084 
Q 1697 3084 1428 2787 
Q 1159 2491 1159 1978 
L 1159 0 
L 581 0 
L 581 3500 
L 1159 3500 
L 1159 2956 
Q 1366 3272 1645 3428 
Q 1925 3584 2291 3584 
Q 2894 3584 3203 3211 
Q 3513 2838 3513 2113 
z
" transform="scale(0.015625)"/>
       <path id="DejaVuSans-50" d="M 3328 2828 
Q 3544 3216 3844 3400 
Q 4144 3584 4550 3584 
Q 5097 3584 5394 3201 
Q 5691 2819 5691 2113 
L 5691 0 
L 5113 0 
L 5113 2094 
Q 5113 2597 4934 2840 
Q 4756 3084 4391 3084 
Q 3944 3084 3684 2787 
Q 3425 2491 3425 1978 
L 3425 0 
L 2847 0 
L 2847 2094 
Q 2847 2600 2669 2842 
Q 2491 3084 2119 3084 
Q 1678 3084 1418 2786 
Q 1159 2488 1159 1978 
L 1159 0 
L 581 0 
L 581 3500 
L 1159 3500 
L 1159 2956 
Q 1356 3278 1631 3431 
Q 1906 3584 2284 3584 
Q 2666 3584 2933 3390 
Q 3200 3197 3328 2828 
z
" transform="scale(0.015625)"/>
       <path id="DejaVuSans-45" d="M 3116 1747 
Q 3116 2381 2855 2742 
Q 2594 3103 2138 3103 
Q 1681 3103 1420 2742 
Q 1159 2381 1159 1747 
Q 1159 1113 1420 752 
Q 1681 391 2138 391 
Q 2594 391 2855 752 
Q 3116 1113 3116 1747 
z
M 1159 2969 
Q 1341 3281 1617 3432 
Q 1894 3584 2278 3584 
Q 2916 3584 3314 3078 
Q 3713 2572 3713 1747 
Q 3713 922 3314 415 
Q 2916 -91 2278 -91 
Q 1894 -91 1617 61 
Q 1341 213 1159 525 
L 1159 0 
L 581 0 
L 581 4863 
L 1159 4863 
L 1159 2969 
z
" transform="scale(0.015625)"/>
       <path id="DejaVuSans-4a" d="M 2906 1791 
Q 2906 2416 2648 2759 
Q 2391 3103 1925 3103 
Q 1463 3103 1205 2759 
Q 947 2416 947 1791 
Q 947 1169 1205 825 
Q 1463 481 1925 481 
Q 2391 481 2648 825 
Q 2906 1169 2906 1791 
z
M 3481 434 
Q 3481 -459 3084 -895 
Q 2688 -1331 1869 -1331 
Q 1566 -1331 1297 -1286 
Q 1028 -1241 775 -1147 
L 775 -588 
Q 1028 -725 1275 -790 
Q 1522 -856 1778 -856 
Q 2344 -856 2625 -561 
Q 2906 -266 2906 331 
L 2906 616 
Q 2728 306 2450 153 
Q 2172 0 1784 0 
Q 1141 0 747 490 
Q 353 981 353 1791 
Q 353 2603 747 3093 
Q 1141 3584 1784 3584 
Q 2172 3584 2450 3431 
Q 2728 3278 2906 2969 
L 2906 3500 
L 3481 3500 
L 3481 434 
z
" transform="scale(0.015625)"/>
       <path id="DejaVuSans-c" d="M 513 4856 
L 1013 4856 
Q 1481 4119 1714 3412 
Q 1947 2706 1947 2009 
Q 1947 1309 1714 600 
Q 1481 -109 1013 -844 
L 513 -844 
Q 928 -128 1133 580 
Q 1338 1288 1338 2009 
Q 1338 2731 1133 3434 
Q 928 4138 513 4856 
z
" transform="scale(0.015625)"/>
      </defs>
      <use xlink:href="#DejaVuSans-37"/>
      <use xlink:href="#DejaVuSans-44" transform="translate(44.53125 0)"/>
      <use xlink:href="#DejaVuSans-58" transform="translate(105.8125 0)"/>
      <use xlink:href="#DejaVuSans-3" transform="translate(169.1875 0)"/>
      <use xlink:href="#DejaVuSans-55" transform="translate(200.96875 0)"/>
      <use xlink:href="#DejaVuSans-48" transform="translate(239.875 0)"/>
      <use xlink:href="#DejaVuSans-56" transform="translate(301.40625 0)"/>
      <use xlink:href="#DejaVuSans-4c" transform="translate(353.5 0)"/>
      <use xlink:href="#DejaVuSans-47" transform="translate(381.28125 0)"/>
      <use xlink:href="#DejaVuSans-58" transform="translate(444.765625 0)"/>
      <use xlink:href="#DejaVuSans-48" transform="translate(508.140625 0)"/>
      <use xlink:href="#DejaVuSans-3" transform="translate(569.671875 0)"/>
      <use xlink:href="#DejaVuSans-b" transform="translate(601.453125 0)"/>
      <use xlink:href="#DejaVuSans-15" transform="translate(640.46875 0)"/>
      <use xlink:href="#DejaVuSans-31" transform="translate(704.09375 0)"/>
      <use xlink:href="#DejaVuSans-17" transform="translate(778.90625 0)"/>
      <use xlink:href="#DejaVuSans-35" transform="translate(842.53125 0)"/>
      <use xlink:href="#DejaVuSans-3" transform="translate(912.015625 0)"/>
      <use xlink:href="#DejaVuSans-51" transform="translate(943.796875 0)"/>
      <use xlink:href="#DejaVuSans-58" transform="translate(1007.171875 0)"/>
      <use xlink:href="#DejaVuSans-50" transform="translate(1070.546875 0)"/>
      <use xlink:href="#DejaVuSans-45" transform="translate(1167.953125 0)"/>
      <use xlink:href="#DejaVuSans-48" transform="translate(1231.4375 0)"/>
      <use xlink:href="#DejaVuSans-55" transform="translate(1292.96875 0)"/>
      <use xlink:href="#DejaVuSans-4c" transform="translate(1334.078125 0)"/>
      <use xlink:href="#DejaVuSans-51" transform="translate(1361.859375 0)"/>
      <use xlink:href="#DejaVuSans-4a" transform="translate(1425.234375 0)"/>
      <use xlink:href="#DejaVuSans-c" transform="translate(1488.71875 0)"/>
     </g>
    </g>
   </g>
   <g id="matplotlib.axis_2">
    <g id="ytick_1">
     <g id="line2d_9">
      <path d="M 50.068969 231.731969 
L 988.352969 231.731969 
" clip-path="url(#pa0a8f7e65c)" style="fill: none; stroke: #cccccc; stroke-linecap: round"/>
     </g>
     <g id="text_10">
      <!-- 0.0 -->
      <g style="fill: #262626" transform="translate(22.200859 236.119615) scale(0.1155 -0.1155)">
       <defs>
        <path id="DejaVuSans-11" d="M 684 794 
L 1344 794 
L 1344 0 
L 684 0 
L 684 794 
z
" transform="scale(0.015625)"/>
       </defs>
       <use xlink:href="#DejaVuSans-13"/>
       <use xlink:href="#DejaVuSans-11" transform="translate(63.625 0)"/>
       <use xlink:href="#DejaVuSans-13" transform="translate(95.40625 0)"/>
      </g>
     </g>
    </g>
    <g id="ytick_2">
     <g id="line2d_10">
      <path d="M 50.068969 205.147608 
L 988.352969 205.147608 
" clip-path="url(#pa0a8f7e65c)" style="fill: none; stroke: #cccccc; stroke-linecap: round"/>
     </g>
     <g id="text_11">
      <!-- 0.1 -->
      <g style="fill: #262626" transform="translate(22.200859 209.535255) scale(0.1155 -0.1155)">
       <use xlink:href="#DejaVuSans-13"/>
       <use xlink:href="#DejaVuSans-11" transform="translate(63.625 0)"/>
       <use xlink:href="#DejaVuSans-14" transform="translate(95.40625 0)"/>
      </g>
     </g>
    </g>
    <g id="ytick_3">
     <g id="line2d_11">
      <path d="M 50.068969 178.563248 
L 988.352969 178.563248 
" clip-path="url(#pa0a8f7e65c)" style="fill: none; stroke: #cccccc; stroke-linecap: round"/>
     </g>
     <g id="text_12">
      <!-- 0.2 -->
      <g style="fill: #262626" transform="translate(22.200859 182.950894) scale(0.1155 -0.1155)">
       <use xlink:href="#DejaVuSans-13"/>
       <use xlink:href="#DejaVuSans-11" transform="translate(63.625 0)"/>
       <use xlink:href="#DejaVuSans-15" transform="translate(95.40625 0)"/>
      </g>
     </g>
    </g>
    <g id="ytick_4">
     <g id="line2d_12">
      <path d="M 50.068969 151.978887 
L 988.352969 151.978887 
" clip-path="url(#pa0a8f7e65c)" style="fill: none; stroke: #cccccc; stroke-linecap: round"/>
     </g>
     <g id="text_13">
      <!-- 0.3 -->
      <g style="fill: #262626" transform="translate(22.200859 156.366534) scale(0.1155 -0.1155)">
       <use xlink:href="#DejaVuSans-13"/>
       <use xlink:href="#DejaVuSans-11" transform="translate(63.625 0)"/>
       <use xlink:href="#DejaVuSans-16" transform="translate(95.40625 0)"/>
      </g>
     </g>
    </g>
    <g id="ytick_5">
     <g id="line2d_13">
      <path d="M 50.068969 125.394526 
L 988.352969 125.394526 
" clip-path="url(#pa0a8f7e65c)" style="fill: none; stroke: #cccccc; stroke-linecap: round"/>
     </g>
     <g id="text_14">
      <!-- 0.4 -->
      <g style="fill: #262626" transform="translate(22.200859 129.782173) scale(0.1155 -0.1155)">
       <use xlink:href="#DejaVuSans-13"/>
       <use xlink:href="#DejaVuSans-11" transform="translate(63.625 0)"/>
       <use xlink:href="#DejaVuSans-17" transform="translate(95.40625 0)"/>
      </g>
     </g>
    </g>
    <g id="ytick_6">
     <g id="line2d_14">
      <path d="M 50.068969 98.810166 
L 988.352969 98.810166 
" clip-path="url(#pa0a8f7e65c)" style="fill: none; stroke: #cccccc; stroke-linecap: round"/>
     </g>
     <g id="text_15">
      <!-- 0.5 -->
      <g style="fill: #262626" transform="translate(22.200859 103.197812) scale(0.1155 -0.1155)">
       <use xlink:href="#DejaVuSans-13"/>
       <use xlink:href="#DejaVuSans-11" transform="translate(63.625 0)"/>
       <use xlink:href="#DejaVuSans-18" transform="translate(95.40625 0)"/>
      </g>
     </g>
    </g>
    <g id="ytick_7">
     <g id="line2d_15">
      <path d="M 50.068969 72.225805 
L 988.352969 72.225805 
" clip-path="url(#pa0a8f7e65c)" style="fill: none; stroke: #cccccc; stroke-linecap: round"/>
     </g>
     <g id="text_16">
      <!-- 0.6 -->
      <g style="fill: #262626" transform="translate(22.200859 76.613452) scale(0.1155 -0.1155)">
       <use xlink:href="#DejaVuSans-13"/>
       <use xlink:href="#DejaVuSans-11" transform="translate(63.625 0)"/>
       <use xlink:href="#DejaVuSans-19" transform="translate(95.40625 0)"/>
      </g>
     </g>
    </g>
    <g id="ytick_8">
     <g id="line2d_16">
      <path d="M 50.068969 45.641445 
L 988.352969 45.641445 
" clip-path="url(#pa0a8f7e65c)" style="fill: none; stroke: #cccccc; stroke-linecap: round"/>
     </g>
     <g id="text_17">
      <!-- 0.7 -->
      <g style="fill: #262626" transform="translate(22.200859 50.029091) scale(0.1155 -0.1155)">
       <use xlink:href="#DejaVuSans-13"/>
       <use xlink:href="#DejaVuSans-11" transform="translate(63.625 0)"/>
       <use xlink:href="#DejaVuSans-1a" transform="translate(95.40625 0)"/>
      </g>
     </g>
    </g>
    <g id="text_18">
     <!-- Relative SASA -->
     <g style="fill: #262626" transform="translate(15.558281 166.046766) rotate(-90) scale(0.11 -0.11)">
      <defs>
       <path id="DejaVuSans-4f" d="M 603 4863 
L 1178 4863 
L 1178 0 
L 603 0 
L 603 4863 
z
" transform="scale(0.015625)"/>
       <path id="DejaVuSans-57" d="M 1172 4494 
L 1172 3500 
L 2356 3500 
L 2356 3053 
L 1172 3053 
L 1172 1153 
Q 1172 725 1289 603 
Q 1406 481 1766 481 
L 2356 481 
L 2356 0 
L 1766 0 
Q 1100 0 847 248 
Q 594 497 594 1153 
L 594 3053 
L 172 3053 
L 172 3500 
L 594 3500 
L 594 4494 
L 1172 4494 
z
" transform="scale(0.015625)"/>
       <path id="DejaVuSans-59" d="M 191 3500 
L 800 3500 
L 1894 563 
L 2988 3500 
L 3597 3500 
L 2284 0 
L 1503 0 
L 191 3500 
z
" transform="scale(0.015625)"/>
       <path id="DejaVuSans-36" d="M 3425 4513 
L 3425 3897 
Q 3066 4069 2747 4153 
Q 2428 4238 2131 4238 
Q 1616 4238 1336 4038 
Q 1056 3838 1056 3469 
Q 1056 3159 1242 3001 
Q 1428 2844 1947 2747 
L 2328 2669 
Q 3034 2534 3370 2195 
Q 3706 1856 3706 1288 
Q 3706 609 3251 259 
Q 2797 -91 1919 -91 
Q 1588 -91 1214 -16 
Q 841 59 441 206 
L 441 856 
Q 825 641 1194 531 
Q 1563 422 1919 422 
Q 2459 422 2753 634 
Q 3047 847 3047 1241 
Q 3047 1584 2836 1778 
Q 2625 1972 2144 2069 
L 1759 2144 
Q 1053 2284 737 2584 
Q 422 2884 422 3419 
Q 422 4038 858 4394 
Q 1294 4750 2059 4750 
Q 2388 4750 2728 4690 
Q 3069 4631 3425 4513 
z
" transform="scale(0.015625)"/>
       <path id="DejaVuSans-24" d="M 2188 4044 
L 1331 1722 
L 3047 1722 
L 2188 4044 
z
M 1831 4666 
L 2547 4666 
L 4325 0 
L 3669 0 
L 3244 1197 
L 1141 1197 
L 716 0 
L 50 0 
L 1831 4666 
z
" transform="scale(0.015625)"/>
      </defs>
      <use xlink:href="#DejaVuSans-35"/>
      <use xlink:href="#DejaVuSans-48" transform="translate(65 0)"/>
      <use xlink:href="#DejaVuSans-4f" transform="translate(126.53125 0)"/>
      <use xlink:href="#DejaVuSans-44" transform="translate(154.3125 0)"/>
      <use xlink:href="#DejaVuSans-57" transform="translate(215.59375 0)"/>
      <use xlink:href="#DejaVuSans-4c" transform="translate(254.796875 0)"/>
      <use xlink:href="#DejaVuSans-59" transform="translate(282.578125 0)"/>
      <use xlink:href="#DejaVuSans-48" transform="translate(341.765625 0)"/>
      <use xlink:href="#DejaVuSans-3" transform="translate(403.296875 0)"/>
      <use xlink:href="#DejaVuSans-36" transform="translate(435.078125 0)"/>
      <use xlink:href="#DejaVuSans-24" transform="translate(500.421875 0)"/>
      <use xlink:href="#DejaVuSans-36" transform="translate(568.828125 0)"/>
      <use xlink:href="#DejaVuSans-24" transform="translate(634.171875 0)"/>
     </g>
    </g>
   </g>
   <g id="patch_3">
    <path d="M 92.718241 231.731969 
L 103.248926 231.731969 
L 103.248926 33.013874 
L 92.718241 33.013874 
z
" clip-path="url(#pa0a8f7e65c)" style="fill: #1e90ff; stroke: #ffffff; stroke-linejoin: miter"/>
   </g>
   <g id="patch_4">
    <path d="M 104.419002 231.731969 
L 114.949687 231.731969 
L 114.949687 115.212716 
L 104.419002 115.212716 
z
" clip-path="url(#pa0a8f7e65c)" style="fill: #1e90ff; stroke: #ffffff; stroke-linejoin: miter"/>
   </g>
   <g id="patch_5">
    <path d="M 116.119763 231.731969 
L 126.650447 231.731969 
L 126.650447 141.557818 
L 116.119763 141.557818 
z
" clip-path="url(#pa0a8f7e65c)" style="fill: #daa520; stroke: #ffffff; stroke-linejoin: miter"/>
   </g>
   <g id="patch_6">
    <path d="M 127.820524 231.731969 
L 138.351208 231.731969 
L 138.351208 196.74695 
L 127.820524 196.74695 
z
" clip-path="url(#pa0a8f7e65c)" style="fill: #8b0000; stroke: #ffffff; stroke-linejoin: miter"/>
   </g>
   <g id="patch_7">
    <path d="M 139.521284 231.731969 
L 150.051969 231.731969 
L 150.051969 147.087365 
L 139.521284 147.087365 
z
" clip-path="url(#pa0a8f7e65c)" style="fill: #daa520; stroke: #ffffff; stroke-linejoin: miter"/>
   </g>
   <g id="patch_8">
    <path d="M 151.222045 231.731969 
L 161.75273 231.731969 
L 161.75273 121.194198 
L 151.222045 121.194198 
z
" clip-path="url(#pa0a8f7e65c)" style="fill: #1e90ff; stroke: #ffffff; stroke-linejoin: miter"/>
   </g>
   <g id="patch_9">
    <path d="M 162.922806 231.731969 
L 173.45349 231.731969 
L 173.45349 180.876087 
L 162.922806 180.876087 
z
" clip-path="url(#pa0a8f7e65c)" style="fill: #8b0000; stroke: #ffffff; stroke-linejoin: miter"/>
   </g>
   <g id="patch_10">
    <path d="M 174.623566 231.731969 
L 185.154251 231.731969 
L 185.154251 104.738478 
L 174.623566 104.738478 
z
" clip-path="url(#pa0a8f7e65c)" style="fill: #1e90ff; stroke: #ffffff; stroke-linejoin: miter"/>
   </g>
   <g id="patch_11">
    <path d="M 186.324327 231.731969 
L 196.855012 231.731969 
L 196.855012 157.535018 
L 186.324327 157.535018 
z
" clip-path="url(#pa0a8f7e65c)" style="fill: #daa520; stroke: #ffffff; stroke-linejoin: miter"/>
   </g>
   <g id="patch_12">
    <path d="M 198.025088 231.731969 
L 208.555772 231.731969 
L 208.555772 88.814446 
L 198.025088 88.814446 
z
" clip-path="url(#pa0a8f7e65c)" style="fill: #1e90ff; stroke: #ffffff; stroke-linejoin: miter"/>
   </g>
   <g id="patch_13">
    <path d="M 209.725848 231.731969 
L 220.256533 231.731969 
L 220.256533 188.45263 
L 209.725848 188.45263 
z
" clip-path="url(#pa0a8f7e65c)" style="fill: #8b0000; stroke: #ffffff; stroke-linejoin: miter"/>
   </g>
   <g id="patch_14">
    <path d="M 221.426609 231.731969 
L 231.957294 231.731969 
L 231.957294 96.842923 
L 221.426609 96.842923 
z
" clip-path="url(#pa0a8f7e65c)" style="fill: #1e90ff; stroke: #ffffff; stroke-linejoin: miter"/>
   </g>
   <g id="patch_15">
    <path d="M 233.12737 231.731969 
L 243.658054 231.731969 
L 243.658054 167.158557 
L 233.12737 167.158557 
z
" clip-path="url(#pa0a8f7e65c)" style="fill: #daa520; stroke: #ffffff; stroke-linejoin: miter"/>
   </g>
   <g id="patch_16">
    <path d="M 244.82813 231.731969 
L 255.358815 231.731969 
L 255.358815 193.955592 
L 244.82813 193.955592 
z
" clip-path="url(#pa0a8f7e65c)" style="fill: #8b0000; stroke: #ffffff; stroke-linejoin: miter"/>
   </g>
   <g id="patch_17">
    <path d="M 256.528891 231.731969 
L 267.059576 231.731969 
L 267.059576 165.271067 
L 256.528891 165.271067 
z
" clip-path="url(#pa0a8f7e65c)" style="fill: #daa520; stroke: #ffffff; stroke-linejoin: miter"/>
   </g>
   <g id="patch_18">
    <path d="M 268.229652 231.731969 
L 278.760337 231.731969 
L 278.760337 106.599384 
L 268.229652 106.599384 
z
" clip-path="url(#pa0a8f7e65c)" style="fill: #1e90ff; stroke: #ffffff; stroke-linejoin: miter"/>
   </g>
   <g id="patch_19">
    <path d="M 279.930413 231.731969 
L 290.461097 231.731969 
L 290.461097 161.974607 
L 279.930413 161.974607 
z
" clip-path="url(#pa0a8f7e65c)" style="fill: #daa520; stroke: #ffffff; stroke-linejoin: miter"/>
   </g>
   <g id="patch_20">
    <path d="M 291.631173 231.731969 
L 302.161858 231.731969 
L 302.161858 75.043748 
L 291.631173 75.043748 
z
" clip-path="url(#pa0a8f7e65c)" style="fill: #1e90ff; stroke: #ffffff; stroke-linejoin: miter"/>
   </g>
   <g id="patch_21">
    <path d="M 303.331934 231.731969 
L 313.862619 231.731969 
L 313.862619 116.993869 
L 303.331934 116.993869 
z
" clip-path="url(#pa0a8f7e65c)" style="fill: #1e90ff; stroke: #ffffff; stroke-linejoin: miter"/>
   </g>
   <g id="patch_22">
    <path d="M 315.032695 231.731969 
L 325.563379 231.731969 
L 325.563379 179.4937 
L 315.032695 179.4937 
z
" clip-path="url(#pa0a8f7e65c)" style="fill: #8b0000; stroke: #ffffff; stroke-linejoin: miter"/>
   </g>
   <g id="patch_23">
    <path d="M 326.733455 231.731969 
L 337.26414 231.731969 
L 337.26414 97.853129 
L 326.733455 97.853129 
z
" clip-path="url(#pa0a8f7e65c)" style="fill: #1e90ff; stroke: #ffffff; stroke-linejoin: miter"/>
   </g>
   <g id="patch_24">
    <path d="M 338.434216 231.731969 
L 348.964901 231.731969 
L 348.964901 121.08786 
L 338.434216 121.08786 
z
" clip-path="url(#pa0a8f7e65c)" style="fill: #1e90ff; stroke: #ffffff; stroke-linejoin: miter"/>
   </g>
   <g id="patch_25">
    <path d="M 350.134977 231.731969 
L 360.665661 231.731969 
L 360.665661 177.792301 
L 350.134977 177.792301 
z
" clip-path="url(#pa0a8f7e65c)" style="fill: #daa520; stroke: #ffffff; stroke-linejoin: miter"/>
   </g>
   <g id="patch_26">
    <path d="M 361.835737 231.731969 
L 372.366422 231.731969 
L 372.366422 161.575841 
L 361.835737 161.575841 
z
" clip-path="url(#pa0a8f7e65c)" style="fill: #daa520; stroke: #ffffff; stroke-linejoin: miter"/>
   </g>
   <g id="patch_27">
    <path d="M 373.536498 231.731969 
L 384.067183 231.731969 
L 384.067183 180.982424 
L 373.536498 180.982424 
z
" clip-path="url(#pa0a8f7e65c)" style="fill: #8b0000; stroke: #ffffff; stroke-linejoin: miter"/>
   </g>
   <g id="patch_28">
    <path d="M 385.237259 231.731969 
L 395.767943 231.731969 
L 395.767943 110.773128 
L 385.237259 110.773128 
z
" clip-path="url(#pa0a8f7e65c)" style="fill: #1e90ff; stroke: #ffffff; stroke-linejoin: miter"/>
   </g>
   <g id="patch_29">
    <path d="M 396.93802 231.731969 
L 407.468704 231.731969 
L 407.468704 160.220039 
L 396.93802 160.220039 
z
" clip-path="url(#pa0a8f7e65c)" style="fill: #daa520; stroke: #ffffff; stroke-linejoin: miter"/>
   </g>
   <g id="patch_30">
    <path d="M 408.63878 231.731969 
L 419.169465 231.731969 
L 419.169465 135.65609 
L 408.63878 135.65609 
z
" clip-path="url(#pa0a8f7e65c)" style="fill: #daa520; stroke: #ffffff; stroke-linejoin: miter"/>
   </g>
   <g id="patch_31">
    <path d="M 420.339541 231.731969 
L 430.870226 231.731969 
L 430.870226 95.221277 
L 420.339541 95.221277 
z
" clip-path="url(#pa0a8f7e65c)" style="fill: #1e90ff; stroke: #ffffff; stroke-linejoin: miter"/>
   </g>
   <g id="patch_32">
    <path d="M 432.040302 231.731969 
L 442.570986 231.731969 
L 442.570986 173.193207 
L 432.040302 173.193207 
z
" clip-path="url(#pa0a8f7e65c)" style="fill: #daa520; stroke: #ffffff; stroke-linejoin: miter"/>
   </g>
   <g id="patch_33">
    <path d="M 443.741062 231.731969 
L 454.271747 231.731969 
L 454.271747 112.55428 
L 443.741062 112.55428 
z
" clip-path="url(#pa0a8f7e65c)" style="fill: #1e90ff; stroke: #ffffff; stroke-linejoin: miter"/>
   </g>
   <g id="patch_34">
    <path d="M 455.441823 231.731969 
L 465.972508 231.731969 
L 465.972508 173.485635 
L 455.441823 173.485635 
z
" clip-path="url(#pa0a8f7e65c)" style="fill: #daa520; stroke: #ffffff; stroke-linejoin: miter"/>
   </g>
   <g id="patch_35">
    <path d="M 467.142584 231.731969 
L 477.673268 231.731969 
L 477.673268 130.525308 
L 467.142584 130.525308 
z
" clip-path="url(#pa0a8f7e65c)" style="fill: #daa520; stroke: #ffffff; stroke-linejoin: miter"/>
   </g>
   <g id="patch_36">
    <path d="M 478.843344 231.731969 
L 489.374029 231.731969 
L 489.374029 164.048187 
L 478.843344 164.048187 
z
" clip-path="url(#pa0a8f7e65c)" style="fill: #daa520; stroke: #ffffff; stroke-linejoin: miter"/>
   </g>
   <g id="patch_37">
    <path d="M 490.544105 231.731969 
L 501.07479 231.731969 
L 501.07479 83.524159 
L 490.544105 83.524159 
z
" clip-path="url(#pa0a8f7e65c)" style="fill: #1e90ff; stroke: #ffffff; stroke-linejoin: miter"/>
   </g>
   <g id="patch_38">
    <path d="M 502.244866 231.731969 
L 512.77555 231.731969 
L 512.77555 137.570164 
L 502.244866 137.570164 
z
" clip-path="url(#pa0a8f7e65c)" style="fill: #daa520; stroke: #ffffff; stroke-linejoin: miter"/>
   </g>
   <g id="patch_39">
    <path d="M 513.945626 231.731969 
L 524.476311 231.731969 
L 524.476311 71.800456 
L 513.945626 71.800456 
z
" clip-path="url(#pa0a8f7e65c)" style="fill: #1e90ff; stroke: #ffffff; stroke-linejoin: miter"/>
   </g>
   <g id="patch_40">
    <path d="M 525.646387 231.731969 
L 536.177072 231.731969 
L 536.177072 112.155515 
L 525.646387 112.155515 
z
" clip-path="url(#pa0a8f7e65c)" style="fill: #1e90ff; stroke: #ffffff; stroke-linejoin: miter"/>
   </g>
   <g id="patch_41">
    <path d="M 537.347148 231.731969 
L 547.877832 231.731969 
L 547.877832 171.19938 
L 537.347148 171.19938 
z
" clip-path="url(#pa0a8f7e65c)" style="fill: #daa520; stroke: #ffffff; stroke-linejoin: miter"/>
   </g>
   <g id="patch_42">
    <path d="M 549.047909 231.731969 
L 559.578593 231.731969 
L 559.578593 135.576337 
L 549.047909 135.576337 
z
" clip-path="url(#pa0a8f7e65c)" style="fill: #daa520; stroke: #ffffff; stroke-linejoin: miter"/>
   </g>
   <g id="patch_43">
    <path d="M 560.748669 231.731969 
L 571.279354 231.731969 
L 571.279354 143.76432 
L 560.748669 143.76432 
z
" clip-path="url(#pa0a8f7e65c)" style="fill: #daa520; stroke: #ffffff; stroke-linejoin: miter"/>
   </g>
   <g id="patch_44">
    <path d="M 572.44943 231.731969 
L 582.980115 231.731969 
L 582.980115 92.350166 
L 572.44943 92.350166 
z
" clip-path="url(#pa0a8f7e65c)" style="fill: #1e90ff; stroke: #ffffff; stroke-linejoin: miter"/>
   </g>
   <g id="patch_45">
    <path d="M 584.150191 231.731969 
L 594.680875 231.731969 
L 594.680875 137.809423 
L 584.150191 137.809423 
z
" clip-path="url(#pa0a8f7e65c)" style="fill: #daa520; stroke: #ffffff; stroke-linejoin: miter"/>
   </g>
   <g id="patch_46">
    <path d="M 595.850951 231.731969 
L 606.381636 231.731969 
L 606.381636 90.436092 
L 595.850951 90.436092 
z
" clip-path="url(#pa0a8f7e65c)" style="fill: #1e90ff; stroke: #ffffff; stroke-linejoin: miter"/>
   </g>
   <g id="patch_47">
    <path d="M 607.551712 231.731969 
L 618.082397 231.731969 
L 618.082397 167.450985 
L 607.551712 167.450985 
z
" clip-path="url(#pa0a8f7e65c)" style="fill: #daa520; stroke: #ffffff; stroke-linejoin: miter"/>
   </g>
   <g id="patch_48">
    <path d="M 619.252473 231.731969 
L 629.783157 231.731969 
L 629.783157 102.824404 
L 619.252473 102.824404 
z
" clip-path="url(#pa0a8f7e65c)" style="fill: #1e90ff; stroke: #ffffff; stroke-linejoin: miter"/>
   </g>
   <g id="patch_49">
    <path d="M 630.953233 231.731969 
L 641.483918 231.731969 
L 641.483918 154.504401 
L 630.953233 154.504401 
z
" clip-path="url(#pa0a8f7e65c)" style="fill: #daa520; stroke: #ffffff; stroke-linejoin: miter"/>
   </g>
   <g id="patch_50">
    <path d="M 642.653994 231.731969 
L 653.184679 231.731969 
L 653.184679 137.490411 
L 642.653994 137.490411 
z
" clip-path="url(#pa0a8f7e65c)" style="fill: #daa520; stroke: #ffffff; stroke-linejoin: miter"/>
   </g>
   <g id="patch_51">
    <path d="M 654.354755 231.731969 
L 664.885439 231.731969 
L 664.885439 130.924073 
L 654.354755 130.924073 
z
" clip-path="url(#pa0a8f7e65c)" style="fill: #daa520; stroke: #ffffff; stroke-linejoin: miter"/>
   </g>
   <g id="patch_52">
    <path d="M 666.055515 231.731969 
L 676.5862 231.731969 
L 676.5862 150.463578 
L 666.055515 150.463578 
z
" clip-path="url(#pa0a8f7e65c)" style="fill: #daa520; stroke: #ffffff; stroke-linejoin: miter"/>
   </g>
   <g id="patch_53">
    <path d="M 677.756276 231.731969 
L 688.286961 231.731969 
L 688.286961 197.730572 
L 677.756276 197.730572 
z
" clip-path="url(#pa0a8f7e65c)" style="fill: #8b0000; stroke: #ffffff; stroke-linejoin: miter"/>
   </g>
   <g id="patch_54">
    <path d="M 689.457037 231.731969 
L 699.987721 231.731969 
L 699.987721 126.218642 
L 689.457037 126.218642 
z
" clip-path="url(#pa0a8f7e65c)" style="fill: #daa520; stroke: #ffffff; stroke-linejoin: miter"/>
   </g>
   <g id="patch_55">
    <path d="M 701.157798 231.731969 
L 711.688482 231.731969 
L 711.688482 149.214114 
L 701.157798 149.214114 
z
" clip-path="url(#pa0a8f7e65c)" style="fill: #daa520; stroke: #ffffff; stroke-linejoin: miter"/>
   </g>
   <g id="patch_56">
    <path d="M 712.858558 231.731969 
L 723.389243 231.731969 
L 723.389243 164.12794 
L 712.858558 164.12794 
z
" clip-path="url(#pa0a8f7e65c)" style="fill: #daa520; stroke: #ffffff; stroke-linejoin: miter"/>
   </g>
   <g id="patch_57">
    <path d="M 724.559319 231.731969 
L 735.090004 231.731969 
L 735.090004 148.310245 
L 724.559319 148.310245 
z
" clip-path="url(#pa0a8f7e65c)" style="fill: #daa520; stroke: #ffffff; stroke-linejoin: miter"/>
   </g>
   <g id="patch_58">
    <path d="M 736.26008 231.731969 
L 746.790764 231.731969 
L 746.790764 110.507285 
L 736.26008 110.507285 
z
" clip-path="url(#pa0a8f7e65c)" style="fill: #1e90ff; stroke: #ffffff; stroke-linejoin: miter"/>
   </g>
   <g id="patch_59">
    <path d="M 747.96084 231.731969 
L 758.491525 231.731969 
L 758.491525 122.151234 
L 747.96084 122.151234 
z
" clip-path="url(#pa0a8f7e65c)" style="fill: #1e90ff; stroke: #ffffff; stroke-linejoin: miter"/>
   </g>
   <g id="patch_60">
    <path d="M 759.661601 231.731969 
L 770.192286 231.731969 
L 770.192286 159.316171 
L 759.661601 159.316171 
z
" clip-path="url(#pa0a8f7e65c)" style="fill: #daa520; stroke: #ffffff; stroke-linejoin: miter"/>
   </g>
   <g id="patch_61">
    <path d="M 771.362362 231.731969 
L 781.893046 231.731969 
L 781.893046 166.62687 
L 771.362362 166.62687 
z
" clip-path="url(#pa0a8f7e65c)" style="fill: #daa520; stroke: #ffffff; stroke-linejoin: miter"/>
   </g>
   <g id="patch_62">
    <path d="M 783.063122 231.731969 
L 793.593807 231.731969 
L 793.593807 59.651403 
L 783.063122 59.651403 
z
" clip-path="url(#pa0a8f7e65c)" style="fill: #1e90ff; stroke: #ffffff; stroke-linejoin: miter"/>
   </g>
   <g id="patch_63">
    <path d="M 794.763883 231.731969 
L 805.294568 231.731969 
L 805.294568 145.226459 
L 794.763883 145.226459 
z
" clip-path="url(#pa0a8f7e65c)" style="fill: #daa520; stroke: #ffffff; stroke-linejoin: miter"/>
   </g>
   <g id="patch_64">
    <path d="M 806.464644 231.731969 
L 816.995328 231.731969 
L 816.995328 188.133617 
L 806.464644 188.133617 
z
" clip-path="url(#pa0a8f7e65c)" style="fill: #8b0000; stroke: #ffffff; stroke-linejoin: miter"/>
   </g>
   <g id="patch_65">
    <path d="M 818.165404 231.731969 
L 828.696089 231.731969 
L 828.696089 152.776418 
L 818.165404 152.776418 
z
" clip-path="url(#pa0a8f7e65c)" style="fill: #daa520; stroke: #ffffff; stroke-linejoin: miter"/>
   </g>
   <g id="patch_66">
    <path d="M 829.866165 231.731969 
L 840.39685 231.731969 
L 840.39685 103.435845 
L 829.866165 103.435845 
z
" clip-path="url(#pa0a8f7e65c)" style="fill: #1e90ff; stroke: #ffffff; stroke-linejoin: miter"/>
   </g>
   <g id="patch_67">
    <path d="M 841.566926 231.731969 
L 852.09761 231.731969 
L 852.09761 137.623332 
L 841.566926 137.623332 
z
" clip-path="url(#pa0a8f7e65c)" style="fill: #daa520; stroke: #ffffff; stroke-linejoin: miter"/>
   </g>
   <g id="patch_68">
    <path d="M 853.267687 231.731969 
L 863.798371 231.731969 
L 863.798371 128.292222 
L 853.267687 128.292222 
z
" clip-path="url(#pa0a8f7e65c)" style="fill: #daa520; stroke: #ffffff; stroke-linejoin: miter"/>
   </g>
   <g id="patch_69">
    <path d="M 864.968447 231.731969 
L 875.499132 231.731969 
L 875.499132 180.53049 
L 864.968447 180.53049 
z
" clip-path="url(#pa0a8f7e65c)" style="fill: #8b0000; stroke: #ffffff; stroke-linejoin: miter"/>
   </g>
   <g id="patch_70">
    <path d="M 876.669208 231.731969 
L 887.199893 231.731969 
L 887.199893 136.985308 
L 876.669208 136.985308 
z
" clip-path="url(#pa0a8f7e65c)" style="fill: #daa520; stroke: #ffffff; stroke-linejoin: miter"/>
   </g>
   <g id="patch_71">
    <path d="M 888.369969 231.731969 
L 898.900653 231.731969 
L 898.900653 139.750081 
L 888.369969 139.750081 
z
" clip-path="url(#pa0a8f7e65c)" style="fill: #daa520; stroke: #ffffff; stroke-linejoin: miter"/>
   </g>
   <g id="patch_72">
    <path d="M 900.070729 231.731969 
L 910.601414 231.731969 
L 910.601414 110.985803 
L 900.070729 110.985803 
z
" clip-path="url(#pa0a8f7e65c)" style="fill: #1e90ff; stroke: #ffffff; stroke-linejoin: miter"/>
   </g>
   <g id="patch_73">
    <path d="M 911.77149 231.731969 
L 922.302175 231.731969 
L 922.302175 139.563991 
L 911.77149 139.563991 
z
" clip-path="url(#pa0a8f7e65c)" style="fill: #daa520; stroke: #ffffff; stroke-linejoin: miter"/>
   </g>
   <g id="patch_74">
    <path d="M 923.472251 231.731969 
L 934.002935 231.731969 
L 934.002935 111.51749 
L 923.472251 111.51749 
z
" clip-path="url(#pa0a8f7e65c)" style="fill: #1e90ff; stroke: #ffffff; stroke-linejoin: miter"/>
   </g>
   <g id="patch_75">
    <path d="M 935.173011 231.731969 
L 945.703696 231.731969 
L 945.703696 54.307946 
L 935.173011 54.307946 
z
" clip-path="url(#pa0a8f7e65c)" style="fill: #1e90ff; stroke: #ffffff; stroke-linejoin: miter"/>
   </g>
   <g id="patch_76">
    <path d="M 50.068969 231.731969 
L 50.068969 23.077969 
" style="fill: none; stroke: #cccccc; stroke-width: 1.25; stroke-linejoin: miter; stroke-linecap: square"/>
   </g>
   <g id="patch_77">
    <path d="M 50.068969 231.731969 
L 988.352969 231.731969 
" style="fill: none; stroke: #cccccc; stroke-width: 1.25; stroke-linejoin: miter; stroke-linecap: square"/>
   </g>
   <g id="text_19">
    <!-- AD fold templating tip: per-residue solvent accessibility -->
    <g style="fill: #262626" transform="translate(339.077688 17.077969) scale(0.13 -0.13)">
     <defs>
      <path id="DejaVuSans-27" d="M 1259 4147 
L 1259 519 
L 2022 519 
Q 2988 519 3436 956 
Q 3884 1394 3884 2338 
Q 3884 3275 3436 3711 
Q 2988 4147 2022 4147 
L 1259 4147 
z
M 628 4666 
L 1925 4666 
Q 3281 4666 3915 4102 
Q 4550 3538 4550 2338 
Q 4550 1131 3912 565 
Q 3275 0 1925 0 
L 628 0 
L 628 4666 
z
" transform="scale(0.015625)"/>
      <path id="DejaVuSans-49" d="M 2375 4863 
L 2375 4384 
L 1825 4384 
Q 1516 4384 1395 4259 
Q 1275 4134 1275 3809 
L 1275 3500 
L 2222 3500 
L 2222 3053 
L 1275 3053 
L 1275 0 
L 697 0 
L 697 3053 
L 147 3053 
L 147 3500 
L 697 3500 
L 697 3744 
Q 697 4328 969 4595 
Q 1241 4863 1831 4863 
L 2375 4863 
z
" transform="scale(0.015625)"/>
      <path id="DejaVuSans-52" d="M 1959 3097 
Q 1497 3097 1228 2736 
Q 959 2375 959 1747 
Q 959 1119 1226 758 
Q 1494 397 1959 397 
Q 2419 397 2687 759 
Q 2956 1122 2956 1747 
Q 2956 2369 2687 2733 
Q 2419 3097 1959 3097 
z
M 1959 3584 
Q 2709 3584 3137 3096 
Q 3566 2609 3566 1747 
Q 3566 888 3137 398 
Q 2709 -91 1959 -91 
Q 1206 -91 779 398 
Q 353 888 353 1747 
Q 353 2609 779 3096 
Q 1206 3584 1959 3584 
z
" transform="scale(0.015625)"/>
      <path id="DejaVuSans-53" d="M 1159 525 
L 1159 -1331 
L 581 -1331 
L 581 3500 
L 1159 3500 
L 1159 2969 
Q 1341 3281 1617 3432 
Q 1894 3584 2278 3584 
Q 2916 3584 3314 3078 
Q 3713 2572 3713 1747 
Q 3713 922 3314 415 
Q 2916 -91 2278 -91 
Q 1894 -91 1617 61 
Q 1341 213 1159 525 
z
M 3116 1747 
Q 3116 2381 2855 2742 
Q 2594 3103 2138 3103 
Q 1681 3103 1420 2742 
Q 1159 2381 1159 1747 
Q 1159 1113 1420 752 
Q 1681 391 2138 391 
Q 2594 391 2855 752 
Q 3116 1113 3116 1747 
z
" transform="scale(0.015625)"/>
      <path id="DejaVuSans-1d" d="M 750 794 
L 1409 794 
L 1409 0 
L 750 0 
L 750 794 
z
M 750 3309 
L 1409 3309 
L 1409 2516 
L 750 2516 
L 750 3309 
z
" transform="scale(0.015625)"/>
      <path id="DejaVuSans-10" d="M 313 2009 
L 1997 2009 
L 1997 1497 
L 313 1497 
L 313 2009 
z
" transform="scale(0.015625)"/>
      <path id="DejaVuSans-46" d="M 3122 3366 
L 3122 2828 
Q 2878 2963 2633 3030 
Q 2388 3097 2138 3097 
Q 1578 3097 1268 2742 
Q 959 2388 959 1747 
Q 959 1106 1268 751 
Q 1578 397 2138 397 
Q 2388 397 2633 464 
Q 2878 531 3122 666 
L 3122 134 
Q 2881 22 2623 -34 
Q 2366 -91 2075 -91 
Q 1284 -91 818 406 
Q 353 903 353 1747 
Q 353 2603 823 3093 
Q 1294 3584 2113 3584 
Q 2378 3584 2631 3529 
Q 2884 3475 3122 3366 
z
" transform="scale(0.015625)"/>
      <path id="DejaVuSans-5c" d="M 2059 -325 
Q 1816 -950 1584 -1140 
Q 1353 -1331 966 -1331 
L 506 -1331 
L 506 -850 
L 844 -850 
Q 1081 -850 1212 -737 
Q 1344 -625 1503 -206 
L 1606 56 
L 191 3500 
L 800 3500 
L 1894 763 
L 2988 3500 
L 3597 3500 
L 2059 -325 
z
" transform="scale(0.015625)"/>
     </defs>
     <use xlink:href="#DejaVuSans-24"/>
     <use xlink:href="#DejaVuSans-27" transform="translate(68.40625 0)"/>
     <use xlink:href="#DejaVuSans-3" transform="translate(145.40625 0)"/>
     <use xlink:href="#DejaVuSans-49" transform="translate(177.1875 0)"/>
     <use xlink:href="#DejaVuSans-52" transform="translate(212.390625 0)"/>
     <use xlink:href="#DejaVuSans-4f" transform="translate(273.578125 0)"/>
     <use xlink:href="#DejaVuSans-47" transform="translate(301.359375 0)"/>
     <use xlink:href="#DejaVuSans-3" transform="translate(364.84375 0)"/>
     <use xlink:href="#DejaVuSans-57" transform="translate(396.625 0)"/>
     <use xlink:href="#DejaVuSans-48" transform="translate(435.828125 0)"/>
     <use xlink:href="#DejaVuSans-50" transform="translate(497.359375 0)"/>
     <use xlink:href="#DejaVuSans-53" transform="translate(594.765625 0)"/>
     <use xlink:href="#DejaVuSans-4f" transform="translate(658.25 0)"/>
     <use xlink:href="#DejaVuSans-44" transform="translate(686.03125 0)"/>
     <use xlink:href="#DejaVuSans-57" transform="translate(747.3125 0)"/>
     <use xlink:href="#DejaVuSans-4c" transform="translate(786.515625 0)"/>
     <use xlink:href="#DejaVuSans-51" transform="translate(814.296875 0)"/>
     <use xlink:href="#DejaVuSans-4a" transform="translate(877.671875 0)"/>
     <use xlink:href="#DejaVuSans-3" transform="translate(941.15625 0)"/>
     <use xlink:href="#DejaVuSans-57" transform="translate(972.9375 0)"/>
     <use xlink:href="#DejaVuSans-4c" transform="translate(1012.140625 0)"/>
     <use xlink:href="#DejaVuSans-53" transform="translate(1039.921875 0)"/>
     <use xlink:href="#DejaVuSans-1d" transform="translate(1103.40625 0)"/>
     <use xlink:href="#DejaVuSans-3" transform="translate(1137.09375 0)"/>
     <use xlink:href="#DejaVuSans-53" transform="translate(1168.875 0)"/>
     <use xlink:href="#DejaVuSans-48" transform="translate(1232.359375 0)"/>
     <use xlink:href="#DejaVuSans-55" transform="translate(1293.890625 0)"/>
     <use xlink:href="#DejaVuSans-10" transform="translate(1328.609375 0)"/>
     <use xlink:href="#DejaVuSans-55" transform="translate(1364.6875 0)"/>
     <use xlink:href="#DejaVuSans-48" transform="translate(1403.59375 0)"/>
     <use xlink:href="#DejaVuSans-56" transform="translate(1465.125 0)"/>
     <use xlink:href="#DejaVuSans-4c" transform="translate(1517.21875 0)"/>
     <use xlink:href="#DejaVuSans-47" transform="translate(1545 0)"/>
     <use xlink:href="#DejaVuSans-58" transform="translate(1608.484375 0)"/>
     <use xlink:href="#DejaVuSans-48" transform="translate(1671.859375 0)"/>
     <use xlink:href="#DejaVuSans-3" transform="translate(1733.390625 0)"/>
     <use xlink:href="#DejaVuSans-56" transform="translate(1765.171875 0)"/>
     <use xlink:href="#DejaVuSans-52" transform="translate(1817.265625 0)"/>
     <use xlink:href="#DejaVuSans-4f" transform="translate(1878.453125 0)"/>
     <use xlink:href="#DejaVuSans-59" transform="translate(1906.234375 0)"/>
     <use xlink:href="#DejaVuSans-48" transform="translate(1965.421875 0)"/>
     <use xlink:href="#DejaVuSans-51" transform="translate(2026.953125 0)"/>
     <use xlink:href="#DejaVuSans-57" transform="translate(2090.328125 0)"/>
     <use xlink:href="#DejaVuSans-3" transform="translate(2129.53125 0)"/>
     <use xlink:href="#DejaVuSans-44" transform="translate(2161.3125 0)"/>
     <use xlink:href="#DejaVuSans-46" transform="translate(2222.59375 0)"/>
     <use xlink:href="#DejaVuSans-46" transform="translate(2277.578125 0)"/>
     <use xlink:href="#DejaVuSans-48" transform="translate(2332.5625 0)"/>
     <use xlink:href="#DejaVuSans-56" transform="translate(2394.09375 0)"/>
     <use xlink:href="#DejaVuSans-56" transform="translate(2446.1875 0)"/>
     <use xlink:href="#DejaVuSans-4c" transform="translate(2498.28125 0)"/>
     <use xlink:href="#DejaVuSans-45" transform="translate(2526.0625 0)"/>
     <use xlink:href="#DejaVuSans-4c" transform="translate(2589.546875 0)"/>
     <use xlink:href="#DejaVuSans-4f" transform="translate(2617.328125 0)"/>
     <use xlink:href="#DejaVuSans-4c" transform="translate(2645.109375 0)"/>
     <use xlink:href="#DejaVuSans-57" transform="translate(2672.890625 0)"/>
     <use xlink:href="#DejaVuSans-5c" transform="translate(2712.09375 0)"/>
    </g>
   </g>
   <g id="legend_1">
    <g id="patch_78">
     <path d="M 868.987328 119.997562 
L 980.267969 119.997562 
Q 982.577969 119.997562 982.577969 117.687562 
L 982.577969 31.162969 
Q 982.577969 28.852969 980.267969 28.852969 
L 868.987328 28.852969 
Q 866.677328 28.852969 866.677328 31.162969 
L 866.677328 117.687562 
Q 866.677328 119.997562 868.987328 119.997562 
z
" style="fill: #ffffff; opacity: 0.8; stroke: #cccccc; stroke-linejoin: miter"/>
    </g>
    <g id="text_20">
     <!-- burial class -->
     <g style="fill: #262626" transform="translate(889.043477 43.047) scale(0.126 -0.126)">
      <use xlink:href="#DejaVuSans-45"/>
      <use xlink:href="#DejaVuSans-58" transform="translate(63.484375 0)"/>
      <use xlink:href="#DejaVuSans-55" transform="translate(126.859375 0)"/>
      <use xlink:href="#DejaVuSans-4c" transform="translate(167.96875 0)"/>
      <use xlink:href="#DejaVuSans-44" transform="translate(195.75 0)"/>
      <use xlink:href="#DejaVuSans-4f" transform="translate(257.03125 0)"/>
      <use xlink:href="#DejaVuSans-3" transform="translate(284.8125 0)"/>
      <use xlink:href="#DejaVuSans-46" transform="translate(316.59375 0)"/>
      <use xlink:href="#DejaVuSans-4f" transform="translate(371.578125 0)"/>
      <use xlink:href="#DejaVuSans-44" transform="translate(399.359375 0)"/>
      <use xlink:href="#DejaVuSans-56" transform="translate(460.640625 0)"/>
      <use xlink:href="#DejaVuSans-56" transform="translate(512.734375 0)"/>
     </g>
    </g>
    <g id="patch_79">
     <path d="M 871.297328 60.625148 
L 894.397328 60.625148 
L 894.397328 52.540148 
L 871.297328 52.540148 
z
" style="fill: #8b0000; stroke: #8b0000; stroke-linejoin: miter"/>
    </g>
    <g id="text_21">
     <!-- buried -->
     <g style="fill: #262626" transform="translate(903.637328 60.625148) scale(0.1155 -0.1155)">
      <use xlink:href="#DejaVuSans-45"/>
      <use xlink:href="#DejaVuSans-58" transform="translate(63.484375 0)"/>
      <use xlink:href="#DejaVuSans-55" transform="translate(126.859375 0)"/>
      <use xlink:href="#DejaVuSans-4c" transform="translate(167.96875 0)"/>
      <use xlink:href="#DejaVuSans-48" transform="translate(195.75 0)"/>
      <use xlink:href="#DejaVuSans-47" transform="translate(257.28125 0)"/>
     </g>
    </g>
    <g id="patch_80">
     <path d="M 871.297328 77.951051 
L 894.397328 77.951051 
L 894.397328 69.866051 
L 871.297328 69.866051 
z
" style="fill: #daa520; stroke: #daa520; stroke-linejoin: miter"/>
    </g>
    <g id="text_22">
     <!-- intermediate -->
     <g style="fill: #262626" transform="translate(903.637328 77.951051) scale(0.1155 -0.1155)">
      <use xlink:href="#DejaVuSans-4c"/>
      <use xlink:href="#DejaVuSans-51" transform="translate(27.78125 0)"/>
      <use xlink:href="#DejaVuSans-57" transform="translate(91.15625 0)"/>
      <use xlink:href="#DejaVuSans-48" transform="translate(130.359375 0)"/>
      <use xlink:href="#DejaVuSans-55" transform="translate(191.890625 0)"/>
      <use xlink:href="#DejaVuSans-50" transform="translate(231.25 0)"/>
      <use xlink:href="#DejaVuSans-48" transform="translate(328.65625 0)"/>
      <use xlink:href="#DejaVuSans-47" transform="translate(390.1875 0)"/>
      <use xlink:href="#DejaVuSans-4c" transform="translate(453.671875 0)"/>
      <use xlink:href="#DejaVuSans-44" transform="translate(481.453125 0)"/>
      <use xlink:href="#DejaVuSans-57" transform="translate(542.734375 0)"/>
      <use xlink:href="#DejaVuSans-48" transform="translate(581.9375 0)"/>
     </g>
    </g>
    <g id="patch_81">
     <path d="M 871.297328 95.276953 
L 894.397328 95.276953 
L 894.397328 87.191953 
L 871.297328 87.191953 
z
" style="fill: #1e90ff; stroke: #1e90ff; stroke-linejoin: miter"/>
    </g>
    <g id="text_23">
     <!-- exposed -->
     <g style="fill: #262626" transform="translate(903.637328 95.276953) scale(0.1155 -0.1155)">
      <defs>
       <path id="DejaVuSans-5b" d="M 3513 3500 
L 2247 1797 
L 3578 0 
L 2900 0 
L 1881 1375 
L 863 0 
L 184 0 
L 1544 1831 
L 300 3500 
L 978 3500 
L 1906 2253 
L 2834 3500 
L 3513 3500 
z
" transform="scale(0.015625)"/>
      </defs>
      <use xlink:href="#DejaVuSans-48"/>
      <use xlink:href="#DejaVuSans-5b" transform="translate(59.78125 0)"/>
      <use xlink:href="#DejaVuSans-53" transform="translate(118.96875 0)"/>
      <use xlink:href="#DejaVuSans-52" transform="translate(182.453125 0)"/>
      <use xlink:href="#DejaVuSans-56" transform="translate(243.640625 0)"/>
      <use xlink:href="#DejaVuSans-48" transform="translate(295.734375 0)"/>
      <use xlink:href="#DejaVuSans-47" transform="translate(357.265625 0)"/>
     </g>
    </g>
    <g id="patch_82">
     <path d="M 871.297328 112.602855 
L 894.397328 112.602855 
L 894.397328 104.517855 
L 871.297328 104.517855 
z
" style="fill: #808080; stroke: #808080; stroke-linejoin: miter"/>
    </g>
    <g id="text_24">
     <!-- unknown -->
     <g style="fill: #262626" transform="translate(903.637328 112.602855) scale(0.1155 -0.1155)">
      <defs>
       <path id="DejaVuSans-4e" d="M 581 4863 
L 1159 4863 
L 1159 1991 
L 2875 3500 
L 3609 3500 
L 1753 1863 
L 3688 0 
L 2938 0 
L 1159 1709 
L 1159 0 
L 581 0 
L 581 4863 
z
" transform="scale(0.015625)"/>
       <path id="DejaVuSans-5a" d="M 269 3500 
L 844 3500 
L 1563 769 
L 2278 3500 
L 2956 3500 
L 3675 769 
L 4391 3500 
L 4966 3500 
L 4050 0 
L 3372 0 
L 2619 2869 
L 1863 0 
L 1184 0 
L 269 3500 
z
" transform="scale(0.015625)"/>
      </defs>
      <use xlink:href="#DejaVuSans-58"/>
      <use xlink:href="#DejaVuSans-51" transform="translate(63.375 0)"/>
      <use xlink:href="#DejaVuSans-4e" transform="translate(126.75 0)"/>
      <use xlink:href="#DejaVuSans-51" transform="translate(184.65625 0)"/>
      <use xlink:href="#DejaVuSans-52" transform="translate(248.03125 0)"/>
      <use xlink:href="#DejaVuSans-5a" transform="translate(309.21875 0)"/>
      <use xlink:href="#DejaVuSans-51" transform="translate(391 0)"/>
     </g>
    </g>
   </g>
  </g>
 </g>
 <defs>
  <clipPath id="pa0a8f7e65c">
   <rect x="50.068969" y="23.077969" width="938.284" height="208.654"/>
  </clipPath>
 </defs>
</svg>
