<?xml version="1.0" encoding="utf-8" standalone="no"?>
<!DOCTYPE svg PUBLIC "-//W3C//DTD SVG 1.1//EN"
  "http://www.w3.org/Graphics/SVG/1.1/DTD/svg11.dtd">
<svg xmlns:xlink="http://www.w3.org/1999/xlink" width="995.184pt" height="563.061656pt" viewBox="0 0 995.184 563.061656" xmlns="http://www.w3.org/2000/svg" version="1.1">
 <metadata>
  <rdf:RDF xmlns:dc="http://purl.org/dc/elements/1.1/" xmlns:cc="http://creativecommons.org/ns#" xmlns:rdf="http://www.w3.org/1999/02/22-rdf-syntax-ns#">
   <cc:Work>
    <dc:type rdf:resource="http://purl.org/dc/dcmitype/StillImage"/>
    <dc:date>2026-07-18T17:00:05.549258</dc:date>
    <dc:format>image/svg+xml</dc:format>
    <dc:creator>
     <cc:Agent>
      <dc:title>Matplotlib v3.11.1, https://matplotlib.org/</dc:title>
     </cc:Agent>
    </dc:creator>
   </cc:Work>
  </rdf:RDF>
 </metadata>
 <defs>
  <style type="text/css">*{stroke-linejoin: round; stroke-linecap: butt}</style>
 </defs>
 <g id="figure_1">
  <g id="patch_1">
   <path d="M 0 563.061656 
L 995.184 563.061656 
L 995.184 0 
L 0 0 
z
" style="fill: #ffffff"/>
  </g>
  <g id="axes_1">
   <g id="patch_2">
    <path d="M 79.316471 356.637656 
L 187.491176 356.637656 
L 187.491176 223.821656 
L 79.316471 223.821656 
z
" clip-path="url(#p32a3125f12)" style="fill: #0173b2; opacity: 0.7; stroke: #ffffff; stroke-linejoin: miter"/>
   </g>
   <g id="patch_3">
    <path d="M 209.126118 356.637656 
L 317.300824 356.637656 
L 317.300824 223.821656 
L 209.126118 223.821656 
z
" clip-path="url(#p32a3125f12)" style="fill: #de8f05; opacity: 0.7; stroke: #ffffff; stroke-linejoin: miter"/>
   </g>
   <g id="patch_4">
    <path d="M 338.935765 356.637656 
L 447.110471 356.637656 
L 447.110471 223.821656 
L 338.935765 223.821656 
z
" clip-path="url(#p32a3125f12)" style="fill: #029e73; opacity: 0.7; stroke: #ffffff; stroke-linejoin: miter"/>
   </g>
   <g id="patch_5">
    <path d="M 468.745412 356.637656 
L 576.920118 356.637656 
L 576.920118 223.821656 
L 468.745412 223.821656 
z
" clip-path="url(#p32a3125f12)" style="fill: #d55e00; opacity: 0.7; stroke: #ffffff; stroke-linejoin: miter"/>
   </g>
   <g id="patch_6">
    <path d="M 598.555059 356.637656 
L 706.729765 356.637656 
L 706.729765 223.821656 
L 598.555059 223.821656 
z
" clip-path="url(#p32a3125f12)" style="fill: #cc78bc; opacity: 0.7; stroke: #ffffff; stroke-linejoin: miter"/>
   </g>
   <g id="patch_7">
    <path d="M 728.364706 356.637656 
L 836.539412 356.637656 
L 836.539412 223.821656 
L 728.364706 223.821656 
z
" clip-path="url(#p32a3125f12)" style="fill: #ca9161; opacity: 0.7; stroke: #ffffff; stroke-linejoin: miter"/>
   </g>
   <g id="patch_8">
    <path d="M 858.174353 356.637656 
L 966.349059 356.637656 
L 966.349059 223.821656 
L 858.174353 223.821656 
z
" clip-path="url(#p32a3125f12)" style="fill: #0173b2; opacity: 0.7; stroke: #ffffff; stroke-linejoin: miter"/>
   </g>
   <g id="text_1">
    <!-- 1. Tau strain -->
    <g style="fill: #262626" transform="translate(107.351324 282.235672) scale(0.085 -0.085)">
     <defs>
      <path id="DejaVuSans-14" d="M 794 531 
L 1825 531 
L 1825 4091 
L 703 3866 
L 703 4441 
L 1819 4666 
L 2450 4666 
L 2450 531 
L 3481 531 
L 3481 0 
L 794 0 
L 794 531 
z
" transform="scale(0.015625)"/>
      <path id="DejaVuSans-11" d="M 684 794 
L 1344 794 
L 1344 0 
L 684 0 
L 684 794 
z
" transform="scale(0.015625)"/>
      <path id="DejaVuSans-3" transform="scale(0.015625)"/>
      <path id="DejaVuSans-37" d="M -19 4666 
L 3928 4666 
L 3928 4134 
L 2272 4134 
L 2272 0 
L 1638 0 
L 1638 4134 
L -19 4134 
L -19 4666 
z
" transform="scale(0.015625)"/>
      <path id="DejaVuSans-44" d="M 2194 1759 
Q 1497 1759 1228 1600 
Q 959 1441 959 1056 
Q 959 750 1161 570 
Q 1363 391 1709 391 
Q 2188 391 2477 730 
Q 2766 1069 2766 1631 
L 2766 1759 
L 2194 1759 
z
M 3341 1997 
L 3341 0 
L 2766 0 
L 2766 531 
Q 2569 213 2275 61 
Q 1981 -91 1556 -91 
Q 1019 -91 701 211 
Q 384 513 384 1019 
Q 384 1609 779 1909 
Q 1175 2209 1959 2209 
L 2766 2209 
L 2766 2266 
Q 2766 2663 2505 2880 
Q 2244 3097 1772 3097 
Q 1472 3097 1187 3025 
Q 903 2953 641 2809 
L 641 3341 
Q 956 3463 1253 3523 
Q 1550 3584 1831 3584 
Q 2591 3584 2966 3190 
Q 3341 2797 3341 1997 
z
" transform="scale(0.015625)"/>
      <path id="DejaVuSans-58" d="M 544 1381 
L 544 3500 
L 1119 3500 
L 1119 1403 
Q 1119 906 1312 657 
Q 1506 409 1894 409 
Q 2359 409 2629 706 
Q 2900 1003 2900 1516 
L 2900 3500 
L 3475 3500 
L 3475 0 
L 2900 0 
L 2900 538 
Q 2691 219 2414 64 
Q 2138 -91 1772 -91 
Q 1169 -91 856 284 
Q 544 659 544 1381 
z
M 1991 3584 
L 1991 3584 
z
" transform="scale(0.015625)"/>
      <path id="DejaVuSans-56" d="M 2834 3397 
L 2834 2853 
Q 2591 2978 2328 3040 
Q 2066 3103 1784 3103 
Q 1356 3103 1142 2972 
Q 928 2841 928 2578 
Q 928 2378 1081 2264 
Q 1234 2150 1697 2047 
L 1894 2003 
Q 2506 1872 2764 1633 
Q 3022 1394 3022 966 
Q 3022 478 2636 193 
Q 2250 -91 1575 -91 
Q 1294 -91 989 -36 
Q 684 19 347 128 
L 347 722 
Q 666 556 975 473 
Q 1284 391 1588 391 
Q 1994 391 2212 530 
Q 2431 669 2431 922 
Q 2431 1156 2273 1281 
Q 2116 1406 1581 1522 
L 1381 1569 
Q 847 1681 609 1914 
Q 372 2147 372 2553 
Q 372 3047 722 3315 
Q 1072 3584 1716 3584 
Q 2034 3584 2315 3537 
Q 2597 3491 2834 3397 
z
" transform="scale(0.015625)"/>
      <path id="DejaVuSans-57" d="M 1172 4494 
L 1172 3500 
L 2356 3500 
L 2356 3053 
L 1172 3053 
L 1172 1153 
Q 1172 725 1289 603 
Q 1406 481 1766 481 
L 2356 481 
L 2356 0 
L 1766 0 
Q 1100 0 847 248 
Q 594 497 594 1153 
L 594 3053 
L 172 3053 
L 172 3500 
L 594 3500 
L 594 4494 
L 1172 4494 
z
" transform="scale(0.015625)"/>
      <path id="DejaVuSans-55" d="M 2631 2963 
Q 2534 3019 2420 3045 
Q 2306 3072 2169 3072 
Q 1681 3072 1420 2755 
Q 1159 2438 1159 1844 
L 1159 0 
L 581 0 
L 581 3500 
L 1159 3500 
L 1159 2956 
Q 1341 3275 1631 3429 
Q 1922 3584 2338 3584 
Q 2397 3584 2469 3576 
Q 2541 3569 2628 3553 
L 2631 2963 
z
" transform="scale(0.015625)"/>
      <path id="DejaVuSans-4c" d="M 603 3500 
L 1178 3500 
L 1178 0 
L 603 0 
L 603 3500 
z
M 603 4863 
L 1178 4863 
L 1178 4134 
L 603 4134 
L 603 4863 
z
" transform="scale(0.015625)"/>
      <path id="DejaVuSans-51" d="M 3513 2113 
L 3513 0 
L 2938 0 
L 2938 2094 
Q 2938 2591 2744 2837 
Q 2550 3084 2163 3084 
Q 1697 3084 1428 2787 
Q 1159 2491 1159 1978 
L 1159 0 
L 581 0 
L 581 3500 
L 1159 3500 
L 1159 2956 
Q 1366 3272 1645 3428 
Q 1925 3584 2291 3584 
Q 2894 3584 3203 3211 
Q 3513 2838 3513 2113 
z
" transform="scale(0.015625)"/>
     </defs>
     <use xlink:href="#DejaVuSans-14"/>
     <use xlink:href="#DejaVuSans-11" transform="translate(63.625 0)"/>
     <use xlink:href="#DejaVuSans-3" transform="translate(95.40625 0)"/>
     <use xlink:href="#DejaVuSans-37" transform="translate(127.1875 0)"/>
     <use xlink:href="#DejaVuSans-44" transform="translate(171.71875 0)"/>
     <use xlink:href="#DejaVuSans-58" transform="translate(233 0)"/>
     <use xlink:href="#DejaVuSans-3" transform="translate(296.375 0)"/>
     <use xlink:href="#DejaVuSans-56" transform="translate(328.15625 0)"/>
     <use xlink:href="#DejaVuSans-57" transform="translate(380.25 0)"/>
     <use xlink:href="#DejaVuSans-55" transform="translate(419.453125 0)"/>
     <use xlink:href="#DejaVuSans-44" transform="translate(460.5625 0)"/>
     <use xlink:href="#DejaVuSans-4c" transform="translate(521.84375 0)"/>
     <use xlink:href="#DejaVuSans-51" transform="translate(549.625 0)"/>
    </g>
    <!-- atlas (M2) -->
    <g style="fill: #262626" transform="translate(112.09605 292.437996) scale(0.085 -0.085)">
     <defs>
      <path id="DejaVuSans-4f" d="M 603 4863 
L 1178 4863 
L 1178 0 
L 603 0 
L 603 4863 
z
" transform="scale(0.015625)"/>
      <path id="DejaVuSans-b" d="M 1984 4856 
Q 1566 4138 1362 3434 
Q 1159 2731 1159 2009 
Q 1159 1288 1364 580 
Q 1569 -128 1984 -844 
L 1484 -844 
Q 1016 -109 783 600 
Q 550 1309 550 2009 
Q 550 2706 781 3412 
Q 1013 4119 1484 4856 
L 1984 4856 
z
" transform="scale(0.015625)"/>
      <path id="DejaVuSans-30" d="M 628 4666 
L 1569 4666 
L 2759 1491 
L 3956 4666 
L 4897 4666 
L 4897 0 
L 4281 0 
L 4281 4097 
L 3078 897 
L 2444 897 
L 1241 4097 
L 1241 0 
L 628 0 
L 628 4666 
z
" transform="scale(0.015625)"/>
      <path id="DejaVuSans-15" d="M 1228 531 
L 3431 531 
L 3431 0 
L 469 0 
L 469 531 
Q 828 903 1448 1529 
Q 2069 2156 2228 2338 
Q 2531 2678 2651 2914 
Q 2772 3150 2772 3378 
Q 2772 3750 2511 3984 
Q 2250 4219 1831 4219 
Q 1534 4219 1204 4116 
Q 875 4013 500 3803 
L 500 4441 
Q 881 4594 1212 4672 
Q 1544 4750 1819 4750 
Q 2544 4750 2975 4387 
Q 3406 4025 3406 3419 
Q 3406 3131 3298 2873 
Q 3191 2616 2906 2266 
Q 2828 2175 2409 1742 
Q 1991 1309 1228 531 
z
" transform="scale(0.015625)"/>
      <path id="DejaVuSans-c" d="M 513 4856 
L 1013 4856 
Q 1481 4119 1714 3412 
Q 1947 2706 1947 2009 
Q 1947 1309 1714 600 
Q 1481 -109 1013 -844 
L 513 -844 
Q 928 -128 1133 580 
Q 1338 1288 1338 2009 
Q 1338 2731 1133 3434 
Q 928 4138 513 4856 
z
" transform="scale(0.015625)"/>
     </defs>
     <use xlink:href="#DejaVuSans-44"/>
     <use xlink:href="#DejaVuSans-57" transform="translate(61.28125 0)"/>
     <use xlink:href="#DejaVuSans-4f" transform="translate(100.484375 0)"/>
     <use xlink:href="#DejaVuSans-44" transform="translate(128.265625 0)"/>
     <use xlink:href="#DejaVuSans-56" transform="translate(189.546875 0)"/>
     <use xlink:href="#DejaVuSans-3" transform="translate(241.640625 0)"/>
     <use xlink:href="#DejaVuSans-b" transform="translate(273.421875 0)"/>
     <use xlink:href="#DejaVuSans-30" transform="translate(312.4375 0)"/>
     <use xlink:href="#DejaVuSans-15" transform="translate(398.71875 0)"/>
     <use xlink:href="#DejaVuSans-c" transform="translate(462.34375 0)"/>
    </g>
    <!-- 8 folds characterized -->
    <g style="fill: #262626" transform="translate(88.733003 302.64032) scale(0.085 -0.085)">
     <defs>
      <path id="DejaVuSans-1b" d="M 2034 2216 
Q 1584 2216 1326 1975 
Q 1069 1734 1069 1313 
Q 1069 891 1326 650 
Q 1584 409 2034 409 
Q 2484 409 2743 651 
Q 3003 894 3003 1313 
Q 3003 1734 2745 1975 
Q 2488 2216 2034 2216 
z
M 1403 2484 
Q 997 2584 770 2862 
Q 544 3141 544 3541 
Q 544 4100 942 4425 
Q 1341 4750 2034 4750 
Q 2731 4750 3128 4425 
Q 3525 4100 3525 3541 
Q 3525 3141 3298 2862 
Q 3072 2584 2669 2484 
Q 3125 2378 3379 2068 
Q 3634 1759 3634 1313 
Q 3634 634 3220 271 
Q 2806 -91 2034 -91 
Q 1263 -91 848 271 
Q 434 634 434 1313 
Q 434 1759 690 2068 
Q 947 2378 1403 2484 
z
M 1172 3481 
Q 1172 3119 1398 2916 
Q 1625 2713 2034 2713 
Q 2441 2713 2670 2916 
Q 2900 3119 2900 3481 
Q 2900 3844 2670 4047 
Q 2441 4250 2034 4250 
Q 1625 4250 1398 4047 
Q 1172 3844 1172 3481 
z
" transform="scale(0.015625)"/>
      <path id="DejaVuSans-49" d="M 2375 4863 
L 2375 4384 
L 1825 4384 
Q 1516 4384 1395 4259 
Q 1275 4134 1275 3809 
L 1275 3500 
L 2222 3500 
L 2222 3053 
L 1275 3053 
L 1275 0 
L 697 0 
L 697 3053 
L 147 3053 
L 147 3500 
L 697 3500 
L 697 3744 
Q 697 4328 969 4595 
Q 1241 4863 1831 4863 
L 2375 4863 
z
" transform="scale(0.015625)"/>
      <path id="DejaVuSans-52" d="M 1959 3097 
Q 1497 3097 1228 2736 
Q 959 2375 959 1747 
Q 959 1119 1226 758 
Q 1494 397 1959 397 
Q 2419 397 2687 759 
Q 2956 1122 2956 1747 
Q 2956 2369 2687 2733 
Q 2419 3097 1959 3097 
z
M 1959 3584 
Q 2709 3584 3137 3096 
Q 3566 2609 3566 1747 
Q 3566 888 3137 398 
Q 2709 -91 1959 -91 
Q 1206 -91 779 398 
Q 353 888 353 1747 
Q 353 2609 779 3096 
Q 1206 3584 1959 3584 
z
" transform="scale(0.015625)"/>
      <path id="DejaVuSans-47" d="M 2906 2969 
L 2906 4863 
L 3481 4863 
L 3481 0 
L 2906 0 
L 2906 525 
Q 2725 213 2448 61 
Q 2172 -91 1784 -91 
Q 1150 -91 751 415 
Q 353 922 353 1747 
Q 353 2572 751 3078 
Q 1150 3584 1784 3584 
Q 2172 3584 2448 3432 
Q 2725 3281 2906 2969 
z
M 947 1747 
Q 947 1113 1208 752 
Q 1469 391 1925 391 
Q 2381 391 2643 752 
Q 2906 1113 2906 1747 
Q 2906 2381 2643 2742 
Q 2381 3103 1925 3103 
Q 1469 3103 1208 2742 
Q 947 2381 947 1747 
z
" transform="scale(0.015625)"/>
      <path id="DejaVuSans-46" d="M 3122 3366 
L 3122 2828 
Q 2878 2963 2633 3030 
Q 2388 3097 2138 3097 
Q 1578 3097 1268 2742 
Q 959 2388 959 1747 
Q 959 1106 1268 751 
Q 1578 397 2138 397 
Q 2388 397 2633 464 
Q 2878 531 3122 666 
L 3122 134 
Q 2881 22 2623 -34 
Q 2366 -91 2075 -91 
Q 1284 -91 818 406 
Q 353 903 353 1747 
Q 353 2603 823 3093 
Q 1294 3584 2113 3584 
Q 2378 3584 2631 3529 
Q 2884 3475 3122 3366 
z
" transform="scale(0.015625)"/>
      <path id="DejaVuSans-4b" d="M 3513 2113 
L 3513 0 
L 2938 0 
L 2938 2094 
Q 2938 2591 2744 2837 
Q 2550 3084 2163 3084 
Q 1697 3084 1428 2787 
Q 1159 2491 1159 1978 
L 1159 0 
L 581 0 
L 581 4863 
L 1159 4863 
L 1159 2956 
Q 1366 3272 1645 3428 
Q 1925 3584 2291 3584 
Q 2894 3584 3203 3211 
Q 3513 2838 3513 2113 
z
" transform="scale(0.015625)"/>
      <path id="DejaVuSans-48" d="M 3597 1894 
L 3597 1613 
L 953 1613 
Q 991 1019 1311 708 
Q 1631 397 2203 397 
Q 2534 397 2845 478 
Q 3156 559 3463 722 
L 3463 178 
Q 3153 47 2828 -22 
Q 2503 -91 2169 -91 
Q 1331 -91 842 396 
Q 353 884 353 1716 
Q 353 2575 817 3079 
Q 1281 3584 2069 3584 
Q 2775 3584 3186 3129 
Q 3597 2675 3597 1894 
z
M 3022 2063 
Q 3016 2534 2758 2815 
Q 2500 3097 2075 3097 
Q 1594 3097 1305 2825 
Q 1016 2553 972 2059 
L 3022 2063 
z
" transform="scale(0.015625)"/>
      <path id="DejaVuSans-5d" d="M 353 3500 
L 3084 3500 
L 3084 2975 
L 922 459 
L 3084 459 
L 3084 0 
L 275 0 
L 275 525 
L 2438 3041 
L 353 3041 
L 353 3500 
z
" transform="scale(0.015625)"/>
     </defs>
     <use xlink:href="#DejaVuSans-1b"/>
     <use xlink:href="#DejaVuSans-3" transform="translate(63.625 0)"/>
     <use xlink:href="#DejaVuSans-49" transform="translate(95.40625 0)"/>
     <use xlink:href="#DejaVuSans-52" transform="translate(130.609375 0)"/>
     <use xlink:href="#DejaVuSans-4f" transform="translate(191.796875 0)"/>
     <use xlink:href="#DejaVuSans-47" transform="translate(219.578125 0)"/>
     <use xlink:href="#DejaVuSans-56" transform="translate(283.0625 0)"/>
     <use xlink:href="#DejaVuSans-3" transform="translate(335.15625 0)"/>
     <use xlink:href="#DejaVuSans-46" transform="translate(366.9375 0)"/>
     <use xlink:href="#DejaVuSans-4b" transform="translate(421.921875 0)"/>
     <use xlink:href="#DejaVuSans-44" transform="translate(485.296875 0)"/>
     <use xlink:href="#DejaVuSans-55" transform="translate(546.578125 0)"/>
     <use xlink:href="#DejaVuSans-44" transform="translate(587.6875 0)"/>
     <use xlink:href="#DejaVuSans-46" transform="translate(648.96875 0)"/>
     <use xlink:href="#DejaVuSans-57" transform="translate(703.953125 0)"/>
     <use xlink:href="#DejaVuSans-48" transform="translate(743.15625 0)"/>
     <use xlink:href="#DejaVuSans-55" transform="translate(804.6875 0)"/>
     <use xlink:href="#DejaVuSans-4c" transform="translate(845.796875 0)"/>
     <use xlink:href="#DejaVuSans-5d" transform="translate(873.578125 0)"/>
     <use xlink:href="#DejaVuSans-48" transform="translate(926.0625 0)"/>
     <use xlink:href="#DejaVuSans-47" transform="translate(987.59375 0)"/>
    </g>
   </g>
   <g id="patch_9">
    <path d="M 189.490401 290.229656 
Q 198.308736 290.229656 205.45002 290.229656 
" style="fill: none; stroke: #ffffff; stroke-width: 1.5; stroke-linecap: round"/>
    <path d="M 200.41002 287.709656 
L 205.45002 290.229656 
L 200.41002 292.749656 
" style="fill: none; stroke: #ffffff; stroke-width: 1.5; stroke-linecap: round"/>
   </g>
   <g id="text_2">
    <!-- 2. AD strain -->
    <g style="fill: #262626" transform="translate(238.171674 282.235672) scale(0.085 -0.085)">
     <defs>
      <path id="DejaVuSans-24" d="M 2188 4044 
L 1331 1722 
L 3047 1722 
L 2188 4044 
z
M 1831 4666 
L 2547 4666 
L 4325 0 
L 3669 0 
L 3244 1197 
L 1141 1197 
L 716 0 
L 50 0 
L 1831 4666 
z
" transform="scale(0.015625)"/>
      <path id="DejaVuSans-27" d="M 1259 4147 
L 1259 519 
L 2022 519 
Q 2988 519 3436 956 
Q 3884 1394 3884 2338 
Q 3884 3275 3436 3711 
Q 2988 4147 2022 4147 
L 1259 4147 
z
M 628 4666 
L 1925 4666 
Q 3281 4666 3915 4102 
Q 4550 3538 4550 2338 
Q 4550 1131 3912 565 
Q 3275 0 1925 0 
L 628 0 
L 628 4666 
z
" transform="scale(0.015625)"/>
     </defs>
     <use xlink:href="#DejaVuSans-15"/>
     <use xlink:href="#DejaVuSans-11" transform="translate(63.625 0)"/>
     <use xlink:href="#DejaVuSans-3" transform="translate(95.40625 0)"/>
     <use xlink:href="#DejaVuSans-24" transform="translate(127.1875 0)"/>
     <use xlink:href="#DejaVuSans-27" transform="translate(195.59375 0)"/>
     <use xlink:href="#DejaVuSans-3" transform="translate(272.59375 0)"/>
     <use xlink:href="#DejaVuSans-56" transform="translate(304.375 0)"/>
     <use xlink:href="#DejaVuSans-57" transform="translate(356.46875 0)"/>
     <use xlink:href="#DejaVuSans-55" transform="translate(395.671875 0)"/>
     <use xlink:href="#DejaVuSans-44" transform="translate(436.78125 0)"/>
     <use xlink:href="#DejaVuSans-4c" transform="translate(498.0625 0)"/>
     <use xlink:href="#DejaVuSans-51" transform="translate(525.84375 0)"/>
    </g>
    <!-- fingerprint -->
    <g style="fill: #262626" transform="translate(240.797377 292.437996) scale(0.085 -0.085)">
     <defs>
      <path id="DejaVuSans-13af" d="M 3431 3500 
L 3431 0 
L 2853 0 
L 2853 3053 
L 1275 3053 
L 1275 0 
L 697 0 
L 697 3053 
L 147 3053 
L 147 3500 
L 697 3500 
L 697 3744 
Q 697 4316 967 4589 
Q 1238 4863 1797 4863 
L 2375 4863 
L 2375 4384 
L 1825 4384 
Q 1516 4384 1395 4259 
Q 1275 4134 1275 3809 
L 1275 3500 
L 3431 3500 
z
M 2853 4856 
L 3431 4856 
L 3431 4128 
L 2853 4128 
L 2853 4856 
z
" transform="scale(0.015625)"/>
      <path id="DejaVuSans-4a" d="M 2906 1791 
Q 2906 2416 2648 2759 
Q 2391 3103 1925 3103 
Q 1463 3103 1205 2759 
Q 947 2416 947 1791 
Q 947 1169 1205 825 
Q 1463 481 1925 481 
Q 2391 481 2648 825 
Q 2906 1169 2906 1791 
z
M 3481 434 
Q 3481 -459 3084 -895 
Q 2688 -1331 1869 -1331 
Q 1566 -1331 1297 -1286 
Q 1028 -1241 775 -1147 
L 775 -588 
Q 1028 -725 1275 -790 
Q 1522 -856 1778 -856 
Q 2344 -856 2625 -561 
Q 2906 -266 2906 331 
L 2906 616 
Q 2728 306 2450 153 
Q 2172 0 1784 0 
Q 1141 0 747 490 
Q 353 981 353 1791 
Q 353 2603 747 3093 
Q 1141 3584 1784 3584 
Q 2172 3584 2450 3431 
Q 2728 3278 2906 2969 
L 2906 3500 
L 3481 3500 
L 3481 434 
z
" transform="scale(0.015625)"/>
      <path id="DejaVuSans-53" d="M 1159 525 
L 1159 -1331 
L 581 -1331 
L 581 3500 
L 1159 3500 
L 1159 2969 
Q 1341 3281 1617 3432 
Q 1894 3584 2278 3584 
Q 2916 3584 3314 3078 
Q 3713 2572 3713 1747 
Q 3713 922 3314 415 
Q 2916 -91 2278 -91 
Q 1894 -91 1617 61 
Q 1341 213 1159 525 
z
M 3116 1747 
Q 3116 2381 2855 2742 
Q 2594 3103 2138 3103 
Q 1681 3103 1420 2742 
Q 1159 2381 1159 1747 
Q 1159 1113 1420 752 
Q 1681 391 2138 391 
Q 2594 391 2855 752 
Q 3116 1113 3116 1747 
z
" transform="scale(0.015625)"/>
     </defs>
     <use xlink:href="#DejaVuSans-13af"/>
     <use xlink:href="#DejaVuSans-51" transform="translate(62.984375 0)"/>
     <use xlink:href="#DejaVuSans-4a" transform="translate(126.359375 0)"/>
     <use xlink:href="#DejaVuSans-48" transform="translate(189.84375 0)"/>
     <use xlink:href="#DejaVuSans-55" transform="translate(251.375 0)"/>
     <use xlink:href="#DejaVuSans-53" transform="translate(292.484375 0)"/>
     <use xlink:href="#DejaVuSans-55" transform="translate(355.96875 0)"/>
     <use xlink:href="#DejaVuSans-4c" transform="translate(397.078125 0)"/>
     <use xlink:href="#DejaVuSans-51" transform="translate(424.859375 0)"/>
     <use xlink:href="#DejaVuSans-57" transform="translate(488.234375 0)"/>
    </g>
    <!-- selectivity handle -->
    <g style="fill: #262626" transform="translate(225.691283 302.64032) scale(0.085 -0.085)">
     <defs>
      <path id="DejaVuSans-59" d="M 191 3500 
L 800 3500 
L 1894 563 
L 2988 3500 
L 3597 3500 
L 2284 0 
L 1503 0 
L 191 3500 
z
" transform="scale(0.015625)"/>
      <path id="DejaVuSans-5c" d="M 2059 -325 
Q 1816 -950 1584 -1140 
Q 1353 -1331 966 -1331 
L 506 -1331 
L 506 -850 
L 844 -850 
Q 1081 -850 1212 -737 
Q 1344 -625 1503 -206 
L 1606 56 
L 191 3500 
L 800 3500 
L 1894 763 
L 2988 3500 
L 3597 3500 
L 2059 -325 
z
" transform="scale(0.015625)"/>
     </defs>
     <use xlink:href="#DejaVuSans-56"/>
     <use xlink:href="#DejaVuSans-48" transform="translate(52.09375 0)"/>
     <use xlink:href="#DejaVuSans-4f" transform="translate(113.625 0)"/>
     <use xlink:href="#DejaVuSans-48" transform="translate(141.40625 0)"/>
     <use xlink:href="#DejaVuSans-46" transform="translate(202.9375 0)"/>
     <use xlink:href="#DejaVuSans-57" transform="translate(257.921875 0)"/>
     <use xlink:href="#DejaVuSans-4c" transform="translate(297.125 0)"/>
     <use xlink:href="#DejaVuSans-59" transform="translate(324.90625 0)"/>
     <use xlink:href="#DejaVuSans-4c" transform="translate(384.09375 0)"/>
     <use xlink:href="#DejaVuSans-57" transform="translate(411.875 0)"/>
     <use xlink:href="#DejaVuSans-5c" transform="translate(451.078125 0)"/>
     <use xlink:href="#DejaVuSans-3" transform="translate(510.265625 0)"/>
     <use xlink:href="#DejaVuSans-4b" transform="translate(542.046875 0)"/>
     <use xlink:href="#DejaVuSans-44" transform="translate(605.421875 0)"/>
     <use xlink:href="#DejaVuSans-51" transform="translate(666.703125 0)"/>
     <use xlink:href="#DejaVuSans-47" transform="translate(730.078125 0)"/>
     <use xlink:href="#DejaVuSans-4f" transform="translate(793.5625 0)"/>
     <use xlink:href="#DejaVuSans-48" transform="translate(821.34375 0)"/>
    </g>
   </g>
   <g id="patch_10">
    <path d="M 319.300048 290.229656 
Q 328.118383 290.229656 335.259667 290.229656 
" style="fill: none; stroke: #ffffff; stroke-width: 1.5; stroke-linecap: round"/>
    <path d="M 330.219667 287.709656 
L 335.259667 290.229656 
L 330.219667 292.749656 
" style="fill: none; stroke: #ffffff; stroke-width: 1.5; stroke-linecap: round"/>
   </g>
   <g id="text_3">
    <!-- 3. Aggregation -->
    <g style="fill: #262626" transform="translate(361.602336 282.235672) scale(0.085 -0.085)">
     <defs>
      <path id="DejaVuSans-16" d="M 2597 2516 
Q 3050 2419 3304 2112 
Q 3559 1806 3559 1356 
Q 3559 666 3084 287 
Q 2609 -91 1734 -91 
Q 1441 -91 1130 -33 
Q 819 25 488 141 
L 488 750 
Q 750 597 1062 519 
Q 1375 441 1716 441 
Q 2309 441 2620 675 
Q 2931 909 2931 1356 
Q 2931 1769 2642 2001 
Q 2353 2234 1838 2234 
L 1294 2234 
L 1294 2753 
L 1863 2753 
Q 2328 2753 2575 2939 
Q 2822 3125 2822 3475 
Q 2822 3834 2567 4026 
Q 2313 4219 1838 4219 
Q 1578 4219 1281 4162 
Q 984 4106 628 3988 
L 628 4550 
Q 988 4650 1302 4700 
Q 1616 4750 1894 4750 
Q 2613 4750 3031 4423 
Q 3450 4097 3450 3541 
Q 3450 3153 3228 2886 
Q 3006 2619 2597 2516 
z
" transform="scale(0.015625)"/>
     </defs>
     <use xlink:href="#DejaVuSans-16"/>
     <use xlink:href="#DejaVuSans-11" transform="translate(63.625 0)"/>
     <use xlink:href="#DejaVuSans-3" transform="translate(95.40625 0)"/>
     <use xlink:href="#DejaVuSans-24" transform="translate(127.1875 0)"/>
     <use xlink:href="#DejaVuSans-4a" transform="translate(195.59375 0)"/>
     <use xlink:href="#DejaVuSans-4a" transform="translate(259.078125 0)"/>
     <use xlink:href="#DejaVuSans-55" transform="translate(322.5625 0)"/>
     <use xlink:href="#DejaVuSans-48" transform="translate(361.46875 0)"/>
     <use xlink:href="#DejaVuSans-4a" transform="translate(423 0)"/>
     <use xlink:href="#DejaVuSans-44" transform="translate(486.484375 0)"/>
     <use xlink:href="#DejaVuSans-57" transform="translate(547.765625 0)"/>
     <use xlink:href="#DejaVuSans-4c" transform="translate(586.96875 0)"/>
     <use xlink:href="#DejaVuSans-52" transform="translate(614.75 0)"/>
     <use xlink:href="#DejaVuSans-51" transform="translate(675.9375 0)"/>
    </g>
    <!-- engine (M3) -->
    <g style="fill: #262626" transform="translate(367.48925 292.437996) scale(0.085 -0.085)">
     <use xlink:href="#DejaVuSans-48"/>
     <use xlink:href="#DejaVuSans-51" transform="translate(61.53125 0)"/>
     <use xlink:href="#DejaVuSans-4a" transform="translate(124.90625 0)"/>
     <use xlink:href="#DejaVuSans-4c" transform="translate(188.390625 0)"/>
     <use xlink:href="#DejaVuSans-51" transform="translate(216.171875 0)"/>
     <use xlink:href="#DejaVuSans-48" transform="translate(279.546875 0)"/>
     <use xlink:href="#DejaVuSans-3" transform="translate(341.078125 0)"/>
     <use xlink:href="#DejaVuSans-b" transform="translate(372.859375 0)"/>
     <use xlink:href="#DejaVuSans-30" transform="translate(411.875 0)"/>
     <use xlink:href="#DejaVuSans-16" transform="translate(498.15625 0)"/>
     <use xlink:href="#DejaVuSans-c" transform="translate(561.78125 0)"/>
    </g>
    <!-- PHF6/PHF6* validated -->
    <g style="fill: #262626" transform="translate(346.538079 302.64032) scale(0.085 -0.085)">
     <defs>
      <path id="DejaVuSans-33" d="M 1259 4147 
L 1259 2394 
L 2053 2394 
Q 2494 2394 2734 2622 
Q 2975 2850 2975 3272 
Q 2975 3691 2734 3919 
Q 2494 4147 2053 4147 
L 1259 4147 
z
M 628 4666 
L 2053 4666 
Q 2838 4666 3239 4311 
Q 3641 3956 3641 3272 
Q 3641 2581 3239 2228 
Q 2838 1875 2053 1875 
L 1259 1875 
L 1259 0 
L 628 0 
L 628 4666 
z
" transform="scale(0.015625)"/>
      <path id="DejaVuSans-2b" d="M 628 4666 
L 1259 4666 
L 1259 2753 
L 3553 2753 
L 3553 4666 
L 4184 4666 
L 4184 0 
L 3553 0 
L 3553 2222 
L 1259 2222 
L 1259 0 
L 628 0 
L 628 4666 
z
" transform="scale(0.015625)"/>
      <path id="DejaVuSans-29" d="M 628 4666 
L 3309 4666 
L 3309 4134 
L 1259 4134 
L 1259 2759 
L 3109 2759 
L 3109 2228 
L 1259 2228 
L 1259 0 
L 628 0 
L 628 4666 
z
" transform="scale(0.015625)"/>
      <path id="DejaVuSans-19" d="M 2113 2584 
Q 1688 2584 1439 2293 
Q 1191 2003 1191 1497 
Q 1191 994 1439 701 
Q 1688 409 2113 409 
Q 2538 409 2786 701 
Q 3034 994 3034 1497 
Q 3034 2003 2786 2293 
Q 2538 2584 2113 2584 
z
M 3366 4563 
L 3366 3988 
Q 3128 4100 2886 4159 
Q 2644 4219 2406 4219 
Q 1781 4219 1451 3797 
Q 1122 3375 1075 2522 
Q 1259 2794 1537 2939 
Q 1816 3084 2150 3084 
Q 2853 3084 3261 2657 
Q 3669 2231 3669 1497 
Q 3669 778 3244 343 
Q 2819 -91 2113 -91 
Q 1303 -91 875 529 
Q 447 1150 447 2328 
Q 447 3434 972 4092 
Q 1497 4750 2381 4750 
Q 2619 4750 2861 4703 
Q 3103 4656 3366 4563 
z
" transform="scale(0.015625)"/>
      <path id="DejaVuSans-12" d="M 1625 4666 
L 2156 4666 
L 531 -594 
L 0 -594 
L 1625 4666 
z
" transform="scale(0.015625)"/>
      <path id="DejaVuSans-d" d="M 3009 3897 
L 1888 3291 
L 3009 2681 
L 2828 2375 
L 1778 3009 
L 1778 1831 
L 1422 1831 
L 1422 3009 
L 372 2375 
L 191 2681 
L 1313 3291 
L 191 3897 
L 372 4206 
L 1422 3572 
L 1422 4750 
L 1778 4750 
L 1778 3572 
L 2828 4206 
L 3009 3897 
z
" transform="scale(0.015625)"/>
     </defs>
     <use xlink:href="#DejaVuSans-33"/>
     <use xlink:href="#DejaVuSans-2b" transform="translate(60.296875 0)"/>
     <use xlink:href="#DejaVuSans-29" transform="translate(135.5 0)"/>
     <use xlink:href="#DejaVuSans-19" transform="translate(193.015625 0)"/>
     <use xlink:href="#DejaVuSans-12" transform="translate(256.640625 0)"/>
     <use xlink:href="#DejaVuSans-33" transform="translate(290.328125 0)"/>
     <use xlink:href="#DejaVuSans-2b" transform="translate(350.625 0)"/>
     <use xlink:href="#DejaVuSans-29" transform="translate(425.828125 0)"/>
     <use xlink:href="#DejaVuSans-19" transform="translate(483.34375 0)"/>
     <use xlink:href="#DejaVuSans-d" transform="translate(546.96875 0)"/>
     <use xlink:href="#DejaVuSans-3" transform="translate(596.96875 0)"/>
     <use xlink:href="#DejaVuSans-59" transform="translate(628.75 0)"/>
     <use xlink:href="#DejaVuSans-44" transform="translate(687.9375 0)"/>
     <use xlink:href="#DejaVuSans-4f" transform="translate(749.21875 0)"/>
     <use xlink:href="#DejaVuSans-4c" transform="translate(777 0)"/>
     <use xlink:href="#DejaVuSans-47" transform="translate(804.78125 0)"/>
     <use xlink:href="#DejaVuSans-44" transform="translate(868.265625 0)"/>
     <use xlink:href="#DejaVuSans-57" transform="translate(929.546875 0)"/>
     <use xlink:href="#DejaVuSans-48" transform="translate(968.75 0)"/>
     <use xlink:href="#DejaVuSans-47" transform="translate(1030.28125 0)"/>
    </g>
   </g>
   <g id="patch_11">
    <path d="M 449.109695 290.229656 
Q 457.92803 290.229656 465.069314 290.229656 
" style="fill: none; stroke: #ffffff; stroke-width: 1.5; stroke-linecap: round"/>
    <path d="M 460.029314 287.709656 
L 465.069314 290.229656 
L 460.029314 292.749656 
" style="fill: none; stroke: #ffffff; stroke-width: 1.5; stroke-linecap: round"/>
   </g>
   <g id="text_4">
    <!-- 4. Real MD (M4) -->
    <g style="fill: #262626" transform="translate(488.936358 287.336834) scale(0.085 -0.085)">
     <defs>
      <path id="DejaVuSans-17" d="M 2419 4116 
L 825 1625 
L 2419 1625 
L 2419 4116 
z
M 2253 4666 
L 3047 4666 
L 3047 1625 
L 3713 1625 
L 3713 1100 
L 3047 1100 
L 3047 0 
L 2419 0 
L 2419 1100 
L 313 1100 
L 313 1709 
L 2253 4666 
z
" transform="scale(0.015625)"/>
      <path id="DejaVuSans-35" d="M 2841 2188 
Q 3044 2119 3236 1894 
Q 3428 1669 3622 1275 
L 4263 0 
L 3584 0 
L 2988 1197 
Q 2756 1666 2539 1819 
Q 2322 1972 1947 1972 
L 1259 1972 
L 1259 0 
L 628 0 
L 628 4666 
L 2053 4666 
Q 2853 4666 3247 4331 
Q 3641 3997 3641 3322 
Q 3641 2881 3436 2590 
Q 3231 2300 2841 2188 
z
M 1259 4147 
L 1259 2491 
L 2053 2491 
Q 2509 2491 2742 2702 
Q 2975 2913 2975 3322 
Q 2975 3731 2742 3939 
Q 2509 4147 2053 4147 
L 1259 4147 
z
" transform="scale(0.015625)"/>
     </defs>
     <use xlink:href="#DejaVuSans-17"/>
     <use xlink:href="#DejaVuSans-11" transform="translate(63.625 0)"/>
     <use xlink:href="#DejaVuSans-3" transform="translate(95.40625 0)"/>
     <use xlink:href="#DejaVuSans-35" transform="translate(127.1875 0)"/>
     <use xlink:href="#DejaVuSans-48" transform="translate(192.1875 0)"/>
     <use xlink:href="#DejaVuSans-44" transform="translate(253.71875 0)"/>
     <use xlink:href="#DejaVuSans-4f" transform="translate(315 0)"/>
     <use xlink:href="#DejaVuSans-3" transform="translate(342.78125 0)"/>
     <use xlink:href="#DejaVuSans-30" transform="translate(374.5625 0)"/>
     <use xlink:href="#DejaVuSans-27" transform="translate(460.84375 0)"/>
     <use xlink:href="#DejaVuSans-3" transform="translate(537.84375 0)"/>
     <use xlink:href="#DejaVuSans-b" transform="translate(569.625 0)"/>
     <use xlink:href="#DejaVuSans-30" transform="translate(608.640625 0)"/>
     <use xlink:href="#DejaVuSans-17" transform="translate(694.921875 0)"/>
     <use xlink:href="#DejaVuSans-c" transform="translate(758.546875 0)"/>
    </g>
    <!-- hexapeptides + tip -->
    <g style="fill: #262626" transform="translate(482.285773 297.539158) scale(0.085 -0.085)">
     <defs>
      <path id="DejaVuSans-5b" d="M 3513 3500 
L 2247 1797 
L 3578 0 
L 2900 0 
L 1881 1375 
L 863 0 
L 184 0 
L 1544 1831 
L 300 3500 
L 978 3500 
L 1906 2253 
L 2834 3500 
L 3513 3500 
z
" transform="scale(0.015625)"/>
      <path id="DejaVuSans-e" d="M 2944 4013 
L 2944 2272 
L 4684 2272 
L 4684 1741 
L 2944 1741 
L 2944 0 
L 2419 0 
L 2419 1741 
L 678 1741 
L 678 2272 
L 2419 2272 
L 2419 4013 
L 2944 4013 
z
" transform="scale(0.015625)"/>
     </defs>
     <use xlink:href="#DejaVuSans-4b"/>
     <use xlink:href="#DejaVuSans-48" transform="translate(63.375 0)"/>
     <use xlink:href="#DejaVuSans-5b" transform="translate(123.15625 0)"/>
     <use xlink:href="#DejaVuSans-44" transform="translate(182.34375 0)"/>
     <use xlink:href="#DejaVuSans-53" transform="translate(243.625 0)"/>
     <use xlink:href="#DejaVuSans-48" transform="translate(307.109375 0)"/>
     <use xlink:href="#DejaVuSans-53" transform="translate(368.640625 0)"/>
     <use xlink:href="#DejaVuSans-57" transform="translate(432.125 0)"/>
     <use xlink:href="#DejaVuSans-4c" transform="translate(471.328125 0)"/>
     <use xlink:href="#DejaVuSans-47" transform="translate(499.109375 0)"/>
     <use xlink:href="#DejaVuSans-48" transform="translate(562.59375 0)"/>
     <use xlink:href="#DejaVuSans-56" transform="translate(624.125 0)"/>
     <use xlink:href="#DejaVuSans-3" transform="translate(676.21875 0)"/>
     <use xlink:href="#DejaVuSans-e" transform="translate(708 0)"/>
     <use xlink:href="#DejaVuSans-3" transform="translate(791.796875 0)"/>
     <use xlink:href="#DejaVuSans-57" transform="translate(823.578125 0)"/>
     <use xlink:href="#DejaVuSans-4c" transform="translate(862.78125 0)"/>
     <use xlink:href="#DejaVuSans-53" transform="translate(890.5625 0)"/>
    </g>
   </g>
   <g id="patch_12">
    <path d="M 578.919343 290.229656 
Q 587.737678 290.229656 594.878962 290.229656 
" style="fill: none; stroke: #ffffff; stroke-width: 1.5; stroke-linecap: round"/>
    <path d="M 589.838962 287.709656 
L 594.878962 290.229656 
L 589.838962 292.749656 
" style="fill: none; stroke: #ffffff; stroke-width: 1.5; stroke-linecap: round"/>
   </g>
   <g id="text_5">
    <!-- 5. Design target -->
    <g style="fill: #262626" transform="translate(618.289795 287.337166) scale(0.085 -0.085)">
     <defs>
      <path id="DejaVuSans-18" d="M 691 4666 
L 3169 4666 
L 3169 4134 
L 1269 4134 
L 1269 2991 
Q 1406 3038 1543 3061 
Q 1681 3084 1819 3084 
Q 2600 3084 3056 2656 
Q 3513 2228 3513 1497 
Q 3513 744 3044 326 
Q 2575 -91 1722 -91 
Q 1428 -91 1123 -41 
Q 819 9 494 109 
L 494 744 
Q 775 591 1075 516 
Q 1375 441 1709 441 
Q 2250 441 2565 725 
Q 2881 1009 2881 1497 
Q 2881 1984 2565 2268 
Q 2250 2553 1709 2553 
Q 1456 2553 1204 2497 
Q 953 2441 691 2322 
L 691 4666 
z
" transform="scale(0.015625)"/>
     </defs>
     <use xlink:href="#DejaVuSans-18"/>
     <use xlink:href="#DejaVuSans-11" transform="translate(63.625 0)"/>
     <use xlink:href="#DejaVuSans-3" transform="translate(95.40625 0)"/>
     <use xlink:href="#DejaVuSans-27" transform="translate(127.1875 0)"/>
     <use xlink:href="#DejaVuSans-48" transform="translate(204.1875 0)"/>
     <use xlink:href="#DejaVuSans-56" transform="translate(265.71875 0)"/>
     <use xlink:href="#DejaVuSans-4c" transform="translate(317.8125 0)"/>
     <use xlink:href="#DejaVuSans-4a" transform="translate(345.59375 0)"/>
     <use xlink:href="#DejaVuSans-51" transform="translate(409.078125 0)"/>
     <use xlink:href="#DejaVuSans-3" transform="translate(472.453125 0)"/>
     <use xlink:href="#DejaVuSans-57" transform="translate(504.234375 0)"/>
     <use xlink:href="#DejaVuSans-44" transform="translate(543.4375 0)"/>
     <use xlink:href="#DejaVuSans-55" transform="translate(604.71875 0)"/>
     <use xlink:href="#DejaVuSans-4a" transform="translate(644.078125 0)"/>
     <use xlink:href="#DejaVuSans-48" transform="translate(707.5625 0)"/>
     <use xlink:href="#DejaVuSans-57" transform="translate(769.09375 0)"/>
    </g>
    <!-- spec (M5) -->
    <g style="fill: #262626" transform="translate(631.740381 297.538826) scale(0.085 -0.085)">
     <use xlink:href="#DejaVuSans-56"/>
     <use xlink:href="#DejaVuSans-53" transform="translate(52.09375 0)"/>
     <use xlink:href="#DejaVuSans-48" transform="translate(115.578125 0)"/>
     <use xlink:href="#DejaVuSans-46" transform="translate(177.109375 0)"/>
     <use xlink:href="#DejaVuSans-3" transform="translate(232.09375 0)"/>
     <use xlink:href="#DejaVuSans-b" transform="translate(263.875 0)"/>
     <use xlink:href="#DejaVuSans-30" transform="translate(302.890625 0)"/>
     <use xlink:href="#DejaVuSans-18" transform="translate(389.171875 0)"/>
     <use xlink:href="#DejaVuSans-c" transform="translate(452.796875 0)"/>
    </g>
   </g>
   <g id="patch_13">
    <path d="M 708.72899 290.229656 
Q 717.547325 290.229656 724.688609 290.229656 
" style="fill: none; stroke: #ffffff; stroke-width: 1.5; stroke-linecap: round"/>
    <path d="M 719.648609 287.709656 
L 724.688609 290.229656 
L 719.648609 292.749656 
" style="fill: none; stroke: #ffffff; stroke-width: 1.5; stroke-linecap: round"/>
   </g>
   <g id="text_6">
    <!-- 6. Closed-loop -->
    <g style="fill: #262626" transform="translate(752.157528 282.235672) scale(0.085 -0.085)">
     <defs>
      <path id="DejaVuSans-26" d="M 4122 4306 
L 4122 3641 
Q 3803 3938 3442 4084 
Q 3081 4231 2675 4231 
Q 1875 4231 1450 3742 
Q 1025 3253 1025 2328 
Q 1025 1406 1450 917 
Q 1875 428 2675 428 
Q 3081 428 3442 575 
Q 3803 722 4122 1019 
L 4122 359 
Q 3791 134 3420 21 
Q 3050 -91 2638 -91 
Q 1578 -91 968 557 
Q 359 1206 359 2328 
Q 359 3453 968 4101 
Q 1578 4750 2638 4750 
Q 3056 4750 3426 4639 
Q 3797 4528 4122 4306 
z
" transform="scale(0.015625)"/>
      <path id="DejaVuSans-10" d="M 313 2009 
L 1997 2009 
L 1997 1497 
L 313 1497 
L 313 2009 
z
" transform="scale(0.015625)"/>
     </defs>
     <use xlink:href="#DejaVuSans-19"/>
     <use xlink:href="#DejaVuSans-11" transform="translate(63.625 0)"/>
     <use xlink:href="#DejaVuSans-3" transform="translate(95.40625 0)"/>
     <use xlink:href="#DejaVuSans-26" transform="translate(127.1875 0)"/>
     <use xlink:href="#DejaVuSans-4f" transform="translate(197.015625 0)"/>
     <use xlink:href="#DejaVuSans-52" transform="translate(224.796875 0)"/>
     <use xlink:href="#DejaVuSans-56" transform="translate(285.984375 0)"/>
     <use xlink:href="#DejaVuSans-48" transform="translate(338.078125 0)"/>
     <use xlink:href="#DejaVuSans-47" transform="translate(399.609375 0)"/>
     <use xlink:href="#DejaVuSans-10" transform="translate(463.09375 0)"/>
     <use xlink:href="#DejaVuSans-4f" transform="translate(499.171875 0)"/>
     <use xlink:href="#DejaVuSans-52" transform="translate(526.953125 0)"/>
     <use xlink:href="#DejaVuSans-52" transform="translate(588.140625 0)"/>
     <use xlink:href="#DejaVuSans-53" transform="translate(649.328125 0)"/>
    </g>
    <!-- design engine (M6) -->
    <g style="fill: #262626" transform="translate(741.468114 292.437996) scale(0.085 -0.085)">
     <use xlink:href="#DejaVuSans-47"/>
     <use xlink:href="#DejaVuSans-48" transform="translate(63.484375 0)"/>
     <use xlink:href="#DejaVuSans-56" transform="translate(125.015625 0)"/>
     <use xlink:href="#DejaVuSans-4c" transform="translate(177.109375 0)"/>
     <use xlink:href="#DejaVuSans-4a" transform="translate(204.890625 0)"/>
     <use xlink:href="#DejaVuSans-51" transform="translate(268.375 0)"/>
     <use xlink:href="#DejaVuSans-3" transform="translate(331.75 0)"/>
     <use xlink:href="#DejaVuSans-48" transform="translate(363.53125 0)"/>
     <use xlink:href="#DejaVuSans-51" transform="translate(425.0625 0)"/>
     <use xlink:href="#DejaVuSans-4a" transform="translate(488.4375 0)"/>
     <use xlink:href="#DejaVuSans-4c" transform="translate(551.921875 0)"/>
     <use xlink:href="#DejaVuSans-51" transform="translate(579.703125 0)"/>
     <use xlink:href="#DejaVuSans-48" transform="translate(643.078125 0)"/>
     <use xlink:href="#DejaVuSans-3" transform="translate(704.609375 0)"/>
     <use xlink:href="#DejaVuSans-b" transform="translate(736.390625 0)"/>
     <use xlink:href="#DejaVuSans-30" transform="translate(775.40625 0)"/>
     <use xlink:href="#DejaVuSans-19" transform="translate(861.6875 0)"/>
     <use xlink:href="#DejaVuSans-c" transform="translate(925.3125 0)"/>
    </g>
    <!-- 6 rounds, AL &gt; random -->
    <g style="fill: #262626" transform="translate(733.121512 302.64032) scale(0.085 -0.085)">
     <defs>
      <path id="DejaVuSans-f" d="M 750 794 
L 1409 794 
L 1409 256 
L 897 -744 
L 494 -744 
L 750 256 
L 750 794 
z
" transform="scale(0.015625)"/>
      <path id="DejaVuSans-2f" d="M 628 4666 
L 1259 4666 
L 1259 531 
L 3531 531 
L 3531 0 
L 628 0 
L 628 4666 
z
" transform="scale(0.015625)"/>
      <path id="DejaVuSans-21" d="M 678 3150 
L 678 3719 
L 4684 2266 
L 4684 1747 
L 678 294 
L 678 863 
L 3897 2003 
L 678 3150 
z
" transform="scale(0.015625)"/>
      <path id="DejaVuSans-50" d="M 3328 2828 
Q 3544 3216 3844 3400 
Q 4144 3584 4550 3584 
Q 5097 3584 5394 3201 
Q 5691 2819 5691 2113 
L 5691 0 
L 5113 0 
L 5113 2094 
Q 5113 2597 4934 2840 
Q 4756 3084 4391 3084 
Q 3944 3084 3684 2787 
Q 3425 2491 3425 1978 
L 3425 0 
L 2847 0 
L 2847 2094 
Q 2847 2600 2669 2842 
Q 2491 3084 2119 3084 
Q 1678 3084 1418 2786 
Q 1159 2488 1159 1978 
L 1159 0 
L 581 0 
L 581 3500 
L 1159 3500 
L 1159 2956 
Q 1356 3278 1631 3431 
Q 1906 3584 2284 3584 
Q 2666 3584 2933 3390 
Q 3200 3197 3328 2828 
z
" transform="scale(0.015625)"/>
     </defs>
     <use xlink:href="#DejaVuSans-19"/>
     <use xlink:href="#DejaVuSans-3" transform="translate(63.625 0)"/>
     <use xlink:href="#DejaVuSans-55" transform="translate(95.40625 0)"/>
     <use xlink:href="#DejaVuSans-52" transform="translate(134.3125 0)"/>
     <use xlink:href="#DejaVuSans-58" transform="translate(195.5 0)"/>
     <use xlink:href="#DejaVuSans-51" transform="translate(258.875 0)"/>
     <use xlink:href="#DejaVuSans-47" transform="translate(322.25 0)"/>
     <use xlink:href="#DejaVuSans-56" transform="translate(385.734375 0)"/>
     <use xlink:href="#DejaVuSans-f" transform="translate(437.828125 0)"/>
     <use xlink:href="#DejaVuSans-3" transform="translate(469.609375 0)"/>
     <use xlink:href="#DejaVuSans-24" transform="translate(501.390625 0)"/>
     <use xlink:href="#DejaVuSans-2f" transform="translate(569.796875 0)"/>
     <use xlink:href="#DejaVuSans-3" transform="translate(625.515625 0)"/>
     <use xlink:href="#DejaVuSans-21" transform="translate(657.296875 0)"/>
     <use xlink:href="#DejaVuSans-3" transform="translate(741.09375 0)"/>
     <use xlink:href="#DejaVuSans-55" transform="translate(772.875 0)"/>
     <use xlink:href="#DejaVuSans-44" transform="translate(813.984375 0)"/>
     <use xlink:href="#DejaVuSans-51" transform="translate(875.265625 0)"/>
     <use xlink:href="#DejaVuSans-47" transform="translate(938.640625 0)"/>
     <use xlink:href="#DejaVuSans-52" transform="translate(1002.125 0)"/>
     <use xlink:href="#DejaVuSans-50" transform="translate(1063.3125 0)"/>
    </g>
   </g>
   <g id="patch_14">
    <path d="M 838.538637 290.229656 
Q 847.356972 290.229656 854.498256 290.229656 
" style="fill: none; stroke: #ffffff; stroke-width: 1.5; stroke-linecap: round"/>
    <path d="M 849.458256 287.709656 
L 854.498256 290.229656 
L 849.458256 292.749656 
" style="fill: none; stroke: #ffffff; stroke-width: 1.5; stroke-linecap: round"/>
   </g>
   <g id="text_7">
    <!-- 7-9. Validation, -->
    <g style="fill: #262626" transform="translate(880.281784 282.235672) scale(0.085 -0.085)">
     <defs>
      <path id="DejaVuSans-1a" d="M 525 4666 
L 3525 4666 
L 3525 4397 
L 1831 0 
L 1172 0 
L 2766 4134 
L 525 4134 
L 525 4666 
z
" transform="scale(0.015625)"/>
      <path id="DejaVuSans-1c" d="M 703 97 
L 703 672 
Q 941 559 1184 500 
Q 1428 441 1663 441 
Q 2288 441 2617 861 
Q 2947 1281 2994 2138 
Q 2813 1869 2534 1725 
Q 2256 1581 1919 1581 
Q 1219 1581 811 2004 
Q 403 2428 403 3163 
Q 403 3881 828 4315 
Q 1253 4750 1959 4750 
Q 2769 4750 3195 4129 
Q 3622 3509 3622 2328 
Q 3622 1225 3098 567 
Q 2575 -91 1691 -91 
Q 1453 -91 1209 -44 
Q 966 3 703 97 
z
M 1959 2075 
Q 2384 2075 2632 2365 
Q 2881 2656 2881 3163 
Q 2881 3666 2632 3958 
Q 2384 4250 1959 4250 
Q 1534 4250 1286 3958 
Q 1038 3666 1038 3163 
Q 1038 2656 1286 2365 
Q 1534 2075 1959 2075 
z
" transform="scale(0.015625)"/>
      <path id="DejaVuSans-39" d="M 1831 0 
L 50 4666 
L 709 4666 
L 2188 738 
L 3669 4666 
L 4325 4666 
L 2547 0 
L 1831 0 
z
" transform="scale(0.015625)"/>
     </defs>
     <use xlink:href="#DejaVuSans-1a"/>
     <use xlink:href="#DejaVuSans-10" transform="translate(63.625 0)"/>
     <use xlink:href="#DejaVuSans-1c" transform="translate(99.703125 0)"/>
     <use xlink:href="#DejaVuSans-11" transform="translate(163.328125 0)"/>
     <use xlink:href="#DejaVuSans-3" transform="translate(195.109375 0)"/>
     <use xlink:href="#DejaVuSans-39" transform="translate(226.890625 0)"/>
     <use xlink:href="#DejaVuSans-44" transform="translate(287.53125 0)"/>
     <use xlink:href="#DejaVuSans-4f" transform="translate(348.8125 0)"/>
     <use xlink:href="#DejaVuSans-4c" transform="translate(376.59375 0)"/>
     <use xlink:href="#DejaVuSans-47" transform="translate(404.375 0)"/>
     <use xlink:href="#DejaVuSans-44" transform="translate(467.859375 0)"/>
     <use xlink:href="#DejaVuSans-57" transform="translate(529.140625 0)"/>
     <use xlink:href="#DejaVuSans-4c" transform="translate(568.34375 0)"/>
     <use xlink:href="#DejaVuSans-52" transform="translate(596.125 0)"/>
     <use xlink:href="#DejaVuSans-51" transform="translate(657.3125 0)"/>
     <use xlink:href="#DejaVuSans-f" transform="translate(720.6875 0)"/>
    </g>
    <!-- biosensor, -->
    <g style="fill: #262626" transform="translate(890.347643 292.437996) scale(0.085 -0.085)">
     <defs>
      <path id="DejaVuSans-45" d="M 3116 1747 
Q 3116 2381 2855 2742 
Q 2594 3103 2138 3103 
Q 1681 3103 1420 2742 
Q 1159 2381 1159 1747 
Q 1159 1113 1420 752 
Q 1681 391 2138 391 
Q 2594 391 2855 752 
Q 3116 1113 3116 1747 
z
M 1159 2969 
Q 1341 3281 1617 3432 
Q 1894 3584 2278 3584 
Q 2916 3584 3314 3078 
Q 3713 2572 3713 1747 
Q 3713 922 3314 415 
Q 2916 -91 2278 -91 
Q 1894 -91 1617 61 
Q 1341 213 1159 525 
L 1159 0 
L 581 0 
L 581 4863 
L 1159 4863 
L 1159 2969 
z
" transform="scale(0.015625)"/>
     </defs>
     <use xlink:href="#DejaVuSans-45"/>
     <use xlink:href="#DejaVuSans-4c" transform="translate(63.484375 0)"/>
     <use xlink:href="#DejaVuSans-52" transform="translate(91.265625 0)"/>
     <use xlink:href="#DejaVuSans-56" transform="translate(152.453125 0)"/>
     <use xlink:href="#DejaVuSans-48" transform="translate(204.546875 0)"/>
     <use xlink:href="#DejaVuSans-51" transform="translate(266.078125 0)"/>
     <use xlink:href="#DejaVuSans-56" transform="translate(329.453125 0)"/>
     <use xlink:href="#DejaVuSans-52" transform="translate(381.546875 0)"/>
     <use xlink:href="#DejaVuSans-55" transform="translate(442.734375 0)"/>
     <use xlink:href="#DejaVuSans-f" transform="translate(483.84375 0)"/>
    </g>
    <!-- benchmarks -->
    <g style="fill: #262626" transform="translate(886.058464 302.64032) scale(0.085 -0.085)">
     <defs>
      <path id="DejaVuSans-4e" d="M 581 4863 
L 1159 4863 
L 1159 1991 
L 2875 3500 
L 3609 3500 
L 1753 1863 
L 3688 0 
L 2938 0 
L 1159 1709 
L 1159 0 
L 581 0 
L 581 4863 
z
" transform="scale(0.015625)"/>
     </defs>
     <use xlink:href="#DejaVuSans-45"/>
     <use xlink:href="#DejaVuSans-48" transform="translate(63.484375 0)"/>
     <use xlink:href="#DejaVuSans-51" transform="translate(125.015625 0)"/>
     <use xlink:href="#DejaVuSans-46" transform="translate(188.390625 0)"/>
     <use xlink:href="#DejaVuSans-4b" transform="translate(243.375 0)"/>
     <use xlink:href="#DejaVuSans-50" transform="translate(306.75 0)"/>
     <use xlink:href="#DejaVuSans-44" transform="translate(404.15625 0)"/>
     <use xlink:href="#DejaVuSans-55" transform="translate(465.4375 0)"/>
     <use xlink:href="#DejaVuSans-4e" transform="translate(506.546875 0)"/>
     <use xlink:href="#DejaVuSans-56" transform="translate(564.453125 0)"/>
    </g>
   </g>
   <g id="text_8">
    <!-- Project SENTINEL Year 1 — the Conformational Atlas + Design Engine -->
    <g style="fill: #262626" transform="translate(237.084187 18.597656) scale(0.15 -0.15)">
     <defs>
      <path id="DejaVuSans-4d" d="M 603 3500 
L 1178 3500 
L 1178 -63 
Q 1178 -731 923 -1031 
Q 669 -1331 103 -1331 
L -116 -1331 
L -116 -844 
L 38 -844 
Q 366 -844 484 -692 
Q 603 -541 603 -63 
L 603 3500 
z
M 603 4863 
L 1178 4863 
L 1178 4134 
L 603 4134 
L 603 4863 
z
" transform="scale(0.015625)"/>
      <path id="DejaVuSans-36" d="M 3425 4513 
L 3425 3897 
Q 3066 4069 2747 4153 
Q 2428 4238 2131 4238 
Q 1616 4238 1336 4038 
Q 1056 3838 1056 3469 
Q 1056 3159 1242 3001 
Q 1428 2844 1947 2747 
L 2328 2669 
Q 3034 2534 3370 2195 
Q 3706 1856 3706 1288 
Q 3706 609 3251 259 
Q 2797 -91 1919 -91 
Q 1588 -91 1214 -16 
Q 841 59 441 206 
L 441 856 
Q 825 641 1194 531 
Q 1563 422 1919 422 
Q 2459 422 2753 634 
Q 3047 847 3047 1241 
Q 3047 1584 2836 1778 
Q 2625 1972 2144 2069 
L 1759 2144 
Q 1053 2284 737 2584 
Q 422 2884 422 3419 
Q 422 4038 858 4394 
Q 1294 4750 2059 4750 
Q 2388 4750 2728 4690 
Q 3069 4631 3425 4513 
z
" transform="scale(0.015625)"/>
      <path id="DejaVuSans-28" d="M 628 4666 
L 3578 4666 
L 3578 4134 
L 1259 4134 
L 1259 2753 
L 3481 2753 
L 3481 2222 
L 1259 2222 
L 1259 531 
L 3634 531 
L 3634 0 
L 628 0 
L 628 4666 
z
" transform="scale(0.015625)"/>
      <path id="DejaVuSans-31" d="M 628 4666 
L 1478 4666 
L 3547 763 
L 3547 4666 
L 4159 4666 
L 4159 0 
L 3309 0 
L 1241 3903 
L 1241 0 
L 628 0 
L 628 4666 
z
" transform="scale(0.015625)"/>
      <path id="DejaVuSans-2c" d="M 628 4666 
L 1259 4666 
L 1259 0 
L 628 0 
L 628 4666 
z
" transform="scale(0.015625)"/>
      <path id="DejaVuSans-3c" d="M -13 4666 
L 666 4666 
L 1959 2747 
L 3244 4666 
L 3922 4666 
L 2272 2222 
L 2272 0 
L 1638 0 
L 1638 2222 
L -13 4666 
z
" transform="scale(0.015625)"/>
      <path id="DejaVuSans-af6" d="M 313 1978 
L 6088 1978 
L 6088 1528 
L 313 1528 
L 313 1978 
z
" transform="scale(0.015625)"/>
     </defs>
     <use xlink:href="#DejaVuSans-33"/>
     <use xlink:href="#DejaVuSans-55" transform="translate(58.546875 0)"/>
     <use xlink:href="#DejaVuSans-52" transform="translate(97.453125 0)"/>
     <use xlink:href="#DejaVuSans-4d" transform="translate(158.640625 0)"/>
     <use xlink:href="#DejaVuSans-48" transform="translate(186.421875 0)"/>
     <use xlink:href="#DejaVuSans-46" transform="translate(247.953125 0)"/>
     <use xlink:href="#DejaVuSans-57" transform="translate(302.9375 0)"/>
     <use xlink:href="#DejaVuSans-3" transform="translate(342.140625 0)"/>
     <use xlink:href="#DejaVuSans-36" transform="translate(373.921875 0)"/>
     <use xlink:href="#DejaVuSans-28" transform="translate(437.40625 0)"/>
     <use xlink:href="#DejaVuSans-31" transform="translate(500.59375 0)"/>
     <use xlink:href="#DejaVuSans-37" transform="translate(575.40625 0)"/>
     <use xlink:href="#DejaVuSans-2c" transform="translate(636.484375 0)"/>
     <use xlink:href="#DejaVuSans-31" transform="translate(665.984375 0)"/>
     <use xlink:href="#DejaVuSans-28" transform="translate(740.796875 0)"/>
     <use xlink:href="#DejaVuSans-2f" transform="translate(803.984375 0)"/>
     <use xlink:href="#DejaVuSans-3" transform="translate(859.703125 0)"/>
     <use xlink:href="#DejaVuSans-3c" transform="translate(891.484375 0)"/>
     <use xlink:href="#DejaVuSans-48" transform="translate(939.28125 0)"/>
     <use xlink:href="#DejaVuSans-44" transform="translate(1000.8125 0)"/>
     <use xlink:href="#DejaVuSans-55" transform="translate(1062.09375 0)"/>
     <use xlink:href="#DejaVuSans-3" transform="translate(1103.203125 0)"/>
     <use xlink:href="#DejaVuSans-14" transform="translate(1134.984375 0)"/>
     <use xlink:href="#DejaVuSans-3" transform="translate(1198.609375 0)"/>
     <use xlink:href="#DejaVuSans-af6" transform="translate(1230.390625 0)"/>
     <use xlink:href="#DejaVuSans-3" transform="translate(1330.390625 0)"/>
     <use xlink:href="#DejaVuSans-57" transform="translate(1362.171875 0)"/>
     <use xlink:href="#DejaVuSans-4b" transform="translate(1401.375 0)"/>
     <use xlink:href="#DejaVuSans-48" transform="translate(1464.75 0)"/>
     <use xlink:href="#DejaVuSans-3" transform="translate(1526.28125 0)"/>
     <use xlink:href="#DejaVuSans-26" transform="translate(1558.0625 0)"/>
     <use xlink:href="#DejaVuSans-52" transform="translate(1627.890625 0)"/>
     <use xlink:href="#DejaVuSans-51" transform="translate(1689.078125 0)"/>
     <use xlink:href="#DejaVuSans-49" transform="translate(1752.453125 0)"/>
     <use xlink:href="#DejaVuSans-52" transform="translate(1787.65625 0)"/>
     <use xlink:href="#DejaVuSans-55" transform="translate(1848.84375 0)"/>
     <use xlink:href="#DejaVuSans-50" transform="translate(1888.203125 0)"/>
     <use xlink:href="#DejaVuSans-44" transform="translate(1985.609375 0)"/>
     <use xlink:href="#DejaVuSans-57" transform="translate(2046.890625 0)"/>
     <use xlink:href="#DejaVuSans-4c" transform="translate(2086.09375 0)"/>
     <use xlink:href="#DejaVuSans-52" transform="translate(2113.875 0)"/>
     <use xlink:href="#DejaVuSans-51" transform="translate(2175.0625 0)"/>
     <use xlink:href="#DejaVuSans-44" transform="translate(2238.4375 0)"/>
     <use xlink:href="#DejaVuSans-4f" transform="translate(2299.71875 0)"/>
     <use xlink:href="#DejaVuSans-3" transform="translate(2327.5 0)"/>
     <use xlink:href="#DejaVuSans-24" transform="translate(2359.28125 0)"/>
     <use xlink:href="#DejaVuSans-57" transform="translate(2425.9375 0)"/>
     <use xlink:href="#DejaVuSans-4f" transform="translate(2465.140625 0)"/>
     <use xlink:href="#DejaVuSans-44" transform="translate(2492.921875 0)"/>
     <use xlink:href="#DejaVuSans-56" transform="translate(2554.203125 0)"/>
     <use xlink:href="#DejaVuSans-3" transform="translate(2606.296875 0)"/>
     <use xlink:href="#DejaVuSans-e" transform="translate(2638.078125 0)"/>
     <use xlink:href="#DejaVuSans-3" transform="translate(2721.875 0)"/>
     <use xlink:href="#DejaVuSans-27" transform="translate(2753.65625 0)"/>
     <use xlink:href="#DejaVuSans-48" transform="translate(2830.65625 0)"/>
     <use xlink:href="#DejaVuSans-56" transform="translate(2892.1875 0)"/>
     <use xlink:href="#DejaVuSans-4c" transform="translate(2944.28125 0)"/>
     <use xlink:href="#DejaVuSans-4a" transform="translate(2972.0625 0)"/>
     <use xlink:href="#DejaVuSans-51" transform="translate(3035.546875 0)"/>
     <use xlink:href="#DejaVuSans-3" transform="translate(3098.921875 0)"/>
     <use xlink:href="#DejaVuSans-28" transform="translate(3130.703125 0)"/>
     <use xlink:href="#DejaVuSans-51" transform="translate(3193.890625 0)"/>
     <use xlink:href="#DejaVuSans-4a" transform="translate(3257.265625 0)"/>
     <use xlink:href="#DejaVuSans-4c" transform="translate(3320.75 0)"/>
     <use xlink:href="#DejaVuSans-51" transform="translate(3348.53125 0)"/>
     <use xlink:href="#DejaVuSans-48" transform="translate(3411.90625 0)"/>
    </g>
   </g>
  </g>
 </g>
 <defs>
  <clipPath id="p32a3125f12">
   <rect x="7.2" y="24.597656" width="980.784" height="531.264"/>
  </clipPath>
 </defs>
</svg>
