<?xml version="1.0" encoding="utf-8" standalone="no"?>
<!DOCTYPE svg PUBLIC "-//W3C//DTD SVG 1.1//EN"
  "http://www.w3.org/Graphics/SVG/1.1/DTD/svg11.dtd">
<svg xmlns:xlink="http://www.w3.org/1999/xlink" width="707.184pt" height="418.981969pt" viewBox="0 0 707.184 418.981969" xmlns="http://www.w3.org/2000/svg" version="1.1">
 <metadata>
  <rdf:RDF xmlns:dc="http://purl.org/dc/elements/1.1/" xmlns:cc="http://creativecommons.org/ns#" xmlns:rdf="http://www.w3.org/1999/02/22-rdf-syntax-ns#">
   <cc:Work>
    <dc:type rdf:resource="http://purl.org/dc/dcmitype/StillImage"/>
    <dc:date>2026-07-19T17:58:18.911602</dc:date>
    <dc:format>image/svg+xml</dc:format>
    <dc:creator>
     <cc:Agent>
      <dc:title>Matplotlib v3.11.1, https://matplotlib.org/</dc:title>
     </cc:Agent>
    </dc:creator>
   </cc:Work>
  </rdf:RDF>
 </metadata>
 <defs>
  <style type="text/css">*{stroke-linejoin: round; stroke-linecap: butt}</style>
 </defs>
 <g id="figure_1">
  <g id="patch_1">
   <path d="M 0 418.981969 
L 707.184 418.981969 
L 707.184 0 
L 0 0 
z
" style="fill: #ffffff"/>
  </g>
  <g id="axes_1">
   <g id="patch_2">
    <path d="M 249.6744 295.170769 
L 457.5096 295.170769 
L 457.5096 269.257169 
L 249.6744 269.257169 
z
" clip-path="url(#p68e1ac9e64)" style="fill: #808080; opacity: 0.5; stroke: #808080; stroke-linejoin: miter"/>
   </g>
   <g id="patch_3">
    <path d="M 249.6744 256.300369 
L 457.5096 256.300369 
L 457.5096 230.386769 
L 249.6744 230.386769 
z
" clip-path="url(#p68e1ac9e64)" style="fill: #808080; opacity: 0.5; stroke: #808080; stroke-linejoin: miter"/>
   </g>
   <g id="patch_4">
    <path d="M 249.6744 217.429969 
L 457.5096 217.429969 
L 457.5096 191.516369 
L 249.6744 191.516369 
z
" clip-path="url(#p68e1ac9e64)" style="fill: #808080; opacity: 0.5; stroke: #808080; stroke-linejoin: miter"/>
   </g>
   <g id="patch_5">
    <path d="M 249.6744 178.559569 
L 457.5096 178.559569 
L 457.5096 152.645969 
L 249.6744 152.645969 
z
" clip-path="url(#p68e1ac9e64)" style="fill: #808080; opacity: 0.5; stroke: #808080; stroke-linejoin: miter"/>
   </g>
   <g id="text_1">
    <!-- AD tau fibril (stacked layers) -->
    <g style="fill: #262626" transform="translate(282.218562 133.210769) scale(0.1 -0.1)">
     <defs>
      <path id="DejaVuSans-24" d="M 2188 4044 
L 1331 1722 
L 3047 1722 
L 2188 4044 
z
M 1831 4666 
L 2547 4666 
L 4325 0 
L 3669 0 
L 3244 1197 
L 1141 1197 
L 716 0 
L 50 0 
L 1831 4666 
z
" transform="scale(0.015625)"/>
      <path id="DejaVuSans-27" d="M 1259 4147 
L 1259 519 
L 2022 519 
Q 2988 519 3436 956 
Q 3884 1394 3884 2338 
Q 3884 3275 3436 3711 
Q 2988 4147 2022 4147 
L 1259 4147 
z
M 628 4666 
L 1925 4666 
Q 3281 4666 3915 4102 
Q 4550 3538 4550 2338 
Q 4550 1131 3912 565 
Q 3275 0 1925 0 
L 628 0 
L 628 4666 
z
" transform="scale(0.015625)"/>
      <path id="DejaVuSans-3" transform="scale(0.015625)"/>
      <path id="DejaVuSans-57" d="M 1172 4494 
L 1172 3500 
L 2356 3500 
L 2356 3053 
L 1172 3053 
L 1172 1153 
Q 1172 725 1289 603 
Q 1406 481 1766 481 
L 2356 481 
L 2356 0 
L 1766 0 
Q 1100 0 847 248 
Q 594 497 594 1153 
L 594 3053 
L 172 3053 
L 172 3500 
L 594 3500 
L 594 4494 
L 1172 4494 
z
" transform="scale(0.015625)"/>
      <path id="DejaVuSans-44" d="M 2194 1759 
Q 1497 1759 1228 1600 
Q 959 1441 959 1056 
Q 959 750 1161 570 
Q 1363 391 1709 391 
Q 2188 391 2477 730 
Q 2766 1069 2766 1631 
L 2766 1759 
L 2194 1759 
z
M 3341 1997 
L 3341 0 
L 2766 0 
L 2766 531 
Q 2569 213 2275 61 
Q 1981 -91 1556 -91 
Q 1019 -91 701 211 
Q 384 513 384 1019 
Q 384 1609 779 1909 
Q 1175 2209 1959 2209 
L 2766 2209 
L 2766 2266 
Q 2766 2663 2505 2880 
Q 2244 3097 1772 3097 
Q 1472 3097 1187 3025 
Q 903 2953 641 2809 
L 641 3341 
Q 956 3463 1253 3523 
Q 1550 3584 1831 3584 
Q 2591 3584 2966 3190 
Q 3341 2797 3341 1997 
z
" transform="scale(0.015625)"/>
      <path id="DejaVuSans-58" d="M 544 1381 
L 544 3500 
L 1119 3500 
L 1119 1403 
Q 1119 906 1312 657 
Q 1506 409 1894 409 
Q 2359 409 2629 706 
Q 2900 1003 2900 1516 
L 2900 3500 
L 3475 3500 
L 3475 0 
L 2900 0 
L 2900 538 
Q 2691 219 2414 64 
Q 2138 -91 1772 -91 
Q 1169 -91 856 284 
Q 544 659 544 1381 
z
M 1991 3584 
L 1991 3584 
z
" transform="scale(0.015625)"/>
      <path id="DejaVuSans-13af" d="M 3431 3500 
L 3431 0 
L 2853 0 
L 2853 3053 
L 1275 3053 
L 1275 0 
L 697 0 
L 697 3053 
L 147 3053 
L 147 3500 
L 697 3500 
L 697 3744 
Q 697 4316 967 4589 
Q 1238 4863 1797 4863 
L 2375 4863 
L 2375 4384 
L 1825 4384 
Q 1516 4384 1395 4259 
Q 1275 4134 1275 3809 
L 1275 3500 
L 3431 3500 
z
M 2853 4856 
L 3431 4856 
L 3431 4128 
L 2853 4128 
L 2853 4856 
z
" transform="scale(0.015625)"/>
      <path id="DejaVuSans-45" d="M 3116 1747 
Q 3116 2381 2855 2742 
Q 2594 3103 2138 3103 
Q 1681 3103 1420 2742 
Q 1159 2381 1159 1747 
Q 1159 1113 1420 752 
Q 1681 391 2138 391 
Q 2594 391 2855 752 
Q 3116 1113 3116 1747 
z
M 1159 2969 
Q 1341 3281 1617 3432 
Q 1894 3584 2278 3584 
Q 2916 3584 3314 3078 
Q 3713 2572 3713 1747 
Q 3713 922 3314 415 
Q 2916 -91 2278 -91 
Q 1894 -91 1617 61 
Q 1341 213 1159 525 
L 1159 0 
L 581 0 
L 581 4863 
L 1159 4863 
L 1159 2969 
z
" transform="scale(0.015625)"/>
      <path id="DejaVuSans-55" d="M 2631 2963 
Q 2534 3019 2420 3045 
Q 2306 3072 2169 3072 
Q 1681 3072 1420 2755 
Q 1159 2438 1159 1844 
L 1159 0 
L 581 0 
L 581 3500 
L 1159 3500 
L 1159 2956 
Q 1341 3275 1631 3429 
Q 1922 3584 2338 3584 
Q 2397 3584 2469 3576 
Q 2541 3569 2628 3553 
L 2631 2963 
z
" transform="scale(0.015625)"/>
      <path id="DejaVuSans-4c" d="M 603 3500 
L 1178 3500 
L 1178 0 
L 603 0 
L 603 3500 
z
M 603 4863 
L 1178 4863 
L 1178 4134 
L 603 4134 
L 603 4863 
z
" transform="scale(0.015625)"/>
      <path id="DejaVuSans-4f" d="M 603 4863 
L 1178 4863 
L 1178 0 
L 603 0 
L 603 4863 
z
" transform="scale(0.015625)"/>
      <path id="DejaVuSans-b" d="M 1984 4856 
Q 1566 4138 1362 3434 
Q 1159 2731 1159 2009 
Q 1159 1288 1364 580 
Q 1569 -128 1984 -844 
L 1484 -844 
Q 1016 -109 783 600 
Q 550 1309 550 2009 
Q 550 2706 781 3412 
Q 1013 4119 1484 4856 
L 1984 4856 
z
" transform="scale(0.015625)"/>
      <path id="DejaVuSans-56" d="M 2834 3397 
L 2834 2853 
Q 2591 2978 2328 3040 
Q 2066 3103 1784 3103 
Q 1356 3103 1142 2972 
Q 928 2841 928 2578 
Q 928 2378 1081 2264 
Q 1234 2150 1697 2047 
L 1894 2003 
Q 2506 1872 2764 1633 
Q 3022 1394 3022 966 
Q 3022 478 2636 193 
Q 2250 -91 1575 -91 
Q 1294 -91 989 -36 
Q 684 19 347 128 
L 347 722 
Q 666 556 975 473 
Q 1284 391 1588 391 
Q 1994 391 2212 530 
Q 2431 669 2431 922 
Q 2431 1156 2273 1281 
Q 2116 1406 1581 1522 
L 1381 1569 
Q 847 1681 609 1914 
Q 372 2147 372 2553 
Q 372 3047 722 3315 
Q 1072 3584 1716 3584 
Q 2034 3584 2315 3537 
Q 2597 3491 2834 3397 
z
" transform="scale(0.015625)"/>
      <path id="DejaVuSans-46" d="M 3122 3366 
L 3122 2828 
Q 2878 2963 2633 3030 
Q 2388 3097 2138 3097 
Q 1578 3097 1268 2742 
Q 959 2388 959 1747 
Q 959 1106 1268 751 
Q 1578 397 2138 397 
Q 2388 397 2633 464 
Q 2878 531 3122 666 
L 3122 134 
Q 2881 22 2623 -34 
Q 2366 -91 2075 -91 
Q 1284 -91 818 406 
Q 353 903 353 1747 
Q 353 2603 823 3093 
Q 1294 3584 2113 3584 
Q 2378 3584 2631 3529 
Q 2884 3475 3122 3366 
z
" transform="scale(0.015625)"/>
      <path id="DejaVuSans-4e" d="M 581 4863 
L 1159 4863 
L 1159 1991 
L 2875 3500 
L 3609 3500 
L 1753 1863 
L 3688 0 
L 2938 0 
L 1159 1709 
L 1159 0 
L 581 0 
L 581 4863 
z
" transform="scale(0.015625)"/>
      <path id="DejaVuSans-48" d="M 3597 1894 
L 3597 1613 
L 953 1613 
Q 991 1019 1311 708 
Q 1631 397 2203 397 
Q 2534 397 2845 478 
Q 3156 559 3463 722 
L 3463 178 
Q 3153 47 2828 -22 
Q 2503 -91 2169 -91 
Q 1331 -91 842 396 
Q 353 884 353 1716 
Q 353 2575 817 3079 
Q 1281 3584 2069 3584 
Q 2775 3584 3186 3129 
Q 3597 2675 3597 1894 
z
M 3022 2063 
Q 3016 2534 2758 2815 
Q 2500 3097 2075 3097 
Q 1594 3097 1305 2825 
Q 1016 2553 972 2059 
L 3022 2063 
z
" transform="scale(0.015625)"/>
      <path id="DejaVuSans-47" d="M 2906 2969 
L 2906 4863 
L 3481 4863 
L 3481 0 
L 2906 0 
L 2906 525 
Q 2725 213 2448 61 
Q 2172 -91 1784 -91 
Q 1150 -91 751 415 
Q 353 922 353 1747 
Q 353 2572 751 3078 
Q 1150 3584 1784 3584 
Q 2172 3584 2448 3432 
Q 2725 3281 2906 2969 
z
M 947 1747 
Q 947 1113 1208 752 
Q 1469 391 1925 391 
Q 2381 391 2643 752 
Q 2906 1113 2906 1747 
Q 2906 2381 2643 2742 
Q 2381 3103 1925 3103 
Q 1469 3103 1208 2742 
Q 947 2381 947 1747 
z
" transform="scale(0.015625)"/>
      <path id="DejaVuSans-5c" d="M 2059 -325 
Q 1816 -950 1584 -1140 
Q 1353 -1331 966 -1331 
L 506 -1331 
L 506 -850 
L 844 -850 
Q 1081 -850 1212 -737 
Q 1344 -625 1503 -206 
L 1606 56 
L 191 3500 
L 800 3500 
L 1894 763 
L 2988 3500 
L 3597 3500 
L 2059 -325 
z
" transform="scale(0.015625)"/>
      <path id="DejaVuSans-c" d="M 513 4856 
L 1013 4856 
Q 1481 4119 1714 3412 
Q 1947 2706 1947 2009 
Q 1947 1309 1714 600 
Q 1481 -109 1013 -844 
L 513 -844 
Q 928 -128 1133 580 
Q 1338 1288 1338 2009 
Q 1338 2731 1133 3434 
Q 928 4138 513 4856 
z
" transform="scale(0.015625)"/>
     </defs>
     <use xlink:href="#DejaVuSans-24"/>
     <use xlink:href="#DejaVuSans-27" transform="translate(68.40625 0)"/>
     <use xlink:href="#DejaVuSans-3" transform="translate(145.40625 0)"/>
     <use xlink:href="#DejaVuSans-57" transform="translate(177.1875 0)"/>
     <use xlink:href="#DejaVuSans-44" transform="translate(216.390625 0)"/>
     <use xlink:href="#DejaVuSans-58" transform="translate(277.671875 0)"/>
     <use xlink:href="#DejaVuSans-3" transform="translate(341.046875 0)"/>
     <use xlink:href="#DejaVuSans-13af" transform="translate(372.828125 0)"/>
     <use xlink:href="#DejaVuSans-45" transform="translate(435.8125 0)"/>
     <use xlink:href="#DejaVuSans-55" transform="translate(499.296875 0)"/>
     <use xlink:href="#DejaVuSans-4c" transform="translate(540.40625 0)"/>
     <use xlink:href="#DejaVuSans-4f" transform="translate(568.1875 0)"/>
     <use xlink:href="#DejaVuSans-3" transform="translate(595.96875 0)"/>
     <use xlink:href="#DejaVuSans-b" transform="translate(627.75 0)"/>
     <use xlink:href="#DejaVuSans-56" transform="translate(666.765625 0)"/>
     <use xlink:href="#DejaVuSans-57" transform="translate(718.859375 0)"/>
     <use xlink:href="#DejaVuSans-44" transform="translate(758.0625 0)"/>
     <use xlink:href="#DejaVuSans-46" transform="translate(819.34375 0)"/>
     <use xlink:href="#DejaVuSans-4e" transform="translate(874.328125 0)"/>
     <use xlink:href="#DejaVuSans-48" transform="translate(928.671875 0)"/>
     <use xlink:href="#DejaVuSans-47" transform="translate(990.203125 0)"/>
     <use xlink:href="#DejaVuSans-3" transform="translate(1053.6875 0)"/>
     <use xlink:href="#DejaVuSans-4f" transform="translate(1085.46875 0)"/>
     <use xlink:href="#DejaVuSans-44" transform="translate(1113.25 0)"/>
     <use xlink:href="#DejaVuSans-5c" transform="translate(1174.53125 0)"/>
     <use xlink:href="#DejaVuSans-48" transform="translate(1233.71875 0)"/>
     <use xlink:href="#DejaVuSans-55" transform="translate(1295.25 0)"/>
     <use xlink:href="#DejaVuSans-56" transform="translate(1336.359375 0)"/>
     <use xlink:href="#DejaVuSans-c" transform="translate(1388.453125 0)"/>
    </g>
   </g>
   <g id="patch_6">
    <path d="M 112.953791 333.23987 
Q 215.037025 288.691572 315.070836 245.037627 
" style="fill: none; stroke: #1f77b4; stroke-width: 2; stroke-linecap: round"/>
    <path d="M 309.44361 244.743801 
L 315.070836 245.037627 
L 311.45944 249.363112 
" style="fill: none; stroke: #1f77b4; stroke-width: 2; stroke-linecap: round"/>
   </g>
   <g id="text_2">
    <!-- Binder-LgBiT -->
    <g style="fill: #1f77b4" transform="translate(76.4784 353.476369) scale(0.1 -0.1)">
     <defs>
      <path id="DejaVuSans-25" d="M 1259 2228 
L 1259 519 
L 2272 519 
Q 2781 519 3026 730 
Q 3272 941 3272 1375 
Q 3272 1813 3026 2020 
Q 2781 2228 2272 2228 
L 1259 2228 
z
M 1259 4147 
L 1259 2741 
L 2194 2741 
Q 2656 2741 2882 2914 
Q 3109 3088 3109 3444 
Q 3109 3797 2882 3972 
Q 2656 4147 2194 4147 
L 1259 4147 
z
M 628 4666 
L 2241 4666 
Q 2963 4666 3353 4366 
Q 3744 4066 3744 3513 
Q 3744 3084 3544 2831 
Q 3344 2578 2956 2516 
Q 3422 2416 3680 2098 
Q 3938 1781 3938 1306 
Q 3938 681 3513 340 
Q 3088 0 2303 0 
L 628 0 
L 628 4666 
z
" transform="scale(0.015625)"/>
      <path id="DejaVuSans-51" d="M 3513 2113 
L 3513 0 
L 2938 0 
L 2938 2094 
Q 2938 2591 2744 2837 
Q 2550 3084 2163 3084 
Q 1697 3084 1428 2787 
Q 1159 2491 1159 1978 
L 1159 0 
L 581 0 
L 581 3500 
L 1159 3500 
L 1159 2956 
Q 1366 3272 1645 3428 
Q 1925 3584 2291 3584 
Q 2894 3584 3203 3211 
Q 3513 2838 3513 2113 
z
" transform="scale(0.015625)"/>
      <path id="DejaVuSans-10" d="M 313 2009 
L 1997 2009 
L 1997 1497 
L 313 1497 
L 313 2009 
z
" transform="scale(0.015625)"/>
      <path id="DejaVuSans-2f" d="M 628 4666 
L 1259 4666 
L 1259 531 
L 3531 531 
L 3531 0 
L 628 0 
L 628 4666 
z
" transform="scale(0.015625)"/>
      <path id="DejaVuSans-4a" d="M 2906 1791 
Q 2906 2416 2648 2759 
Q 2391 3103 1925 3103 
Q 1463 3103 1205 2759 
Q 947 2416 947 1791 
Q 947 1169 1205 825 
Q 1463 481 1925 481 
Q 2391 481 2648 825 
Q 2906 1169 2906 1791 
z
M 3481 434 
Q 3481 -459 3084 -895 
Q 2688 -1331 1869 -1331 
Q 1566 -1331 1297 -1286 
Q 1028 -1241 775 -1147 
L 775 -588 
Q 1028 -725 1275 -790 
Q 1522 -856 1778 -856 
Q 2344 -856 2625 -561 
Q 2906 -266 2906 331 
L 2906 616 
Q 2728 306 2450 153 
Q 2172 0 1784 0 
Q 1141 0 747 490 
Q 353 981 353 1791 
Q 353 2603 747 3093 
Q 1141 3584 1784 3584 
Q 2172 3584 2450 3431 
Q 2728 3278 2906 2969 
L 2906 3500 
L 3481 3500 
L 3481 434 
z
" transform="scale(0.015625)"/>
      <path id="DejaVuSans-37" d="M -19 4666 
L 3928 4666 
L 3928 4134 
L 2272 4134 
L 2272 0 
L 1638 0 
L 1638 4134 
L -19 4134 
L -19 4666 
z
" transform="scale(0.015625)"/>
     </defs>
     <use xlink:href="#DejaVuSans-25"/>
     <use xlink:href="#DejaVuSans-4c" transform="translate(68.609375 0)"/>
     <use xlink:href="#DejaVuSans-51" transform="translate(96.390625 0)"/>
     <use xlink:href="#DejaVuSans-47" transform="translate(159.765625 0)"/>
     <use xlink:href="#DejaVuSans-48" transform="translate(223.25 0)"/>
     <use xlink:href="#DejaVuSans-55" transform="translate(284.78125 0)"/>
     <use xlink:href="#DejaVuSans-10" transform="translate(319.5 0)"/>
     <use xlink:href="#DejaVuSans-2f" transform="translate(355.578125 0)"/>
     <use xlink:href="#DejaVuSans-4a" transform="translate(411.296875 0)"/>
     <use xlink:href="#DejaVuSans-25" transform="translate(474.78125 0)"/>
     <use xlink:href="#DejaVuSans-4c" transform="translate(543.390625 0)"/>
     <use xlink:href="#DejaVuSans-37" transform="translate(571.171875 0)"/>
    </g>
   </g>
   <g id="patch_7">
    <path d="M 629.008947 332.983447 
Q 526.787366 269.256773 426.463314 206.713053 
" style="fill: none; stroke: #d62728; stroke-width: 2; stroke-linecap: round"/>
    <path d="M 429.407104 211.517853 
L 426.463314 206.713053 
L 432.073428 207.240901 
" style="fill: none; stroke: #d62728; stroke-width: 2; stroke-linecap: round"/>
   </g>
   <g id="text_3">
    <!-- Binder-SmBiT -->
    <g style="fill: #d62728" transform="translate(575.28288 353.476369) scale(0.1 -0.1)">
     <defs>
      <path id="DejaVuSans-36" d="M 3425 4513 
L 3425 3897 
Q 3066 4069 2747 4153 
Q 2428 4238 2131 4238 
Q 1616 4238 1336 4038 
Q 1056 3838 1056 3469 
Q 1056 3159 1242 3001 
Q 1428 2844 1947 2747 
L 2328 2669 
Q 3034 2534 3370 2195 
Q 3706 1856 3706 1288 
Q 3706 609 3251 259 
Q 2797 -91 1919 -91 
Q 1588 -91 1214 -16 
Q 841 59 441 206 
L 441 856 
Q 825 641 1194 531 
Q 1563 422 1919 422 
Q 2459 422 2753 634 
Q 3047 847 3047 1241 
Q 3047 1584 2836 1778 
Q 2625 1972 2144 2069 
L 1759 2144 
Q 1053 2284 737 2584 
Q 422 2884 422 3419 
Q 422 4038 858 4394 
Q 1294 4750 2059 4750 
Q 2388 4750 2728 4690 
Q 3069 4631 3425 4513 
z
" transform="scale(0.015625)"/>
      <path id="DejaVuSans-50" d="M 3328 2828 
Q 3544 3216 3844 3400 
Q 4144 3584 4550 3584 
Q 5097 3584 5394 3201 
Q 5691 2819 5691 2113 
L 5691 0 
L 5113 0 
L 5113 2094 
Q 5113 2597 4934 2840 
Q 4756 3084 4391 3084 
Q 3944 3084 3684 2787 
Q 3425 2491 3425 1978 
L 3425 0 
L 2847 0 
L 2847 2094 
Q 2847 2600 2669 2842 
Q 2491 3084 2119 3084 
Q 1678 3084 1418 2786 
Q 1159 2488 1159 1978 
L 1159 0 
L 581 0 
L 581 3500 
L 1159 3500 
L 1159 2956 
Q 1356 3278 1631 3431 
Q 1906 3584 2284 3584 
Q 2666 3584 2933 3390 
Q 3200 3197 3328 2828 
z
" transform="scale(0.015625)"/>
     </defs>
     <use xlink:href="#DejaVuSans-25"/>
     <use xlink:href="#DejaVuSans-4c" transform="translate(68.609375 0)"/>
     <use xlink:href="#DejaVuSans-51" transform="translate(96.390625 0)"/>
     <use xlink:href="#DejaVuSans-47" transform="translate(159.765625 0)"/>
     <use xlink:href="#DejaVuSans-48" transform="translate(223.25 0)"/>
     <use xlink:href="#DejaVuSans-55" transform="translate(284.78125 0)"/>
     <use xlink:href="#DejaVuSans-10" transform="translate(319.5 0)"/>
     <use xlink:href="#DejaVuSans-36" transform="translate(355.578125 0)"/>
     <use xlink:href="#DejaVuSans-50" transform="translate(419.0625 0)"/>
     <use xlink:href="#DejaVuSans-25" transform="translate(516.46875 0)"/>
     <use xlink:href="#DejaVuSans-4c" transform="translate(585.078125 0)"/>
     <use xlink:href="#DejaVuSans-37" transform="translate(612.859375 0)"/>
    </g>
   </g>
   <g id="text_4">
    <!-- Reconstituted NanoLuc -&gt; luminescence -->
    <g style="fill: #262626" transform="translate(251.784969 62.902434) scale(0.1 -0.1)">
     <defs>
      <path id="DejaVuSans-Oblique-35" d="M 1613 4147 
L 1294 2491 
L 2106 2491 
Q 2584 2491 2879 2755 
Q 3175 3019 3175 3444 
Q 3175 3784 2976 3965 
Q 2778 4147 2406 4147 
L 1613 4147 
z
M 2772 2241 
Q 2972 2194 3105 2009 
Q 3238 1825 3413 1275 
L 3809 0 
L 3144 0 
L 2778 1197 
Q 2638 1659 2453 1815 
Q 2269 1972 1888 1972 
L 1191 1972 
L 806 0 
L 172 0 
L 1081 4666 
L 2503 4666 
Q 3150 4666 3495 4373 
Q 3841 4081 3841 3531 
Q 3841 3044 3547 2687 
Q 3253 2331 2772 2241 
z
" transform="scale(0.015625)"/>
      <path id="DejaVuSans-Oblique-48" d="M 3078 2063 
Q 3088 2113 3092 2166 
Q 3097 2219 3097 2272 
Q 3097 2653 2873 2875 
Q 2650 3097 2266 3097 
Q 1838 3097 1509 2826 
Q 1181 2556 1013 2059 
L 3078 2063 
z
M 3578 1613 
L 903 1613 
Q 884 1494 878 1425 
Q 872 1356 872 1306 
Q 872 872 1139 634 
Q 1406 397 1894 397 
Q 2269 397 2603 481 
Q 2938 566 3225 728 
L 3116 159 
Q 2806 34 2476 -28 
Q 2147 -91 1806 -91 
Q 1078 -91 686 257 
Q 294 606 294 1247 
Q 294 1794 489 2264 
Q 684 2734 1063 3103 
Q 1306 3334 1642 3459 
Q 1978 3584 2356 3584 
Q 2950 3584 3301 3228 
Q 3653 2872 3653 2272 
Q 3653 2128 3634 1964 
Q 3616 1800 3578 1613 
z
" transform="scale(0.015625)"/>
      <path id="DejaVuSans-Oblique-46" d="M 3431 3366 
L 3316 2797 
Q 3109 2947 2876 3022 
Q 2644 3097 2394 3097 
Q 2119 3097 1870 3000 
Q 1622 2903 1453 2725 
Q 1184 2453 1037 2087 
Q 891 1722 891 1331 
Q 891 859 1127 628 
Q 1363 397 1844 397 
Q 2081 397 2348 469 
Q 2616 541 2906 684 
L 2797 116 
Q 2547 13 2283 -39 
Q 2019 -91 1741 -91 
Q 1044 -91 669 257 
Q 294 606 294 1253 
Q 294 1797 489 2255 
Q 684 2713 1069 3078 
Q 1331 3328 1684 3456 
Q 2038 3584 2456 3584 
Q 2700 3584 2940 3529 
Q 3181 3475 3431 3366 
z
" transform="scale(0.015625)"/>
      <path id="DejaVuSans-Oblique-52" d="M 1625 -91 
Q 1009 -91 651 289 
Q 294 669 294 1325 
Q 294 1706 417 2101 
Q 541 2497 738 2766 
Q 1047 3184 1428 3384 
Q 1809 3584 2291 3584 
Q 2888 3584 3255 3212 
Q 3622 2841 3622 2241 
Q 3622 1825 3500 1412 
Q 3378 1000 3181 728 
Q 2875 309 2494 109 
Q 2113 -91 1625 -91 
z
M 891 1344 
Q 891 869 1089 633 
Q 1288 397 1691 397 
Q 2269 397 2648 901 
Q 3028 1406 3028 2181 
Q 3028 2634 2825 2865 
Q 2622 3097 2228 3097 
Q 1903 3097 1650 2945 
Q 1397 2794 1197 2484 
Q 1050 2253 970 1956 
Q 891 1659 891 1344 
z
" transform="scale(0.015625)"/>
      <path id="DejaVuSans-Oblique-51" d="M 3566 2113 
L 3156 0 
L 2578 0 
L 2988 2091 
Q 3016 2238 3031 2350 
Q 3047 2463 3047 2528 
Q 3047 2791 2881 2937 
Q 2716 3084 2419 3084 
Q 1956 3084 1622 2776 
Q 1288 2469 1184 1941 
L 800 0 
L 225 0 
L 903 3500 
L 1478 3500 
L 1363 2950 
Q 1603 3253 1940 3418 
Q 2278 3584 2650 3584 
Q 3113 3584 3367 3334 
Q 3622 3084 3622 2631 
Q 3622 2519 3608 2391 
Q 3594 2263 3566 2113 
z
" transform="scale(0.015625)"/>
      <path id="DejaVuSans-Oblique-56" d="M 3200 3397 
L 3091 2853 
Q 2863 2978 2609 3040 
Q 2356 3103 2088 3103 
Q 1634 3103 1373 2948 
Q 1113 2794 1113 2528 
Q 1113 2219 1719 2053 
Q 1766 2041 1788 2034 
L 1972 1978 
Q 2547 1819 2739 1644 
Q 2931 1469 2931 1166 
Q 2931 609 2489 259 
Q 2047 -91 1331 -91 
Q 1053 -91 747 -37 
Q 441 16 72 128 
L 184 722 
Q 500 559 806 475 
Q 1113 391 1394 391 
Q 1816 391 2080 572 
Q 2344 753 2344 1031 
Q 2344 1331 1650 1516 
L 1591 1531 
L 1394 1581 
Q 956 1697 753 1886 
Q 550 2075 550 2369 
Q 550 2928 970 3256 
Q 1391 3584 2113 3584 
Q 2397 3584 2667 3537 
Q 2938 3491 3200 3397 
z
" transform="scale(0.015625)"/>
      <path id="DejaVuSans-Oblique-57" d="M 2706 3500 
L 2619 3053 
L 1472 3053 
L 1100 1153 
Q 1081 1047 1072 975 
Q 1063 903 1063 863 
Q 1063 663 1183 572 
Q 1303 481 1569 481 
L 2150 481 
L 2053 0 
L 1503 0 
Q 991 0 739 200 
Q 488 400 488 806 
Q 488 878 497 964 
Q 506 1050 525 1153 
L 897 3053 
L 409 3053 
L 500 3500 
L 978 3500 
L 1172 4494 
L 1747 4494 
L 1556 3500 
L 2706 3500 
z
" transform="scale(0.015625)"/>
      <path id="DejaVuSans-Oblique-4c" d="M 1172 4863 
L 1747 4863 
L 1606 4134 
L 1031 4134 
L 1172 4863 
z
M 909 3500 
L 1484 3500 
L 800 0 
L 225 0 
L 909 3500 
z
" transform="scale(0.015625)"/>
      <path id="DejaVuSans-Oblique-58" d="M 428 1388 
L 838 3500 
L 1416 3500 
L 1006 1409 
Q 975 1256 961 1147 
Q 947 1038 947 966 
Q 947 700 1109 554 
Q 1272 409 1569 409 
Q 2031 409 2368 721 
Q 2706 1034 2809 1563 
L 3194 3500 
L 3769 3500 
L 3091 0 
L 2516 0 
L 2631 550 
Q 2388 244 2052 76 
Q 1716 -91 1338 -91 
Q 878 -91 622 161 
Q 366 413 366 863 
Q 366 956 381 1097 
Q 397 1238 428 1388 
z
" transform="scale(0.015625)"/>
      <path id="DejaVuSans-Oblique-47" d="M 2675 525 
Q 2444 222 2128 65 
Q 1813 -91 1428 -91 
Q 903 -91 598 267 
Q 294 625 294 1247 
Q 294 1766 478 2236 
Q 663 2706 1013 3078 
Q 1244 3325 1534 3454 
Q 1825 3584 2144 3584 
Q 2481 3584 2739 3421 
Q 2997 3259 3138 2956 
L 3513 4863 
L 4091 4863 
L 3144 0 
L 2566 0 
L 2675 525 
z
M 891 1350 
Q 891 897 1095 644 
Q 1300 391 1663 391 
Q 1931 391 2161 520 
Q 2391 650 2566 903 
Q 2750 1166 2856 1509 
Q 2963 1853 2963 2188 
Q 2963 2622 2758 2865 
Q 2553 3109 2194 3109 
Q 1922 3109 1687 2981 
Q 1453 2853 1288 2613 
Q 1106 2353 998 2009 
Q 891 1666 891 1350 
z
" transform="scale(0.015625)"/>
      <path id="DejaVuSans-Oblique-3" transform="scale(0.015625)"/>
      <path id="DejaVuSans-Oblique-31" d="M 1081 4666 
L 1931 4666 
L 3219 666 
L 4000 4666 
L 4616 4666 
L 3706 0 
L 2853 0 
L 1569 4025 
L 788 0 
L 172 0 
L 1081 4666 
z
" transform="scale(0.015625)"/>
      <path id="DejaVuSans-Oblique-44" d="M 3438 1997 
L 3047 0 
L 2472 0 
L 2578 531 
Q 2325 219 2001 64 
Q 1678 -91 1281 -91 
Q 834 -91 548 182 
Q 263 456 263 884 
Q 263 1497 752 1853 
Q 1241 2209 2100 2209 
L 2900 2209 
L 2931 2363 
Q 2938 2388 2941 2417 
Q 2944 2447 2944 2509 
Q 2944 2788 2717 2942 
Q 2491 3097 2081 3097 
Q 1800 3097 1504 3025 
Q 1209 2953 897 2809 
L 997 3341 
Q 1322 3463 1633 3523 
Q 1944 3584 2234 3584 
Q 2853 3584 3176 3315 
Q 3500 3047 3500 2534 
Q 3500 2431 3484 2292 
Q 3469 2153 3438 1997 
z
M 2816 1759 
L 2241 1759 
Q 1534 1759 1195 1570 
Q 856 1381 856 984 
Q 856 709 1029 553 
Q 1203 397 1509 397 
Q 1978 397 2328 733 
Q 2678 1069 2791 1631 
L 2816 1759 
z
" transform="scale(0.015625)"/>
      <path id="DejaVuSans-Oblique-2f" d="M 1075 4666 
L 1709 4666 
L 909 525 
L 3181 525 
L 3078 0 
L 172 0 
L 1075 4666 
z
" transform="scale(0.015625)"/>
      <path id="DejaVuSans-Oblique-10" d="M 391 2009 
L 2075 2009 
L 1978 1497 
L 288 1497 
L 391 2009 
z
" transform="scale(0.015625)"/>
      <path id="DejaVuSans-Oblique-21" d="M 678 3150 
L 678 3719 
L 4684 2266 
L 4684 1747 
L 678 294 
L 678 863 
L 3897 2003 
L 678 3150 
z
" transform="scale(0.015625)"/>
      <path id="DejaVuSans-Oblique-4f" d="M 1172 4863 
L 1747 4863 
L 800 0 
L 225 0 
L 1172 4863 
z
" transform="scale(0.015625)"/>
      <path id="DejaVuSans-Oblique-50" d="M 5747 2113 
L 5338 0 
L 4763 0 
L 5166 2094 
Q 5191 2228 5203 2325 
Q 5216 2422 5216 2491 
Q 5216 2772 5059 2928 
Q 4903 3084 4622 3084 
Q 4203 3084 3875 2770 
Q 3547 2456 3450 1953 
L 3066 0 
L 2491 0 
L 2900 2094 
Q 2925 2209 2937 2307 
Q 2950 2406 2950 2484 
Q 2950 2769 2794 2926 
Q 2638 3084 2363 3084 
Q 1938 3084 1609 2770 
Q 1281 2456 1184 1953 
L 800 0 
L 225 0 
L 909 3500 
L 1484 3500 
L 1375 2956 
Q 1609 3263 1923 3423 
Q 2238 3584 2597 3584 
Q 2978 3584 3223 3384 
Q 3469 3184 3519 2828 
Q 3781 3197 4126 3390 
Q 4472 3584 4856 3584 
Q 5306 3584 5551 3325 
Q 5797 3066 5797 2591 
Q 5797 2488 5784 2364 
Q 5772 2241 5747 2113 
z
" transform="scale(0.015625)"/>
     </defs>
     <use xlink:href="#DejaVuSans-Oblique-35"/>
     <use xlink:href="#DejaVuSans-Oblique-48" transform="translate(69.484375 0)"/>
     <use xlink:href="#DejaVuSans-Oblique-46" transform="translate(131.015625 0)"/>
     <use xlink:href="#DejaVuSans-Oblique-52" transform="translate(186 0)"/>
     <use xlink:href="#DejaVuSans-Oblique-51" transform="translate(247.1875 0)"/>
     <use xlink:href="#DejaVuSans-Oblique-56" transform="translate(310.5625 0)"/>
     <use xlink:href="#DejaVuSans-Oblique-57" transform="translate(362.65625 0)"/>
     <use xlink:href="#DejaVuSans-Oblique-4c" transform="translate(401.859375 0)"/>
     <use xlink:href="#DejaVuSans-Oblique-57" transform="translate(429.640625 0)"/>
     <use xlink:href="#DejaVuSans-Oblique-58" transform="translate(468.84375 0)"/>
     <use xlink:href="#DejaVuSans-Oblique-57" transform="translate(532.21875 0)"/>
     <use xlink:href="#DejaVuSans-Oblique-48" transform="translate(571.421875 0)"/>
     <use xlink:href="#DejaVuSans-Oblique-47" transform="translate(632.953125 0)"/>
     <use xlink:href="#DejaVuSans-Oblique-3" transform="translate(696.4375 0)"/>
     <use xlink:href="#DejaVuSans-Oblique-31" transform="translate(728.21875 0)"/>
     <use xlink:href="#DejaVuSans-Oblique-44" transform="translate(803.03125 0)"/>
     <use xlink:href="#DejaVuSans-Oblique-51" transform="translate(864.3125 0)"/>
     <use xlink:href="#DejaVuSans-Oblique-52" transform="translate(927.6875 0)"/>
     <use xlink:href="#DejaVuSans-Oblique-2f" transform="translate(988.875 0)"/>
     <use xlink:href="#DejaVuSans-Oblique-58" transform="translate(1044.59375 0)"/>
     <use xlink:href="#DejaVuSans-Oblique-46" transform="translate(1107.96875 0)"/>
     <use xlink:href="#DejaVuSans-Oblique-3" transform="translate(1162.953125 0)"/>
     <use xlink:href="#DejaVuSans-Oblique-10" transform="translate(1194.734375 0)"/>
     <use xlink:href="#DejaVuSans-Oblique-21" transform="translate(1230.8125 0)"/>
     <use xlink:href="#DejaVuSans-Oblique-3" transform="translate(1314.609375 0)"/>
     <use xlink:href="#DejaVuSans-Oblique-4f" transform="translate(1346.390625 0)"/>
     <use xlink:href="#DejaVuSans-Oblique-58" transform="translate(1374.171875 0)"/>
     <use xlink:href="#DejaVuSans-Oblique-50" transform="translate(1437.546875 0)"/>
     <use xlink:href="#DejaVuSans-Oblique-4c" transform="translate(1534.953125 0)"/>
     <use xlink:href="#DejaVuSans-Oblique-51" transform="translate(1562.734375 0)"/>
     <use xlink:href="#DejaVuSans-Oblique-48" transform="translate(1626.109375 0)"/>
     <use xlink:href="#DejaVuSans-Oblique-56" transform="translate(1687.640625 0)"/>
     <use xlink:href="#DejaVuSans-Oblique-46" transform="translate(1739.734375 0)"/>
     <use xlink:href="#DejaVuSans-Oblique-48" transform="translate(1794.71875 0)"/>
     <use xlink:href="#DejaVuSans-Oblique-51" transform="translate(1856.25 0)"/>
     <use xlink:href="#DejaVuSans-Oblique-46" transform="translate(1919.625 0)"/>
     <use xlink:href="#DejaVuSans-Oblique-48" transform="translate(1974.609375 0)"/>
    </g>
    <!-- (only when BOTH bind adjacent layers) -->
    <g style="fill: #262626" transform="translate(255.783406 74.905169) scale(0.1 -0.1)">
     <defs>
      <path id="DejaVuSans-Oblique-b" d="M 2731 4856 
Q 1903 3822 1495 2892 
Q 1088 1963 1088 1100 
Q 1088 606 1206 120 
Q 1325 -366 1563 -844 
L 1063 -844 
Q 775 -306 634 201 
Q 494 709 494 1197 
Q 494 2125 923 3036 
Q 1353 3947 2222 4856 
L 2731 4856 
z
" transform="scale(0.015625)"/>
      <path id="DejaVuSans-Oblique-5c" d="M 1588 -325 
Q 1188 -997 936 -1164 
Q 684 -1331 294 -1331 
L -159 -1331 
L -63 -850 
L 269 -850 
Q 509 -850 678 -719 
Q 847 -588 1056 -206 
L 1234 128 
L 459 3500 
L 1069 3500 
L 1650 819 
L 3256 3500 
L 3859 3500 
L 1588 -325 
z
" transform="scale(0.015625)"/>
      <path id="DejaVuSans-Oblique-5a" d="M 544 3500 
L 1113 3500 
L 1259 684 
L 2566 3500 
L 3231 3500 
L 3425 684 
L 4666 3500 
L 5241 3500 
L 3641 0 
L 2969 0 
L 2797 2900 
L 1459 0 
L 781 0 
L 544 3500 
z
" transform="scale(0.015625)"/>
      <path id="DejaVuSans-Oblique-4b" d="M 3566 2113 
L 3156 0 
L 2578 0 
L 2988 2091 
Q 3016 2238 3031 2350 
Q 3047 2463 3047 2528 
Q 3047 2791 2881 2937 
Q 2716 3084 2419 3084 
Q 1956 3084 1617 2771 
Q 1278 2459 1178 1941 
L 800 0 
L 225 0 
L 1172 4863 
L 1747 4863 
L 1375 2950 
Q 1594 3244 1934 3414 
Q 2275 3584 2650 3584 
Q 3113 3584 3367 3334 
Q 3622 3084 3622 2631 
Q 3622 2519 3608 2391 
Q 3594 2263 3566 2113 
z
" transform="scale(0.015625)"/>
      <path id="DejaVuSans-Oblique-25" d="M 1081 4666 
L 2694 4666 
Q 3350 4666 3675 4422 
Q 4000 4178 4000 3688 
Q 4000 3238 3720 2911 
Q 3441 2584 2988 2516 
Q 3375 2428 3569 2181 
Q 3763 1934 3763 1522 
Q 3763 819 3242 409 
Q 2722 0 1819 0 
L 172 0 
L 1081 4666 
z
M 1234 2228 
L 903 519 
L 1919 519 
Q 2491 519 2800 781 
Q 3109 1044 3109 1522 
Q 3109 1891 2904 2059 
Q 2700 2228 2247 2228 
L 1234 2228 
z
M 1606 4147 
L 1331 2741 
L 2272 2741 
Q 2775 2741 3058 2959 
Q 3341 3178 3341 3566 
Q 3341 3869 3150 4008 
Q 2959 4147 2541 4147 
L 1606 4147 
z
" transform="scale(0.015625)"/>
      <path id="DejaVuSans-Oblique-32" d="M 2919 4238 
Q 2400 4238 2003 3986 
Q 1606 3734 1313 3219 
Q 1125 2891 1026 2522 
Q 928 2153 928 1778 
Q 928 1128 1239 775 
Q 1550 422 2119 422 
Q 2631 422 3032 676 
Q 3434 931 3719 1434 
Q 3909 1772 4009 2142 
Q 4109 2513 4109 2881 
Q 4109 3528 3796 3883 
Q 3484 4238 2919 4238 
z
M 2100 -91 
Q 1241 -91 748 418 
Q 256 928 256 1813 
Q 256 2319 448 2847 
Q 641 3375 978 3788 
Q 1375 4272 1862 4511 
Q 2350 4750 2938 4750 
Q 3794 4750 4287 4245 
Q 4781 3741 4781 2869 
Q 4781 2331 4593 1812 
Q 4406 1294 4056 872 
Q 3656 384 3173 146 
Q 2691 -91 2100 -91 
z
" transform="scale(0.015625)"/>
      <path id="DejaVuSans-Oblique-37" d="M 378 4666 
L 4325 4666 
L 4225 4134 
L 2559 4134 
L 1759 0 
L 1125 0 
L 1925 4134 
L 275 4134 
L 378 4666 
z
" transform="scale(0.015625)"/>
      <path id="DejaVuSans-Oblique-2b" d="M 1081 4666 
L 1716 4666 
L 1344 2753 
L 3634 2753 
L 4006 4666 
L 4641 4666 
L 3731 0 
L 3097 0 
L 3531 2222 
L 1241 2222 
L 806 0 
L 172 0 
L 1081 4666 
z
" transform="scale(0.015625)"/>
      <path id="DejaVuSans-Oblique-45" d="M 3169 2138 
Q 3169 2591 2961 2847 
Q 2753 3103 2388 3103 
Q 2122 3103 1889 2973 
Q 1656 2844 1484 2597 
Q 1303 2338 1198 1995 
Q 1094 1653 1094 1313 
Q 1094 881 1298 636 
Q 1503 391 1863 391 
Q 2134 391 2365 517 
Q 2597 644 2772 891 
Q 2950 1147 3059 1487 
Q 3169 1828 3169 2138 
z
M 1381 2969 
Q 1594 3256 1914 3420 
Q 2234 3584 2584 3584 
Q 3122 3584 3439 3221 
Q 3756 2859 3756 2241 
Q 3756 1734 3570 1259 
Q 3384 784 3041 416 
Q 2816 172 2522 40 
Q 2228 -91 1906 -91 
Q 1566 -91 1316 65 
Q 1066 222 909 531 
L 806 0 
L 231 0 
L 1178 4863 
L 1753 4863 
L 1381 2969 
z
" transform="scale(0.015625)"/>
      <path id="DejaVuSans-Oblique-4d" d="M 928 3500 
L 1503 3500 
L 813 -63 
L 809 -78 
Q 694 -675 544 -897 
Q 403 -1106 132 -1218 
Q -138 -1331 -506 -1331 
L -722 -1331 
L -628 -844 
L -481 -844 
Q -144 -844 -1 -703 
Q 141 -563 238 -63 
L 928 3500 
z
M 1197 4863 
L 1772 4863 
L 1631 4134 
L 1056 4134 
L 1197 4863 
z
" transform="scale(0.015625)"/>
      <path id="DejaVuSans-Oblique-55" d="M 2853 2969 
Q 2766 3016 2653 3041 
Q 2541 3066 2413 3066 
Q 1953 3066 1609 2717 
Q 1266 2369 1153 1784 
L 800 0 
L 225 0 
L 909 3500 
L 1484 3500 
L 1375 2956 
Q 1603 3259 1920 3421 
Q 2238 3584 2597 3584 
Q 2691 3584 2781 3573 
Q 2872 3563 2963 3538 
L 2853 2969 
z
" transform="scale(0.015625)"/>
      <path id="DejaVuSans-Oblique-c" d="M -397 -844 
Q 434 191 840 1120 
Q 1247 2050 1247 2913 
Q 1247 3406 1130 3892 
Q 1013 4378 775 4856 
L 1275 4856 
Q 1563 4316 1703 3812 
Q 1844 3309 1844 2822 
Q 1844 1891 1411 973 
Q 978 56 116 -844 
L -397 -844 
z
" transform="scale(0.015625)"/>
     </defs>
     <use xlink:href="#DejaVuSans-Oblique-b"/>
     <use xlink:href="#DejaVuSans-Oblique-52" transform="translate(39.015625 0)"/>
     <use xlink:href="#DejaVuSans-Oblique-51" transform="translate(100.203125 0)"/>
     <use xlink:href="#DejaVuSans-Oblique-4f" transform="translate(163.578125 0)"/>
     <use xlink:href="#DejaVuSans-Oblique-5c" transform="translate(191.359375 0)"/>
     <use xlink:href="#DejaVuSans-Oblique-3" transform="translate(250.546875 0)"/>
     <use xlink:href="#DejaVuSans-Oblique-5a" transform="translate(282.328125 0)"/>
     <use xlink:href="#DejaVuSans-Oblique-4b" transform="translate(364.109375 0)"/>
     <use xlink:href="#DejaVuSans-Oblique-48" transform="translate(427.484375 0)"/>
     <use xlink:href="#DejaVuSans-Oblique-51" transform="translate(489.015625 0)"/>
     <use xlink:href="#DejaVuSans-Oblique-3" transform="translate(552.390625 0)"/>
     <use xlink:href="#DejaVuSans-Oblique-25" transform="translate(584.171875 0)"/>
     <use xlink:href="#DejaVuSans-Oblique-32" transform="translate(652.78125 0)"/>
     <use xlink:href="#DejaVuSans-Oblique-37" transform="translate(731.5 0)"/>
     <use xlink:href="#DejaVuSans-Oblique-2b" transform="translate(792.578125 0)"/>
     <use xlink:href="#DejaVuSans-Oblique-3" transform="translate(867.78125 0)"/>
     <use xlink:href="#DejaVuSans-Oblique-45" transform="translate(899.5625 0)"/>
     <use xlink:href="#DejaVuSans-Oblique-4c" transform="translate(963.046875 0)"/>
     <use xlink:href="#DejaVuSans-Oblique-51" transform="translate(990.828125 0)"/>
     <use xlink:href="#DejaVuSans-Oblique-47" transform="translate(1054.203125 0)"/>
     <use xlink:href="#DejaVuSans-Oblique-3" transform="translate(1117.6875 0)"/>
     <use xlink:href="#DejaVuSans-Oblique-44" transform="translate(1149.46875 0)"/>
     <use xlink:href="#DejaVuSans-Oblique-47" transform="translate(1210.75 0)"/>
     <use xlink:href="#DejaVuSans-Oblique-4d" transform="translate(1274.234375 0)"/>
     <use xlink:href="#DejaVuSans-Oblique-44" transform="translate(1302.015625 0)"/>
     <use xlink:href="#DejaVuSans-Oblique-46" transform="translate(1363.296875 0)"/>
     <use xlink:href="#DejaVuSans-Oblique-48" transform="translate(1418.28125 0)"/>
     <use xlink:href="#DejaVuSans-Oblique-51" transform="translate(1479.8125 0)"/>
     <use xlink:href="#DejaVuSans-Oblique-57" transform="translate(1543.1875 0)"/>
     <use xlink:href="#DejaVuSans-Oblique-3" transform="translate(1582.390625 0)"/>
     <use xlink:href="#DejaVuSans-Oblique-4f" transform="translate(1614.171875 0)"/>
     <use xlink:href="#DejaVuSans-Oblique-44" transform="translate(1641.953125 0)"/>
     <use xlink:href="#DejaVuSans-Oblique-5c" transform="translate(1703.234375 0)"/>
     <use xlink:href="#DejaVuSans-Oblique-48" transform="translate(1762.421875 0)"/>
     <use xlink:href="#DejaVuSans-Oblique-55" transform="translate(1823.953125 0)"/>
     <use xlink:href="#DejaVuSans-Oblique-56" transform="translate(1865.0625 0)"/>
     <use xlink:href="#DejaVuSans-Oblique-c" transform="translate(1917.15625 0)"/>
    </g>
   </g>
   <g id="text_5">
    <!-- Split-NanoLuc conformation-sensitive AD-tau biosensor -->
    <g style="fill: #262626" transform="translate(174.093484 17.077969) scale(0.13 -0.13)">
     <defs>
      <path id="DejaVuSans-53" d="M 1159 525 
L 1159 -1331 
L 581 -1331 
L 581 3500 
L 1159 3500 
L 1159 2969 
Q 1341 3281 1617 3432 
Q 1894 3584 2278 3584 
Q 2916 3584 3314 3078 
Q 3713 2572 3713 1747 
Q 3713 922 3314 415 
Q 2916 -91 2278 -91 
Q 1894 -91 1617 61 
Q 1341 213 1159 525 
z
M 3116 1747 
Q 3116 2381 2855 2742 
Q 2594 3103 2138 3103 
Q 1681 3103 1420 2742 
Q 1159 2381 1159 1747 
Q 1159 1113 1420 752 
Q 1681 391 2138 391 
Q 2594 391 2855 752 
Q 3116 1113 3116 1747 
z
" transform="scale(0.015625)"/>
      <path id="DejaVuSans-31" d="M 628 4666 
L 1478 4666 
L 3547 763 
L 3547 4666 
L 4159 4666 
L 4159 0 
L 3309 0 
L 1241 3903 
L 1241 0 
L 628 0 
L 628 4666 
z
" transform="scale(0.015625)"/>
      <path id="DejaVuSans-52" d="M 1959 3097 
Q 1497 3097 1228 2736 
Q 959 2375 959 1747 
Q 959 1119 1226 758 
Q 1494 397 1959 397 
Q 2419 397 2687 759 
Q 2956 1122 2956 1747 
Q 2956 2369 2687 2733 
Q 2419 3097 1959 3097 
z
M 1959 3584 
Q 2709 3584 3137 3096 
Q 3566 2609 3566 1747 
Q 3566 888 3137 398 
Q 2709 -91 1959 -91 
Q 1206 -91 779 398 
Q 353 888 353 1747 
Q 353 2609 779 3096 
Q 1206 3584 1959 3584 
z
" transform="scale(0.015625)"/>
      <path id="DejaVuSans-49" d="M 2375 4863 
L 2375 4384 
L 1825 4384 
Q 1516 4384 1395 4259 
Q 1275 4134 1275 3809 
L 1275 3500 
L 2222 3500 
L 2222 3053 
L 1275 3053 
L 1275 0 
L 697 0 
L 697 3053 
L 147 3053 
L 147 3500 
L 697 3500 
L 697 3744 
Q 697 4328 969 4595 
Q 1241 4863 1831 4863 
L 2375 4863 
z
" transform="scale(0.015625)"/>
      <path id="DejaVuSans-59" d="M 191 3500 
L 800 3500 
L 1894 563 
L 2988 3500 
L 3597 3500 
L 2284 0 
L 1503 0 
L 191 3500 
z
" transform="scale(0.015625)"/>
     </defs>
     <use xlink:href="#DejaVuSans-36"/>
     <use xlink:href="#DejaVuSans-53" transform="translate(63.484375 0)"/>
     <use xlink:href="#DejaVuSans-4f" transform="translate(126.96875 0)"/>
     <use xlink:href="#DejaVuSans-4c" transform="translate(154.75 0)"/>
     <use xlink:href="#DejaVuSans-57" transform="translate(182.53125 0)"/>
     <use xlink:href="#DejaVuSans-10" transform="translate(221.734375 0)"/>
     <use xlink:href="#DejaVuSans-31" transform="translate(257.8125 0)"/>
     <use xlink:href="#DejaVuSans-44" transform="translate(332.625 0)"/>
     <use xlink:href="#DejaVuSans-51" transform="translate(393.90625 0)"/>
     <use xlink:href="#DejaVuSans-52" transform="translate(457.28125 0)"/>
     <use xlink:href="#DejaVuSans-2f" transform="translate(518.46875 0)"/>
     <use xlink:href="#DejaVuSans-58" transform="translate(572.4375 0)"/>
     <use xlink:href="#DejaVuSans-46" transform="translate(635.8125 0)"/>
     <use xlink:href="#DejaVuSans-3" transform="translate(690.796875 0)"/>
     <use xlink:href="#DejaVuSans-46" transform="translate(722.578125 0)"/>
     <use xlink:href="#DejaVuSans-52" transform="translate(777.5625 0)"/>
     <use xlink:href="#DejaVuSans-51" transform="translate(838.75 0)"/>
     <use xlink:href="#DejaVuSans-49" transform="translate(902.125 0)"/>
     <use xlink:href="#DejaVuSans-52" transform="translate(937.328125 0)"/>
     <use xlink:href="#DejaVuSans-55" transform="translate(998.515625 0)"/>
     <use xlink:href="#DejaVuSans-50" transform="translate(1037.875 0)"/>
     <use xlink:href="#DejaVuSans-44" transform="translate(1135.28125 0)"/>
     <use xlink:href="#DejaVuSans-57" transform="translate(1196.5625 0)"/>
     <use xlink:href="#DejaVuSans-4c" transform="translate(1235.765625 0)"/>
     <use xlink:href="#DejaVuSans-52" transform="translate(1263.546875 0)"/>
     <use xlink:href="#DejaVuSans-51" transform="translate(1324.734375 0)"/>
     <use xlink:href="#DejaVuSans-10" transform="translate(1388.109375 0)"/>
     <use xlink:href="#DejaVuSans-56" transform="translate(1424.1875 0)"/>
     <use xlink:href="#DejaVuSans-48" transform="translate(1476.28125 0)"/>
     <use xlink:href="#DejaVuSans-51" transform="translate(1537.8125 0)"/>
     <use xlink:href="#DejaVuSans-56" transform="translate(1601.1875 0)"/>
     <use xlink:href="#DejaVuSans-4c" transform="translate(1653.28125 0)"/>
     <use xlink:href="#DejaVuSans-57" transform="translate(1681.0625 0)"/>
     <use xlink:href="#DejaVuSans-4c" transform="translate(1720.265625 0)"/>
     <use xlink:href="#DejaVuSans-59" transform="translate(1748.046875 0)"/>
     <use xlink:href="#DejaVuSans-48" transform="translate(1807.234375 0)"/>
     <use xlink:href="#DejaVuSans-3" transform="translate(1868.765625 0)"/>
     <use xlink:href="#DejaVuSans-24" transform="translate(1900.546875 0)"/>
     <use xlink:href="#DejaVuSans-27" transform="translate(1968.953125 0)"/>
     <use xlink:href="#DejaVuSans-10" transform="translate(2045.953125 0)"/>
     <use xlink:href="#DejaVuSans-57" transform="translate(2082.03125 0)"/>
     <use xlink:href="#DejaVuSans-44" transform="translate(2121.234375 0)"/>
     <use xlink:href="#DejaVuSans-58" transform="translate(2182.515625 0)"/>
     <use xlink:href="#DejaVuSans-3" transform="translate(2245.890625 0)"/>
     <use xlink:href="#DejaVuSans-45" transform="translate(2277.671875 0)"/>
     <use xlink:href="#DejaVuSans-4c" transform="translate(2341.15625 0)"/>
     <use xlink:href="#DejaVuSans-52" transform="translate(2368.9375 0)"/>
     <use xlink:href="#DejaVuSans-56" transform="translate(2430.125 0)"/>
     <use xlink:href="#DejaVuSans-48" transform="translate(2482.21875 0)"/>
     <use xlink:href="#DejaVuSans-51" transform="translate(2543.75 0)"/>
     <use xlink:href="#DejaVuSans-56" transform="translate(2607.125 0)"/>
     <use xlink:href="#DejaVuSans-52" transform="translate(2659.21875 0)"/>
     <use xlink:href="#DejaVuSans-55" transform="translate(2720.40625 0)"/>
    </g>
   </g>
  </g>
 </g>
 <defs>
  <clipPath id="p68e1ac9e64">
   <rect x="7.2" y="23.077969" width="692.784" height="388.704"/>
  </clipPath>
 </defs>
</svg>
